<svg width="106" height="37" viewBox="0 0 106 37" fill="none" xmlns="http://www.w3.org/2000/svg">
<circle cx="59.4061" cy="11.4673" r="8.80621" fill="#0090CE"/>
<path d="M9.54298 0.885248C6.03869 1.21899 2.8378 3.4945 1.04773 6.93812C0.759495 7.52975 0.592624 7.98485 0.289222 9.2288C0.046501 10.1693 -0.0141794 12.9 0.198202 13.5674C0.274052 13.8102 0.440923 14.3866 0.592624 14.8569C0.880856 15.8581 1.86691 17.5724 2.73161 18.5887C3.42943 19.4079 4.94644 20.6064 5.28018 20.6064C5.41671 20.6064 5.5229 20.667 5.5229 20.7277C5.5229 20.8339 6.43311 21.3497 6.81236 21.4559C6.90338 21.4862 7.26746 21.6076 7.63155 21.7441C8.58726 22.093 11.0296 22.2902 12.2433 22.1234C13.4265 21.9565 14.989 21.4407 15.5655 21.0463C15.7779 20.8794 16.0054 20.7581 16.0509 20.7581C16.1116 20.7581 16.415 20.5912 16.7488 20.3788C17.0825 20.1664 17.4011 19.9996 17.4769 19.9996C17.5528 19.9996 17.9017 20.2878 18.281 20.6367C19.085 21.3952 20.4048 22.1234 21.0116 22.1234H21.4515V11.5043V0.885248H21.0571C20.4199 0.885248 18.7512 1.79545 18.2051 2.4326C17.932 2.75117 17.6286 3.00906 17.5376 3.00906C17.4466 3.00906 16.8701 2.70566 16.2633 2.34158C15.6565 1.9775 14.7311 1.52239 14.2154 1.35552C13.3203 1.05212 11.4847 0.718378 10.9841 0.763887C10.8628 0.763887 10.2105 0.824568 9.54298 0.885248ZM12.046 5.58798C13.1231 5.86104 13.9423 6.22512 14.4126 6.63471C14.6856 6.87743 14.9587 7.08982 15.0346 7.12016C15.338 7.24152 16.2026 8.72819 16.4757 9.56254C16.8246 10.7003 16.8398 12.5966 16.5061 13.4157C15.9751 14.7355 15.7779 15.0541 14.9132 15.9036C14.1547 16.647 13.8209 16.8442 12.8045 17.1779C11.333 17.6634 10.165 17.6937 8.86032 17.2538C6.67583 16.5408 5.18916 14.7659 4.74923 12.3538C4.58236 11.5043 4.59753 11.2161 4.82508 10.2604C4.97678 9.65356 5.20433 8.94057 5.34086 8.68268C5.65943 8.09104 6.63032 7.02914 7.37366 6.46784C8.48107 5.63349 10.6352 5.22389 12.046 5.58798Z" fill="#5A078B"/>
<path d="M33.7545 0.899944C32.6016 1.05165 30.8115 1.56743 30.5233 1.84049C30.4171 1.93151 30.0682 2.14389 29.7648 2.28042C29.4462 2.43213 29.1883 2.61417 29.1883 2.70518C29.1883 2.78104 29.067 2.85689 28.9304 2.85689C28.6422 2.85689 26.6246 4.88968 26.306 5.52682C26.1847 5.76954 26.0481 5.9971 26.0026 6.04261C25.8357 6.20948 25.2289 7.54445 24.9255 8.46982C24.6525 9.27384 24.5766 9.81996 24.5766 11.3521C24.5615 12.4899 24.6373 13.5821 24.7738 14.0828C25.0317 15.1295 26.2302 17.5415 26.7004 17.9815C26.8976 18.1635 27.0645 18.3759 27.0645 18.4366C27.0645 18.5124 27.2466 18.74 27.4893 18.9524C27.7168 19.1496 28.0354 19.4833 28.1871 19.6653L28.4905 20.0143L27.8989 20.6059L27.3224 21.1975L28.0506 22.0015C29.3855 23.4427 29.6131 23.7158 29.9923 24.1557L30.3564 24.6108L31.3273 23.7764C32.5409 22.7297 33.618 22.3505 35.3322 22.3505C37.0768 22.3505 38.1842 22.8056 39.413 24.004C40.7024 25.2631 41.3244 26.7043 41.3244 28.4488C41.3244 30.1479 40.126 32.5144 38.9124 33.1971C38.7303 33.2881 38.7303 33.3943 38.8972 33.7887C39.0034 34.0618 39.2309 34.3803 39.413 34.532C39.5798 34.6686 40.126 35.2602 40.6114 35.8215C41.0969 36.3828 41.5823 36.8379 41.6733 36.8379C42.1284 36.8379 43.7364 35.0023 44.5556 33.546C46.9373 29.3439 46.0726 23.9888 42.4622 20.5907L41.8554 20.0143L42.538 19.2861C42.9173 18.8917 43.3269 18.4669 43.4482 18.3304C44.1915 17.5567 45.1928 15.7515 45.481 14.6289C45.6024 14.1586 45.7541 13.7035 45.7996 13.6125C45.9968 13.3091 45.8906 9.91098 45.663 9.07662C45.1624 7.24104 44.8742 6.57356 44.146 5.60267C43.6151 4.90485 43.6454 4.70764 44.3281 4.0705C45.1321 3.34233 45.8603 1.91634 45.8754 1.06682V0.733074L40.308 0.748245C37.2285 0.763416 34.2855 0.824097 33.7545 0.899944ZM37.2588 5.63301C37.4712 5.64818 37.6381 5.6937 37.6077 5.72404C37.5774 5.75438 37.8656 5.98193 38.26 6.25499C39.7315 7.25621 40.5052 8.18159 40.9603 9.53173C41.2637 10.4419 41.3396 13.0208 41.0513 13.3698C40.9755 13.4608 40.8541 13.7187 40.7934 13.9311C40.6266 14.462 39.4888 15.9183 38.8517 16.4038C37.5926 17.3595 35.5598 17.7691 33.8759 17.4202C32.2223 17.0713 30.5991 15.7363 29.6738 14.0069C29.2945 13.3091 29.2642 13.0967 29.2642 11.5038C29.2642 9.80479 29.2793 9.72894 29.78 8.81873C30.6295 7.25621 31.7369 6.27016 33.3298 5.72404C34.0883 5.45097 34.6496 5.4358 37.2588 5.63301Z" fill="#5A078B"/>
<path d="M58.0114 0.8694C56.2062 1.06661 54.2341 1.91614 52.7019 3.14491C51.822 3.84274 50.3657 5.54179 50.0774 6.1941C49.9864 6.40648 49.7892 6.75539 49.6375 6.96778C48.8032 8.21172 48.4391 12.0346 48.9549 14.0825C49.7437 17.1317 51.8827 19.7107 54.765 21.1366C56.4185 21.9407 57.3743 22.1379 59.4981 22.153C61.8494 22.1682 63.7002 21.5766 65.642 20.1809C68.858 17.8902 70.6329 13.6578 69.9503 9.83492C69.5407 7.43805 68.5698 5.55696 66.9011 3.90342C66.3246 3.32695 65.8088 2.85668 65.733 2.85668C65.6723 2.85668 65.4296 2.70498 65.1869 2.50777C64.7773 2.15886 63.0175 1.38518 61.9556 1.06661C61.1971 0.83906 59.1795 0.748039 58.0114 0.8694ZM61.1668 5.75417C61.6371 5.92104 62.168 6.10308 62.3197 6.16376C62.6231 6.25478 63.2603 6.75539 63.8822 7.39254C64.9138 8.46961 65.5206 10.3204 65.4144 12.0649C65.3689 12.6717 65.2627 13.2482 65.1869 13.3544C65.0958 13.4606 64.9896 13.7488 64.929 13.9764C64.8683 14.2191 64.6862 14.5528 64.5345 14.7349C64.3677 14.9017 64.2311 15.1293 64.2311 15.2203C64.2311 15.4782 62.4107 16.9497 62.077 16.9649C62.0163 16.9649 61.7888 17.0407 61.546 17.1469C60.9241 17.3896 60.7724 17.42 59.6801 17.511C57.9962 17.6627 56.6309 17.1772 55.3415 15.9788C54.5375 15.2355 53.5817 13.8853 53.5969 13.5213C53.6121 13.4454 53.5362 13.1723 53.4452 12.8841C53.2025 12.1711 53.3694 10.2597 53.7486 9.25846C54.052 8.43927 54.1279 8.30274 54.8257 7.5139C56.3882 5.70866 59.0278 4.98049 61.1668 5.75417Z" fill="#5A078B"/>
<path d="M93.5853 0.88419C92.402 1.0814 91.6283 1.30895 91.5676 1.49099C91.5373 1.56684 91.4615 1.61235 91.4008 1.56684C91.2187 1.46065 90.0506 2.05229 89.0342 2.78045C87.4565 3.91821 86.425 5.16216 85.5906 6.95223C84.5894 9.06087 84.3163 11.4426 84.7866 13.7029C85.0445 14.9014 85.5906 16.3577 85.7878 16.3577C85.8637 16.3577 85.9244 16.4639 85.9244 16.5852C85.9244 17.2679 88.3971 19.9985 89.4742 20.5143C89.7624 20.6508 90.0506 20.8329 90.0961 20.8935C90.2023 21.0756 91.9621 21.7279 92.9785 21.9706C93.9797 22.2133 96.4069 22.183 97.7419 21.8948C98.7583 21.6824 101.049 20.6812 101.565 20.2109C101.686 20.0895 101.853 19.9985 101.914 19.9985C101.974 19.9985 102.445 20.3778 102.945 20.8177C103.446 21.288 104.068 21.6976 104.341 21.7582C104.599 21.8037 104.887 21.9251 104.993 22.001C105.099 22.0768 105.327 22.1223 105.524 22.092L105.873 22.0465L105.919 11.4577C105.949 1.17242 105.949 0.88419 105.661 0.88419C104.887 0.88419 103.764 1.43031 102.945 2.20399C102.02 3.06868 101.929 3.11419 101.565 2.79562C101.14 2.41637 98.6066 1.18759 98.2577 1.18759C98.0756 1.18759 97.7419 1.11174 97.5143 1.02072C96.953 0.808338 94.541 0.717318 93.5853 0.88419ZM96.9985 5.67794C98.2728 6.11787 98.7431 6.4061 99.5016 7.19495C102.005 9.75869 101.974 13.3085 99.4257 15.8874C98.9706 16.3577 98.5155 16.7521 98.4397 16.7673C98.3487 16.7824 97.8481 16.9797 97.3171 17.2072C96.4524 17.5561 96.1793 17.6016 95.0416 17.541C93.9493 17.4954 93.5701 17.4044 92.7206 16.9797C91.4159 16.3425 90.3995 15.3413 89.8079 14.0973C89.368 13.172 89.3376 12.9748 89.3376 11.5033C89.3376 10.2745 89.3983 9.77386 89.6259 9.30359C89.7776 8.96985 89.9748 8.52992 90.081 8.31753C90.3237 7.78658 91.5525 6.61848 92.2503 6.2544C92.5689 6.1027 92.8571 5.93583 92.9026 5.89032C93.297 5.46556 95.9821 5.32903 96.9985 5.67794Z" fill="#5A078B"/>
<path d="M72.9235 1.05095C72.7718 1.20265 72.7263 3.49334 72.7263 11.4425C72.7263 17.0554 72.7718 21.743 72.8173 21.8795C72.9539 22.2284 73.5 22.1829 74.4405 21.7581C75.548 21.2727 76.3975 20.4687 76.9133 19.4219L77.3532 18.5572L77.4442 14.4613C77.4897 12.201 77.5807 10.1985 77.6414 9.98613C78.0207 8.72702 78.6882 7.71062 79.6894 6.89144C80.6754 6.10259 80.903 5.9964 82.9965 5.35926C83.1178 5.31375 83.1785 4.75245 83.1785 3.5085C83.1785 1.23299 83.1178 0.884079 82.6931 0.884079C82.1773 0.884079 80.7665 1.24816 80.7665 1.36952C80.7665 1.44537 80.6603 1.49088 80.5389 1.49088C80.3265 1.49088 79.477 1.93081 78.9157 2.32524C78.764 2.41626 78.6882 2.55279 78.7488 2.61347C78.8095 2.67415 78.764 2.67415 78.6275 2.62864C78.491 2.58313 78.2027 2.75 77.8841 3.08374C77.3835 3.59953 76.8222 3.79674 76.8222 3.44782C76.8222 3.37197 76.4885 2.93204 76.0637 2.49211C74.9867 1.35435 73.3635 0.611017 72.9235 1.05095Z" fill="#5A078B"/>
</svg>
