<svg width="54" height="41" viewBox="0 0 54 41" fill="none" xmlns="http://www.w3.org/2000/svg">
<g clip-path="url(#clip0_36_395)">
<path d="M32.753 40.979H32.0653C22.6673 40.979 13.2694 40.9552 3.87141 41C1.96453 41.0084 0.541406 40.3248 0 38.3522V35.8304C0.420469 34.9211 1.14328 34.6577 2.12344 34.6605C11.8027 34.6844 21.4819 34.6746 31.1611 34.6746H31.8234C31.9739 36.7872 31.4677 38.9616 32.753 40.979Z" fill="#5A078B"/>
<path d="M50.836 5.06318V6.30446H50.2172C46.2811 6.30446 42.345 6.30306 38.4075 6.30446C34.605 6.30726 31.853 9.042 31.8516 12.8219C31.8502 18.8265 31.8516 24.8326 31.8516 30.8372V31.4985H3.16408V30.9157C3.16408 22.2842 3.16267 13.6527 3.16408 5.02115C3.16548 1.99361 5.17501 0 8.22658 0H45.7636C48.8475 0 50.8331 1.9852 50.836 5.06318Z" fill="#5A078B"/>
<path d="M50.5856 9.45668C46.5427 9.45528 42.4997 9.45528 38.4567 9.45668C36.3164 9.45808 35.0156 10.7568 35.0156 12.8975V37.5367C35.0156 39.6704 36.322 40.9776 38.4553 40.979C42.4814 40.9804 46.5061 40.9804 50.5322 40.979C52.7062 40.9776 53.9986 39.6845 54 37.5115C54.0014 33.4136 54 29.3157 54 25.2178C54 21.1017 54.0014 16.987 54 12.8723C53.9986 10.768 52.688 9.45808 50.5856 9.45668ZM44.5472 14.1864C45.4022 14.2088 46.1025 14.936 46.087 15.7878C46.073 16.6382 45.3473 17.3429 44.4937 17.3359C43.6402 17.3274 42.9272 16.6115 42.9272 15.7611C42.9272 14.8897 43.6739 14.164 44.5472 14.1864ZM46.0687 36.2464C45.0352 36.2618 44.0002 36.2604 42.9666 36.2464C42.037 36.2352 41.3438 35.5487 41.3452 34.6703C41.3466 33.7961 42.0427 33.118 42.9722 33.1012C43.4812 33.09 43.9889 33.0984 44.498 33.0984C45.0239 33.0984 45.5498 33.0886 46.0744 33.1012C46.9758 33.1236 47.6564 33.7933 47.6691 34.6507C47.6831 35.5291 46.9941 36.2324 46.0687 36.2464Z" fill="#0090CE"/>
</g>
<defs>
<clipPath id="clip0_36_395">
<rect width="54" height="41" fill="white"/>
</clipPath>
</defs>
</svg>
