<svg width="36" height="49" viewBox="0 0 36 49" fill="none" xmlns="http://www.w3.org/2000/svg">
<path d="M7.21016 0.940376C6.91457 1.07309 6.73359 1.31439 6.64311 1.67634C6.60691 1.82112 5.84682 6.62299 4.95401 12.3478C3.29507 23.0012 1.05701 37.2741 0.85191 38.547C0.785552 38.9391 0.719195 39.2889 0.695065 39.3251C0.670935 39.3613 0.676968 39.3794 0.70713 39.3674C0.737293 39.3553 5.86491 34.2337 12.1025 27.9841L23.4376 16.6249L23.2204 16.1905C22.0561 13.8982 18.9313 8.05269 18.7805 7.90187C18.4125 7.52786 17.8274 7.50373 17.4594 7.84758C17.2905 8.01046 16.2046 10.0253 14.986 12.4323C14.793 12.8123 14.7749 12.8365 14.6965 12.7339C14.6301 12.6494 14.612 12.6434 14.606 12.7037C14.606 12.9088 14.8594 13.3794 11.0167 6.10419C9.61712 3.44386 8.41666 1.25407 8.31411 1.13945C8.01248 0.82576 7.62037 0.753368 7.21016 0.940376Z" fill="#5A078B"/>
<path d="M29.6873 10.6944C29.5485 10.7548 24.5898 15.6712 15.1188 25.1362L0.761475 39.4875L2.05846 40.2114C4.89977 41.7919 14.8172 47.2875 15.7522 47.8003C17.0552 48.5182 17.2302 48.5725 18.1049 48.5664C18.9917 48.5664 19.1546 48.5061 20.9703 47.4866C21.7365 47.0643 22.8042 46.4611 23.3532 46.1595C23.9021 45.8518 25.1931 45.1339 26.2186 44.5609C27.2502 43.9878 28.891 43.0708 29.8683 42.5219C34.3021 40.0485 35.5267 39.3729 35.5931 39.3729C35.6353 39.3729 35.6595 39.4031 35.6474 39.4393C35.6233 39.5177 19.7699 48.3855 19.3054 48.5785C19.1184 48.6569 18.7745 48.7474 18.5513 48.7776L18.1351 48.8379L18.5453 48.8138C18.7745 48.8017 19.1003 48.7293 19.2993 48.6449C19.5587 48.5423 35.6112 39.6142 35.7077 39.5237C35.756 39.4815 35.6474 39.2583 35.5871 39.2704C35.5147 39.2824 35.4845 39.1014 34.2177 31.2894C33.7834 28.617 32.8845 23.0791 32.2209 18.9831C31.5574 14.887 30.9843 11.4425 30.9481 11.3339C30.8154 10.9357 30.3991 10.5919 30.0372 10.5979C29.9587 10.6039 29.8019 10.6462 29.6873 10.6944Z" fill="#0090CE"/>
<path d="M12.0724 28.014L6.79395 33.3105L12.0905 28.0321C14.9981 25.1305 17.381 22.7476 17.381 22.7416C17.381 22.7296 17.3749 22.7235 17.3629 22.7235C17.3568 22.7235 14.974 25.1064 12.0724 28.014Z" fill="#ECC140"/>
</svg>
