<svg width="128" height="44" viewBox="0 0 128 44" fill="none" xmlns="http://www.w3.org/2000/svg">
<rect x="0.5" y="0.5" width="127" height="43" rx="21.5" fill="#0D1119"/>
<path d="M14.8963 11.2246C14.6453 11.4809 14.5 11.8797 14.5 12.3963V30.8225C14.5 31.3391 14.6453 31.738 14.8963 31.9942L14.9583 32.0504L25.5484 21.7292V21.4855L14.9583 11.1642L14.8963 11.2246Z" fill="url(#paint0_linear_2726_30534)"/>
<path d="M29.0747 25.1714L25.5486 21.7293V21.4856L29.079 18.0434L29.158 18.0882L33.339 20.4076C34.5322 21.0658 34.5322 22.149 33.339 22.8114L29.158 25.1266L29.0747 25.1714Z" fill="url(#paint1_linear_2726_30534)"/>
<path d="M29.1578 25.1265L25.5484 21.6073L14.8962 31.9942C15.2925 32.4004 15.9388 32.4493 16.6737 32.0431L29.1578 25.1265Z" fill="url(#paint2_linear_2726_30534)"/>
<path d="M29.1578 18.0881L16.6737 11.1715C15.9388 10.7695 15.2925 10.8185 14.8962 11.2247L25.5484 21.6073L29.1578 18.0881Z" fill="url(#paint3_linear_2726_30534)"/>
<path d="M46.5001 13.4785C46.5001 14.1743 46.2864 14.7315 45.8655 15.147C45.3817 15.6396 44.7514 15.8875 43.9791 15.8875C43.241 15.8875 42.6107 15.6355 42.0937 15.1387C41.5756 14.6346 41.3171 14.0159 41.3171 13.2754C41.3171 12.5349 41.5756 11.9163 42.0937 11.4164C42.6107 10.9154 43.241 10.6634 43.9791 10.6634C44.3466 10.6634 44.6969 10.7373 45.0313 10.8748C45.3646 11.0133 45.6359 11.2008 45.8324 11.432L45.3859 11.8715C45.043 11.4768 44.5762 11.282 43.9791 11.282C43.4407 11.282 42.9739 11.4653 42.5776 11.835C42.1856 12.2058 41.989 12.686 41.989 13.2754C41.989 13.8649 42.1856 14.3492 42.5776 14.72C42.9739 15.0856 43.4407 15.273 43.9791 15.273C44.5506 15.273 45.0313 15.0856 45.4105 14.7158C45.6605 14.4711 45.8025 14.1336 45.8399 13.7025H43.9791V13.1005H46.4616C46.4915 13.2307 46.5001 13.3567 46.5001 13.4785Z" fill="white" stroke="white" stroke-width="0.16" stroke-miterlimit="10"/>
<path d="M50.4388 11.3913H48.1069V12.9744H50.2092V13.5764H48.1069V15.1594H50.4388V15.7729H47.4468V10.7779H50.4388V11.3913Z" fill="white" stroke="white" stroke-width="0.16" stroke-miterlimit="10"/>
<path d="M53.2182 15.7729H52.558V11.3913H51.1277V10.7779H54.6495V11.3913H53.2182V15.7729Z" fill="white" stroke="white" stroke-width="0.16" stroke-miterlimit="10"/>
<path d="M57.1982 15.7729V10.7779H57.8573V15.7729H57.1982Z" fill="white" stroke="white" stroke-width="0.16" stroke-miterlimit="10"/>
<path d="M60.7787 15.7729H60.1239V11.3913H58.6882V10.7779H62.2144V11.3913H60.7787V15.7729Z" fill="white" stroke="white" stroke-width="0.16" stroke-miterlimit="10"/>
<path d="M68.8825 15.1303C68.3772 15.6355 67.7513 15.8875 67.0046 15.8875C66.2536 15.8875 65.6277 15.6355 65.1224 15.1303C64.6182 14.6263 64.3672 14.0076 64.3672 13.2754C64.3672 12.5433 64.6182 11.9246 65.1224 11.4205C65.6277 10.9154 66.2536 10.6634 67.0046 10.6634C67.747 10.6634 68.373 10.9154 68.8782 11.4247C69.3867 11.9329 69.6377 12.5474 69.6377 13.2754C69.6377 14.0076 69.3867 14.6263 68.8825 15.1303ZM65.6106 14.7117C65.9909 15.0856 66.4534 15.273 67.0046 15.273C67.5515 15.273 68.0183 15.0856 68.3943 14.7117C68.7735 14.3378 68.9658 13.8576 68.9658 13.2754C68.9658 12.6932 68.7735 12.2131 68.3943 11.8392C68.0183 11.4653 67.5515 11.2778 67.0046 11.2778C66.4534 11.2778 65.9909 11.4653 65.6106 11.8392C65.2314 12.2131 65.0391 12.6932 65.0391 13.2754C65.0391 13.8576 65.2314 14.3378 65.6106 14.7117Z" fill="white" stroke="white" stroke-width="0.16" stroke-miterlimit="10"/>
<path d="M70.5635 15.7729V10.7779H71.3646L73.8557 14.6626H73.8845L73.8557 13.7024V10.7779H74.5148V15.7729H73.8268L71.2183 11.6965H71.1894L71.2183 12.6609V15.7729H70.5635Z" fill="white" stroke="white" stroke-width="0.16" stroke-miterlimit="10"/>
<path d="M64.2044 23.0676C62.1973 23.0676 60.5576 24.5569 60.5576 26.6118C60.5576 28.65 62.1973 30.155 64.2044 30.155C66.2158 30.155 67.8555 28.65 67.8555 26.6118C67.8555 24.5569 66.2158 23.0676 64.2044 23.0676ZM64.2044 28.7593C63.1031 28.7593 62.1556 27.873 62.1556 26.6118C62.1556 25.3339 63.1031 24.4632 64.2044 24.4632C65.3057 24.4632 66.2575 25.3339 66.2575 26.6118C66.2575 27.873 65.3057 28.7593 64.2044 28.7593ZM56.2474 23.0676C54.2359 23.0676 52.6005 24.5569 52.6005 26.6118C52.6005 28.65 54.2359 30.155 56.2474 30.155C58.2577 30.155 59.8942 28.65 59.8942 26.6118C59.8942 24.5569 58.2577 23.0676 56.2474 23.0676ZM56.2474 28.7593C55.145 28.7593 54.1943 27.873 54.1943 26.6118C54.1943 25.3339 55.145 24.4632 56.2474 24.4632C57.3487 24.4632 58.2962 25.3339 58.2962 26.6118C58.2962 27.873 57.3487 28.7593 56.2474 28.7593ZM46.7788 24.1538V25.6599H50.4673C50.3594 26.5014 50.071 27.12 49.6288 27.5512C49.0904 28.072 48.2519 28.65 46.7788 28.65C44.5089 28.65 42.7314 26.8638 42.7314 24.6506C42.7314 22.4375 44.5089 20.6513 46.7788 20.6513C48.0062 20.6513 48.8992 21.1189 49.5583 21.7251L50.6468 20.6638C49.7249 19.8056 48.4986 19.1463 46.7788 19.1463C43.6661 19.1463 41.05 21.6157 41.05 24.6506C41.05 27.6856 43.6661 30.155 46.7788 30.155C48.4612 30.155 49.7249 29.6175 50.7184 28.6094C51.7363 27.6168 52.0536 26.2212 52.0536 25.0943C52.0536 24.7444 52.0237 24.4226 51.9703 24.1538H46.7788ZM85.4969 25.3214C85.1967 24.5288 84.2706 23.0676 82.3842 23.0676C80.5148 23.0676 78.9584 24.5038 78.9584 26.6118C78.9584 28.5969 80.4988 30.155 82.5636 30.155C84.2332 30.155 85.1967 29.1624 85.593 28.5844L84.3539 27.7793C83.9405 28.3688 83.3776 28.7593 82.5636 28.7593C81.755 28.7593 81.1749 28.3979 80.8032 27.6856L85.6646 25.7244L85.4969 25.3214ZM80.5404 26.5014C80.4988 25.1349 81.6289 24.4351 82.4386 24.4351C83.0731 24.4351 83.6115 24.7444 83.791 25.187L80.5404 26.5014ZM76.5892 29.9394H78.1872V19.5244H76.5892V29.9394ZM73.9721 23.857H73.9186C73.5597 23.4425 72.875 23.0676 72.0076 23.0676C70.1874 23.0676 68.5232 24.6256 68.5232 26.6232C68.5232 28.6094 70.1874 30.155 72.0076 30.155C72.875 30.155 73.5597 29.7769 73.9186 29.3499H73.9721V29.8581C73.9721 31.2131 73.2297 31.9411 72.0322 31.9411C71.0559 31.9411 70.4502 31.2537 70.2002 30.6757L68.8105 31.2412C69.2111 32.1807 70.2718 33.3367 72.0322 33.3367C73.9058 33.3367 75.4868 32.2619 75.4868 29.6467V23.2832H73.9721V23.857ZM72.1444 28.7593C71.043 28.7593 70.1212 27.8605 70.1212 26.6232C70.1212 25.3745 71.043 24.4632 72.1444 24.4632C73.2297 24.4632 74.0853 25.3745 74.0853 26.6232C74.0853 27.8605 73.2297 28.7593 72.1444 28.7593ZM92.9786 19.5244H89.1566V29.9394H90.7503V25.9931H92.9786C94.7486 25.9931 96.4844 24.7444 96.4844 22.7582C96.4844 20.7731 94.7443 19.5244 92.9786 19.5244ZM93.0203 24.5444H90.7503V20.9731H93.0203C94.2102 20.9731 94.8896 21.9365 94.8896 22.7582C94.8896 23.5644 94.2102 24.5444 93.0203 24.5444ZM102.872 23.0478C101.721 23.0478 100.523 23.5435 100.031 24.6423L101.445 25.2203C101.75 24.6423 102.309 24.4548 102.901 24.4548C103.728 24.4548 104.566 24.9391 104.579 25.7942V25.9036C104.291 25.7411 103.673 25.5005 102.914 25.5005C101.391 25.5005 99.8386 26.3181 99.8386 27.8439C99.8386 29.2395 101.086 30.1383 102.489 30.1383C103.561 30.1383 104.153 29.6665 104.525 29.1176H104.579V29.9227H106.119V25.9275C106.119 24.0809 104.704 23.0478 102.872 23.0478ZM102.68 28.7552C102.159 28.7552 101.432 28.5031 101.432 27.873C101.432 27.0669 102.338 26.7576 103.122 26.7576C103.824 26.7576 104.153 26.9086 104.579 27.1075C104.454 28.072 103.603 28.7552 102.68 28.7552ZM111.727 23.2759L109.895 27.7908H109.84L107.946 23.2759H106.228L109.073 29.5853L107.45 33.0961H109.115L113.5 23.2759H111.727ZM97.3604 29.9394H98.9584V19.5244H97.3604V29.9394Z" fill="white"/>
<defs>
<linearGradient id="paint0_linear_2726_30534" x1="24.6081" y1="31.0144" x2="10.6296" y2="16.6774" gradientUnits="userSpaceOnUse">
<stop stop-color="#00A0FF"/>
<stop offset="0.0066" stop-color="#00A1FF"/>
<stop offset="0.2601" stop-color="#00BEFF"/>
<stop offset="0.5122" stop-color="#00D2FF"/>
<stop offset="0.7604" stop-color="#00DFFF"/>
<stop offset="1" stop-color="#00E3FF"/>
</linearGradient>
<linearGradient id="paint1_linear_2726_30534" x1="34.8927" y1="21.6062" x2="14.215" y2="21.6062" gradientUnits="userSpaceOnUse">
<stop stop-color="#FFE000"/>
<stop offset="0.4087" stop-color="#FFBD00"/>
<stop offset="0.7754" stop-color="#FFA500"/>
<stop offset="1" stop-color="#FF9C00"/>
</linearGradient>
<linearGradient id="paint2_linear_2726_30534" x1="27.1951" y1="19.6942" x2="8.239" y2="0.252066" gradientUnits="userSpaceOnUse">
<stop stop-color="#FF3A44"/>
<stop offset="1" stop-color="#C31162"/>
</linearGradient>
<linearGradient id="paint3_linear_2726_30534" x1="12.2149" y1="38.1245" x2="20.6796" y2="29.4428" gradientUnits="userSpaceOnUse">
<stop stop-color="#32A071"/>
<stop offset="0.0685" stop-color="#2DA771"/>
<stop offset="0.4762" stop-color="#15CF74"/>
<stop offset="0.8009" stop-color="#06E775"/>
<stop offset="1" stop-color="#00F076"/>
</linearGradient>
</defs>
</svg>
