<?xml version="1.0" encoding="UTF-8"?>
<svg version="1.1" xmlns="http://www.w3.org/2000/svg" width="222" height="32">
<path d="M0 0 C1.34563743 0.64146874 2.68170193 1.30407441 4 2 C6.07361988 1.75243555 6.07361988 1.75243555 8 1 C11.06957098 -0.02319033 13.22440323 -0.13371939 16.4375 -0.125 C17.85869141 -0.12886719 17.85869141 -0.12886719 19.30859375 -0.1328125 C21.73477263 -0.01308814 23.67708176 0.34422587 26 1 C27.66519519 1.34060811 29.33157466 1.67558396 31 2 C31.25049421 4.54115809 31.47583433 7.08055584 31.6875 9.625 C31.76033203 10.33785156 31.83316406 11.05070313 31.90820312 11.78515625 C32.29934314 16.80095174 31.45334325 19.50220404 29 24 C28.84221604 26.29896719 28.84221604 26.29896719 29.3125 28.375 C29.539375 29.57125 29.76625 30.7675 30 32 C29.113125 31.71125 28.22625 31.4225 27.3125 31.125 C22.68125834 29.78288507 17.95377212 29.20386852 13.18359375 28.5625 C10 28 10 28 6.84765625 26.8125 C4.09965494 25.71122315 4.09965494 25.71122315 1.9375 26.84375 C1.298125 27.2253125 0.65875 27.606875 0 28 C-2.52382686 28.3559243 -5.01927975 28.50117559 -7.5625 28.65625 C-10.10625884 29.01498522 -11.73913267 29.83188521 -14 31 C-14.99 31 -15.98 31 -17 31 C-16.773125 29.948125 -16.54625 28.89625 -16.3125 27.8125 C-15.62634339 24.08916379 -15.62634339 24.08916379 -17.4375 21.6875 C-19.82703265 17.57750385 -19.66944139 13.64146032 -19 9 C-14.84940372 0.54508165 -8.89409231 -1.11356928 0 0 Z M-9.3125 8.625 C-11.50197249 11.7064798 -11.61793165 13.29241009 -11 17 C-9.58333333 19.58333333 -9.58333333 19.58333333 -7 21 C-3.33635192 21.0127038 -3.33635192 21.0127038 0 20 C1.17051429 17.65897141 1.1992246 16.10647047 1.25 13.5 C1.27578125 12.7059375 1.3015625 11.911875 1.328125 11.09375 C1.21984375 10.4028125 1.1115625 9.711875 1 9 C-2.95950004 6.36033331 -5.31089353 5.81306032 -9.3125 8.625 Z M13 7 C10.38161391 10.92757913 10.63207345 14.43771074 11 19 C13.88512978 21.34522935 13.88512978 21.34522935 17.5 20.875 C20.96355397 20.28197404 20.96355397 20.28197404 23 18.3125 C24.37694267 15.12832007 23.980224 13.29075199 23 10 C22 8 22 8 20 7 C16.37464024 6.7496423 16.37464024 6.7496423 13 7 Z " fill="#20B5FE" transform="translate(19,0)"/>
<path d="M0 0 C0.78375 0.495 1.5675 0.99 2.375 1.5 C0.395 4.47 0.395 4.47 -1.625 7.5 C-2.23988281 7.39300781 -2.85476562 7.28601562 -3.48828125 7.17578125 C-4.29652344 7.05589844 -5.10476562 6.93601562 -5.9375 6.8125 C-6.73800781 6.68488281 -7.53851563 6.55726562 -8.36328125 6.42578125 C-10.67325138 6.29882381 -10.67325138 6.29882381 -12.40625 7.71875 C-13.89903075 9.90050648 -13.94112675 11.07208949 -13.8125 13.6875 C-13.750625 14.945625 -13.68875 16.20375 -13.625 17.5 C-10.60382778 18.30924256 -8.68107981 18.80612684 -5.625 18.5 C-2.5382098 16.56051235 -0.12351196 14.13701041 2.375 11.5 C3.37387197 10.49887324 4.37346036 9.49845798 5.375 8.5 C6.365 8.83 7.355 9.16 8.375 9.5 C8.94378442 12.7501967 8.84285315 14.79822027 6.9921875 17.57421875 C2.27109938 23.1025925 -1.2938416 26.39231459 -8.6875 27.0625 C-9.52410156 27.10503906 -10.36070313 27.14757812 -11.22265625 27.19140625 C-13.76604079 27.51811744 -15.36932476 28.33230117 -17.625 29.5 C-18.615 29.5 -19.605 29.5 -20.625 29.5 C-20.398125 28.448125 -20.17125 27.39625 -19.9375 26.3125 C-19.25134339 22.58916379 -19.25134339 22.58916379 -21.0625 20.1875 C-23.45203265 16.07750385 -23.29444139 12.14146032 -22.625 7.5 C-17.96739225 -1.98771949 -9.42666646 -3.90068957 0 0 Z " fill="#6C42FC" transform="translate(22.625,1.5)"/>
<path d="M0 0 C12.75 -0.125 12.75 -0.125 15 1 C16.14888581 4.44665742 16.2039347 7.24351905 16.25 10.875 C16.27578125 12.08929688 16.3015625 13.30359375 16.328125 14.5546875 C15.96866328 18.32903554 15.56794652 20.20004189 13 23 C8.59323108 23.6859852 4.4822887 23.22189548 0 23 C0 15.41 0 7.82 0 0 Z M4 3 C4 8.28 4 13.56 4 19 C6.64 19 9.28 19 12 19 C12.02685095 16.52076199 12.04676547 14.0418116 12.0625 11.5625 C12.07087891 10.85544922 12.07925781 10.14839844 12.08789062 9.41992188 C12.09653588 7.61306441 12.05220011 5.80612397 12 4 C11.67 3.67 11.34 3.34 11 3 C8.69 3 6.38 3 4 3 Z " fill="#0C1018" transform="translate(56,4)"/>
<path d="M0 0 C0.88494141 -0.01224609 1.76988281 -0.02449219 2.68164062 -0.03710938 C3.52791016 -0.03904297 4.37417969 -0.04097656 5.24609375 -0.04296875 C6.02525146 -0.04707764 6.80440918 -0.05118652 7.60717773 -0.05541992 C9.5625 0.1875 9.5625 0.1875 11.5625 2.1875 C11.7578125 5.4453125 11.7578125 5.4453125 11.6875 9.3125 C11.66945312 10.59382813 11.65140625 11.87515625 11.6328125 13.1953125 C11.60960937 14.18273438 11.58640625 15.17015625 11.5625 16.1875 C9.5825 17.1775 9.5825 17.1775 7.5625 18.1875 C7.5625 13.2375 7.5625 8.2875 7.5625 3.1875 C5.9125 3.1875 4.2625 3.1875 2.5625 3.1875 C2.5625 7.4775 2.5625 11.7675 2.5625 16.1875 C1.2425 16.5175 -0.0775 16.8475 -1.4375 17.1875 C-1.7675 12.8975 -2.0975 8.6075 -2.4375 4.1875 C-3.7575 4.1875 -5.0775 4.1875 -6.4375 4.1875 C-6.7675 8.4775 -7.0975 12.7675 -7.4375 17.1875 C-8.4275 17.5175 -9.4175 17.8475 -10.4375 18.1875 C-10.46434312 15.37493719 -10.48426188 12.56262759 -10.5 9.75 C-10.50837891 8.94755859 -10.51675781 8.14511719 -10.52539062 7.31835938 C-10.5340143 5.27454779 -10.4897815 3.23066098 -10.4375 1.1875 C-8.1977852 -1.0522148 -3.00852512 0.00218167 0 0 Z " fill="#0C1018" transform="translate(129.4375,9.8125)"/>
<path d="M0 0 C0.78375 0.495 1.5675 0.99 2.375 1.5 C0.395 4.47 0.395 4.47 -1.625 7.5 C-2.20507812 7.38140625 -2.78515625 7.2628125 -3.3828125 7.140625 C-7.86431736 6.40110275 -9.96804267 6.15978995 -14.125 8.3125 C-16.65786743 10.2502075 -16.65786743 10.2502075 -17.625 12.5 C-17.69496014 14.20702735 -17.70940154 15.91668003 -17.6875 17.625 C-17.67396484 18.99011719 -17.67396484 18.99011719 -17.66015625 20.3828125 C-17.64855469 21.08148437 -17.63695312 21.78015625 -17.625 22.5 C-20.625 21.5 -20.625 21.5 -21.7890625 19.7421875 C-23.29208679 15.71071113 -23.16640366 11.73096937 -22.625 7.5 C-17.96739225 -1.98771949 -9.42666646 -3.90068957 0 0 Z " fill="#673EF7" transform="translate(22.625,1.5)"/>
<path d="M0 0 C2 1.375 2 1.375 4 4 C4.21303677 6.5649627 4.12526334 8.99624459 3.9453125 11.5625 C4.00621606 14.27705872 4.66637489 15.67113227 6 18 C6.36784131 19.3242287 6.71202981 20.65613912 7 22 C6.113125 21.71125 5.22625 21.4225 4.3125 21.125 C-0.34514191 19.7629493 -5.10746678 19.24813649 -9.9140625 18.66015625 C-13.15273012 17.96732735 -15.28059974 16.85505557 -18 15 C-15.2630137 10.67379585 -15.2630137 10.67379585 -13 9 C-10.59172778 8.96143336 -8.45819594 9.37117125 -6.09375 9.80859375 C-3.80104191 10.22796675 -3.80104191 10.22796675 -1.4375 8.4375 C0.33853023 5.42597048 0.31274352 3.44017871 0 0 Z " fill="#03A1EE" transform="translate(42,10)"/>
<path d="M0 0 C0.7734375 0.00386719 1.546875 0.00773438 2.34375 0.01171875 C4.5 0.3125 4.5 0.3125 7.5 2.3125 C7.6875 5.4375 7.6875 5.4375 7.5 8.3125 C6.51 8.6425 5.52 8.9725 4.5 9.3125 C4.17 7.9925 3.84 6.6725 3.5 5.3125 C1.19 4.9825 -1.12 4.6525 -3.5 4.3125 C-3.17 9.2625 -2.84 14.2125 -2.5 19.3125 C-0.85 19.3125 0.8 19.3125 2.5 19.3125 C2.768125 18.673125 3.03625 18.03375 3.3125 17.375 C4.5 15.3125 4.5 15.3125 7.5 14.3125 C7.625 17.6875 7.625 17.6875 7.5 21.3125 C4.98987037 23.82262963 4.03194763 23.60971609 0.5625 23.625 C-0.75041016 23.65013672 -0.75041016 23.65013672 -2.08984375 23.67578125 C-5.00144451 23.2369176 -5.68975414 22.58005082 -7.5 20.3125 C-7.7981028 17.38992357 -7.91882117 14.72904217 -7.875 11.8125 C-7.88660156 11.04035156 -7.89820313 10.26820312 -7.91015625 9.47265625 C-7.88057803 3.78377778 -7.88057803 3.78377778 -6.10986328 1.59106445 C-3.98599153 -0.09572905 -2.68433531 -0.0581606 0 0 Z " fill="#0C1018" transform="translate(169.5,3.6875)"/>
<path d="M0 0 C0.99 0 1.98 0 3 0 C3 1.98 3 3.96 3 6 C4.423125 5.9690625 4.423125 5.9690625 5.875 5.9375 C9 6 9 6 11 7 C12.09506492 10.28519475 12.09960608 12.73663415 12.0625 16.1875 C12.05347656 17.27417969 12.04445312 18.36085938 12.03515625 19.48046875 C12.02355469 20.31191406 12.01195312 21.14335937 12 22 C10.68 22.33 9.36 22.66 8 23 C8 18.71 8 14.42 8 10 C6.35 10 4.7 10 3 10 C3 13.96 3 17.92 3 22 C1.02 22.99 1.02 22.99 -1 24 C-1.02887236 20.18751574 -1.04675492 16.3750593 -1.0625 12.5625 C-1.07087891 11.47388672 -1.07925781 10.38527344 -1.08789062 9.26367188 C-1.09111328 8.22919922 -1.09433594 7.19472656 -1.09765625 6.12890625 C-1.10289307 5.17056885 -1.10812988 4.21223145 -1.11352539 3.22485352 C-1 1 -1 1 0 0 Z " fill="#0C1018" transform="translate(183,4)"/>
<path d="M0 0 C2.34765625 -0.328125 2.34765625 -0.328125 5.0625 -0.25 C5.96097656 -0.23453125 6.85945313 -0.2190625 7.78515625 -0.203125 C10 0 10 0 11 1 C11.5 3.75 11.5 3.75 11 7 C8.88375222 9.0421791 6.54136159 10.53482724 4 12 C5.32 12.33 6.64 12.66 8 13 C8.33 12.01 8.66 11.02 9 10 C9.66 10 10.32 10 11 10 C11 11.98 11 13.96 11 16 C7.88450128 17.55774936 4.3955612 17.56480622 1 17 C-0.734375 15.828125 -0.734375 15.828125 -2 14 C-2.36328125 11.40625 -2.36328125 11.40625 -2.3125 8.5 C-2.30669922 7.06140625 -2.30669922 7.06140625 -2.30078125 5.59375 C-2 3 -2 3 0 0 Z M3 3 C2.67 4.65 2.34 6.3 2 8 C4.53673288 6.6446674 4.53673288 6.6446674 7 5 C7 4.34 7 3.68 7 3 C5.68 3 4.36 3 3 3 Z " fill="#0C1018" transform="translate(88,10)"/>
<path d="M0 0 C6.0546875 -0.1953125 6.0546875 -0.1953125 8 0 C10 2 10 2 10.1953125 5.2578125 C10.16050781 7.17207031 10.16050781 7.17207031 10.125 9.125 C10.10695313 10.40632813 10.08890625 11.68765625 10.0703125 13.0078125 C10.04710938 13.99523438 10.02390625 14.98265625 10 16 C5.99540304 18.28456082 3.50825292 18.08532015 -1 17 C-3.31282587 13.53076119 -3.42478586 12.07794425 -3 8 C-1.875 6.125 -1.875 6.125 0 5 C3.1875 4.8125 3.1875 4.8125 6 5 C6 4.34 6 3.68 6 3 C3.69 3 1.38 3 -1 3 C-0.67 2.01 -0.34 1.02 0 0 Z M1 9 C1 10.32 1 11.64 1 13 C2.65 13 4.3 13 6 13 C6 11.68 6 10.36 6 9 C4.35 9 2.7 9 1 9 Z " fill="#0C1018" transform="translate(105,10)"/>
<path d="M0 0 C2.475 0.495 2.475 0.495 5 1 C5.25049421 3.54115809 5.47583433 6.08055584 5.6875 8.625 C5.76033203 9.33785156 5.83316406 10.05070313 5.90820312 10.78515625 C6.29192279 15.70579663 5.65864697 18.66688385 3 23 C2.34 23 1.68 23 1 23 C0.67 24.32 0.34 25.64 0 27 C0.05800781 26.04738281 0.11601563 25.09476563 0.17578125 24.11328125 C0.70317772 17.34225881 0.70317772 17.34225881 -1.078125 10.9921875 C-2.54417213 9.50611542 -2.54417213 9.50611542 -5 8 C-5.33 7.67 -5.66 7.34 -6 7 C-10.23314767 6.76038787 -13.36736489 6.67511353 -17 9 C-15.4375 6.5 -15.4375 6.5 -13 4 C-8.81018894 3.5429297 -5.08175988 4.01048245 -1 5 C-0.67 3.35 -0.34 1.7 0 0 Z " fill="#48C0FB" transform="translate(45,1)"/>
<path d="M0 0 C2.05078125 0.03255208 4.1015625 0.06510417 6.15234375 0.09765625 C7.61297225 2.74504541 8.15234375 3.99213959 8.15234375 7.09765625 C8.48234375 7.42765625 8.81234375 7.75765625 9.15234375 8.09765625 C9.33984375 11.53515625 9.33984375 11.53515625 9.15234375 15.09765625 C7.15234375 17.09765625 7.15234375 17.09765625 5.05859375 17.36328125 C4.26453125 17.358125 3.47046875 17.35296875 2.65234375 17.34765625 C1.85828125 17.3528125 1.06421875 17.35796875 0.24609375 17.36328125 C-1.84765625 17.09765625 -1.84765625 17.09765625 -3.84765625 15.09765625 C-3.47265625 12.59765625 -3.47265625 12.59765625 -2.84765625 10.09765625 C-2.84765625 8.24337255 -2.87762996 6.38915466 -2.91015625 4.53515625 C-2.83041885 0.14959931 -2.83041885 0.14959931 0 0 Z M1.15234375 3.09765625 C1.15234375 4.08765625 1.15234375 5.07765625 1.15234375 6.09765625 C2.14234375 6.09765625 3.13234375 6.09765625 4.15234375 6.09765625 C4.15234375 5.10765625 4.15234375 4.11765625 4.15234375 3.09765625 C3.16234375 3.09765625 2.17234375 3.09765625 1.15234375 3.09765625 Z M0.15234375 10.09765625 C0.15234375 11.08765625 0.15234375 12.07765625 0.15234375 13.09765625 C1.80234375 13.09765625 3.45234375 13.09765625 5.15234375 13.09765625 C5.15234375 12.10765625 5.15234375 11.11765625 5.15234375 10.09765625 C3.50234375 10.09765625 1.85234375 10.09765625 0.15234375 10.09765625 Z " fill="#0C1018" transform="translate(147.84765625,9.90234375)"/>
<path d="M0 0 C6.75 -0.125 6.75 -0.125 9 1 C9 6.28 9 11.56 9 17 C7.39125 17.04125 5.7825 17.0825 4.125 17.125 C3.22007812 17.14820312 2.31515625 17.17140625 1.3828125 17.1953125 C-1 17 -1 17 -3 15 C-3.33870968 8.67741935 -3.33870968 8.67741935 -2 6 C0.32716 5.62599214 2.66117862 5.29235267 5 5 C5.33 4.67 5.66 4.34 6 4 C3.69 4 1.38 4 -1 4 C-0.67 2.68 -0.34 1.36 0 0 Z M1 9 C1.33 10.65 1.66 12.3 2 14 C3.32 13.67 4.64 13.34 6 13 C6 11.68 6 10.36 6 9 C4.35 9 2.7 9 1 9 Z " fill="#0C1018" transform="translate(200,10)"/>
<path d="M0 0 C0.99 0.33 1.98 0.66 3 1 C3.34559158 3.90296927 3.51874316 6.12537491 1.9921875 8.69921875 C-0.19479231 11.40347821 -1.66669298 12.88889766 -5 14 C-6.72795352 14.06802967 -8.45835365 14.08495645 -10.1875 14.0625 C-11.08855469 14.05347656 -11.98960938 14.04445313 -12.91796875 14.03515625 C-13.60503906 14.02355469 -14.29210938 14.01195312 -15 14 C-15 13.01 -15 12.02 -15 11 C-14.01 10.67 -13.02 10.34 -12 10 C-6.96669637 7.88992384 -3.62336059 3.96216833 0 0 Z " fill="#7754FD" transform="translate(28,10)"/>
<path d="M0 0 C3.625 1.5 3.625 1.5 6 3 C5.67 3.66 5.34 4.32 5 5 C4.20335938 4.97679687 3.40671875 4.95359375 2.5859375 4.9296875 C-5.45943001 4.6202125 -5.45943001 4.6202125 -13 7 C-15.26877535 9.41880929 -15.26877535 9.41880929 -17 12 C-17.66 12.66 -18.32 13.32 -19 14 C-18.74730935 9.70425887 -18.4431794 7.52481771 -15.625 4.1875 C-10.27975607 -0.26686994 -6.78514096 -0.72585229 0 0 Z " fill="#8464F8" transform="translate(19,0)"/>
<path d="M0 0 C0.66 0 1.32 0 2 0 C2 1.98 2 3.96 2 6 C3.32 6 4.64 6 6 6 C5.67 7.32 5.34 8.64 5 10 C4.01 10 3.02 10 2 10 C2 14.29 2 18.58 2 23 C1.01 23.33 0.02 23.66 -1 24 C-1 19.38 -1 14.76 -1 10 C-2.32 10 -3.64 10 -5 10 C-4.67 8.68 -4.34 7.36 -4 6 C-3.01 6 -2.02 6 -1 6 C-1.020625 5.195625 -1.04125 4.39125 -1.0625 3.5625 C-1 1 -1 1 0 0 Z " fill="#0D1018" transform="translate(216,4)"/>
<path d="M0 0 C2.3691282 0.41808145 4.1591383 0.86081915 6.3125 1.9375 C3.32578244 4.50939568 1.17392204 6.15366433 -2.6875 6.9375 C-1.95144531 6.98648437 -1.21539062 7.03546875 -0.45703125 7.0859375 C0.51878906 7.16070313 1.49460937 7.23546875 2.5 7.3125 C3.46292969 7.38210937 4.42585938 7.45171875 5.41796875 7.5234375 C8.32758938 7.93965853 10.64140774 8.73624096 13.3125 9.9375 C13.3125 10.5975 13.3125 11.2575 13.3125 11.9375 C-2.43237472 10.37941344 -2.43237472 10.37941344 -9.6875 5.9375 C-6.84714058 1.44789962 -5.51677263 -0.62286143 0 0 Z " fill="#23B2FA" transform="translate(33.6875,19.0625)"/>
<path d="M0 0 C1.670625 0.061875 1.670625 0.061875 3.375 0.125 C3.045 1.115 2.715 2.105 2.375 3.125 C1.055 3.125 -0.265 3.125 -1.625 3.125 C-1.625 7.415 -1.625 11.705 -1.625 16.125 C-2.945 16.455 -4.265 16.785 -5.625 17.125 C-5.67883848 14.66637599 -5.71859038 12.2089245 -5.75 9.75 C-5.76675781 9.05132812 -5.78351563 8.35265625 -5.80078125 7.6328125 C-5.81844267 5.79602514 -5.72803261 3.95898037 -5.625 2.125 C-3.625 0.125 -3.625 0.125 0 0 Z " fill="#0C1018" transform="translate(81.625,9.875)"/>
<path d="M0 0 C2.475 0.495 2.475 0.495 5 1 C5 2.32 5 3.64 5 5 C4.01 5.66 3.02 6.32 2 7 C2 7.99 2 8.98 2 10 C1.62746094 9.51144531 1.25492188 9.02289063 0.87109375 8.51953125 C-1.75341754 6.38814317 -3.59759269 6.63383029 -6.9375 6.6875 C-8.49791016 6.69330078 -8.49791016 6.69330078 -10.08984375 6.69921875 C-12.91133812 6.99083629 -14.5973251 7.5468159 -17 9 C-15.4375 6.5 -15.4375 6.5 -13 4 C-8.81018894 3.5429297 -5.08175988 4.01048245 -1 5 C-0.67 3.35 -0.34 1.7 0 0 Z " fill="#4FC2FB" transform="translate(45,1)"/>
<path d="M0 0 C1.43859375 -0.02126953 1.43859375 -0.02126953 2.90625 -0.04296875 C5.5 0.1875 5.5 0.1875 8.5 2.1875 C8.5 2.8475 8.5 3.5075 8.5 4.1875 C7.2934375 3.94 7.2934375 3.94 6.0625 3.6875 C4.886875 3.5225 3.71125 3.3575 2.5 3.1875 C1.81164062 3.06117187 1.12328125 2.93484375 0.4140625 2.8046875 C-3.7097592 2.35613146 -5.72757707 2.58594639 -9.078125 5.1953125 C-11.32717215 7.45143213 -13.45252167 9.74795135 -15.5 12.1875 C-15.5 8.46803558 -14.61128458 7.78235764 -12.1875 5.0625 C-11.57261719 4.35867187 -10.95773438 3.65484375 -10.32421875 2.9296875 C-7.19506249 -0.05875723 -4.13337266 0.02777804 0 0 Z " fill="#09A8F7" transform="translate(35.5,-0.1875)"/>
<path d="M0 0 C0.33 0.66 0.66 1.32 1 2 C0.01 3.485 0.01 3.485 -1 5 C-1.89203125 4.83242187 -2.7840625 4.66484375 -3.703125 4.4921875 C-4.87359375 4.28851562 -6.0440625 4.08484375 -7.25 3.875 C-8.41015625 3.66617187 -9.5703125 3.45734375 -10.765625 3.2421875 C-14.03554316 2.99733856 -15.32492834 3.21220459 -18 5 C-16.53541868 2.61041996 -15.61427191 1.2233716 -12.9375 0.25 C-8.62305337 -0.11718695 -4.32693504 -0.07561634 0 0 Z " fill="#724CFB" transform="translate(22,4)"/>
<path d="M0 0 C0.66 0.33 1.32 0.66 2 1 C2.8814688 3.64440639 3.16174818 5.28060752 3.1875 8 C3.20167969 8.680625 3.21585938 9.36125 3.23046875 10.0625 C3 12 3 12 1 15 C0.86722656 14.15695313 0.73445313 13.31390625 0.59765625 12.4453125 C0.42105469 11.34960938 0.24445312 10.25390625 0.0625 9.125 C-0.11152344 8.03445313 -0.28554688 6.94390625 -0.46484375 5.8203125 C-0.85551159 3.06178454 -0.85551159 3.06178454 -2 1 C-1.34 0.67 -0.68 0.34 0 0 Z " fill="#14AAF3" transform="translate(48,6)"/>
<path d="M0 0 C2.475 0.495 2.475 0.495 5 1 C5 2.32 5 3.64 5 5 C3.35 5 1.7 5 0 5 C0 3.35 0 1.7 0 0 Z " fill="#FC8899" transform="translate(45,1)"/>
<path d="M0 0 C0.66 0.66 1.32 1.32 2 2 C-1.465 4.97 -1.465 4.97 -5 8 C-3.47524303 4.95048605 -2.07114674 2.63600494 0 0 Z " fill="#19A7F9" transform="translate(24,4)"/>
<path d="M0 0 C1.65 0 3.3 0 5 0 C5 0.99 5 1.98 5 3 C3.35 3 1.7 3 0 3 C0 2.01 0 1.02 0 0 Z " fill="#6137F3" transform="translate(12,13)"/>
<path d="M0 0 C1.65 0 3.3 0 5 0 C5 0.99 5 1.98 5 3 C3.35 3 1.7 3 0 3 C0 2.01 0 1.02 0 0 Z " fill="#60CAFF" transform="translate(34,13)"/>
</svg>
