<?xml version="1.0" encoding="UTF-8"?>
<svg version="1.1" xmlns="http://www.w3.org/2000/svg" width="512" height="317">
<path d="M0 0 C31.81487302 -0.7537581 62.53293768 10.60346081 90.33203125 25.15625 C90.99203125 25.48625 91.65203125 25.81625 92.33203125 26.15625 C92.51765625 25.455 92.70328125 24.75375 92.89453125 24.03125 C95.46006542 18.90018166 99.6902464 16.05458511 104.64453125 13.34375 C113.04535197 10.63840096 120.19182495 10.50581379 128.33203125 14.15625 C136.04756232 18.50721498 140.46866541 24.86755942 143.33203125 33.15625 C144.32989906 40.70987728 143.23776559 47.57935253 139.33203125 54.15625 C137.52639682 56.13637851 135.69570205 57.88668097 133.625 59.5859375 C132.12788398 61.04936068 132.12788398 61.04936068 132.40234375 62.95703125 C133.67707186 65.97245951 135.32377352 68.66832723 137.01953125 71.46875 C154.60443684 101.49580577 158.47137206 141.61655253 150.33203125 175.15625 C150.05359375 176.40921875 149.77515625 177.6621875 149.48828125 178.953125 C144.90442893 197.9998217 135.64252439 214.77781517 123.70898438 230.16894531 C114.26791273 242.56564054 109.86044783 254.47082114 111.33203125 270.15625 C113.57773844 284.29369909 120.56875787 298.60105741 129.14453125 309.9609375 C131.33203125 313.15625 131.33203125 313.15625 131.33203125 317.15625 C110.89587413 319.50566222 89.9487845 307.36864363 73.51953125 296.34375 C58.0233741 286.08573048 40.66926835 285.84215626 22.95703125 288.65625 C-20.41607829 295.37536652 -64.09929983 281.11471883 -99.06420898 255.59667969 C-100.6037614 254.45654492 -102.13608538 253.30666831 -103.66796875 252.15625 C-104.97314453 251.18751953 -104.97314453 251.18751953 -106.3046875 250.19921875 C-108.0998615 248.86145383 -109.88551385 247.51091572 -111.66796875 246.15625 C-114.76917943 247.53456586 -117.37048767 249.35099639 -120.08129883 251.37963867 C-146.67158892 271.21142114 -178.84958727 283.3454101 -212.11938477 283.34155273 C-214.2015489 283.3437199 -216.28316488 283.36187094 -218.36523438 283.38085938 C-226.53526847 283.41417067 -234.38511381 282.84757827 -242.46411133 281.61767578 C-259.14428086 279.2153653 -272.64307 285.30802218 -286.65063477 293.7434082 C-319.56458177 313.52928518 -319.56458177 313.52928518 -334.66796875 312.15625 C-335.3515625 309.921875 -335.3515625 309.921875 -335.66796875 307.15625 C-334.515625 305.078125 -334.515625 305.078125 -332.73046875 302.90625 C-322.2192 288.77910481 -314.50587554 269.88938144 -316.66796875 252.15625 C-318.84810083 241.58080269 -324.13908621 234.32775751 -330.671875 226.02734375 C-349.13519065 202.50907952 -358.82819599 174.0102391 -358.90820312 144.27758789 C-358.91783882 142.1228061 -358.94890377 139.96900934 -358.98046875 137.81445312 C-359.05368143 128.21362387 -357.94512439 119.49513875 -355.66796875 110.15625 C-355.48508301 109.38627686 -355.30219727 108.61630371 -355.11376953 107.82299805 C-349.20369548 84.55770655 -336.4343288 64.88432305 -320.66796875 47.15625 C-320.08660156 46.50140625 -319.50523437 45.8465625 -318.90625 45.171875 C-309.75375843 35.48913833 -298.21412763 27.63596503 -286.66796875 21.15625 C-286.07854492 20.8252832 -285.48912109 20.49431641 -284.88183594 20.15332031 C-249.76139897 0.74514653 -209.06105363 -3.04027275 -170.57421875 7.81640625 C-151.59595223 13.55448028 -134.62305378 22.47848563 -118.66796875 34.15625 C-116.90388258 35.35375029 -115.13373081 36.54240354 -113.35546875 37.71875 C-112.63746094 38.19441406 -111.91945312 38.67007813 -111.1796875 39.16015625 C-110.43138672 39.65322266 -110.43138672 39.65322266 -109.66796875 40.15625 C-108.79398438 39.40601563 -107.92 38.65578125 -107.01953125 37.8828125 C-77.14350103 12.78744209 -38.51700947 1.64076718 0 0 Z M-57.29296875 88.921875 C-59.66796875 91.15625 -59.66796875 91.15625 -61.98046875 92.828125 C-62.53734375 93.26640625 -63.09421875 93.7046875 -63.66796875 94.15625 C-63.66796875 94.81625 -63.66796875 95.47625 -63.66796875 96.15625 C-64.20409286 96.36672974 -64.74021698 96.57720947 -65.29258728 96.79406738 C-68.58031999 98.67944554 -71.03655334 101.27173595 -73.67407227 103.95117188 C-74.2648053 104.54321915 -74.85553833 105.13526642 -75.46417236 105.74525452 C-77.41304607 107.70061198 -79.35484878 109.66284368 -81.296875 111.625 C-82.65109649 112.98549294 -84.00583512 114.34547131 -85.36106873 115.70495605 C-88.92665729 119.2838448 -92.48663701 122.86825685 -96.04504395 126.45428467 C-101.74312265 132.19548965 -107.44792519 137.92999398 -113.15598869 143.66127014 C-115.14981418 145.66532598 -117.14019538 147.67275663 -119.13026428 149.68054199 C-120.35048046 150.90758572 -121.57080635 152.13452036 -122.79125977 153.36132812 C-123.34458481 153.92139053 -123.89790985 154.48145294 -124.46800232 155.05848694 C-126.77752916 157.37485585 -128.935439 159.3345635 -131.66796875 161.15625 C-131.66796875 161.81625 -131.66796875 162.47625 -131.66796875 163.15625 C-132.24538818 163.40552246 -132.82280762 163.65479492 -133.41772461 163.91162109 C-135.987304 165.332877 -137.64218908 166.95134278 -139.671875 169.0703125 C-140.41244141 169.83085937 -141.15300781 170.59140625 -141.91601562 171.375 C-143.46476592 172.98517752 -145.01162904 174.59717225 -146.55664062 176.2109375 C-147.29591797 176.96890625 -148.03519531 177.726875 -148.796875 178.5078125 C-149.4679126 179.20729004 -150.1389502 179.90676758 -150.83032227 180.62744141 C-152.66796875 182.15625 -152.66796875 182.15625 -155.66796875 182.15625 C-166.22176541 159.37507728 -169.31679813 133.27196402 -160.66796875 109.15625 C-159.15536845 105.79838129 -157.5605885 102.48025787 -155.8293457 99.22949219 C-154.03816906 95.79299714 -154.03816906 95.79299714 -154.04296875 92.0234375 C-156.47779093 89.22573316 -159.39269754 87.28066437 -162.48046875 85.28125 C-163.15190918 84.84216309 -163.82334961 84.40307617 -164.51513672 83.95068359 C-184.21155777 71.34144446 -206.70930315 66.00590306 -229.85546875 70.15625 C-242.31092288 73.25556277 -253.8503064 80.01134223 -263.66796875 88.15625 C-264.456875 88.79691406 -265.24578125 89.43757813 -266.05859375 90.09765625 C-279.5062384 102.15022212 -285.41479369 122.68777427 -286.92578125 140.1328125 C-287.66572407 160.01260962 -279.92114238 177.5896988 -266.66796875 192.15625 C-266.12785156 192.77757812 -265.58773437 193.39890625 -265.03125 194.0390625 C-257.29137412 202.42230337 -246.67532867 210.02784244 -235.66796875 213.15625 C-234.63542969 213.45144531 -233.60289062 213.74664062 -232.5390625 214.05078125 C-211.77643111 219.22372354 -188.92745111 216.02892498 -170.35546875 205.28125 C-154.85445888 195.31631509 -141.97873534 181.6538017 -129.01538086 168.68896484 C-126.8183759 166.49419488 -124.6134165 164.3076127 -122.40820312 162.12109375 C-121.00862847 160.7244453 -119.60952135 159.32732813 -118.2109375 157.9296875 C-117.55175827 157.27769379 -116.89257904 156.62570007 -116.21342468 155.95394897 C-115.31536858 155.05127792 -115.31536858 155.05127792 -114.39916992 154.13037109 C-113.86990402 153.60253021 -113.34063812 153.07468933 -112.79533386 152.53085327 C-111.45658754 151.19480752 -111.45658754 151.19480752 -111.66796875 149.15625 C-110.67796875 148.82625 -109.68796875 148.49625 -108.66796875 148.15625 C-107.25130575 146.72492315 -107.25130575 146.72492315 -105.91796875 144.96875 C-103.80546835 142.40020112 -101.67249889 140.20777482 -99.10546875 138.09375 C-96.822136 136.20925266 -95.15108626 134.53334034 -93.23046875 132.21875 C-90.57411943 129.04408862 -87.71982989 126.55082349 -84.578125 123.87890625 C-81.98483197 121.54016959 -79.89555442 118.84077632 -77.66796875 116.15625 C-75.9559516 114.63896466 -74.19806629 113.19230903 -72.42578125 111.74609375 C-70.03431121 109.58314196 -68.18679473 107.0975801 -66.3203125 104.4765625 C-63.85588376 102.50734994 -61.71559571 102.94490278 -58.66796875 103.15625 C-48.11143073 121.10236463 -45.7980264 142.01131307 -50.89477539 162.09375 C-53.57843462 171.87675102 -57.07153812 180.68165505 -62.66796875 189.15625 C-62.89295705 191.22088719 -62.89295705 191.22088719 -61.41015625 192.53125 C-42.17507375 209.27140548 -20.59377169 220.34116423 5.54296875 218.97265625 C27.43261065 217.37016207 45.47382953 208.29366662 60.33203125 192.15625 C70.83556046 179.61265542 77.48562232 164.5289727 78.33203125 148.15625 C78.39390625 147.09857422 78.39390625 147.09857422 78.45703125 146.01953125 C78.99050017 127.98161338 73.39558228 106.35907586 61.58203125 92.40625 C54.76142591 85.2913221 47.43021683 79.98093769 38.76953125 75.34375 C38.07351807 74.97056641 37.37750488 74.59738281 36.66040039 74.21289062 C6.9782609 58.87242036 -33.60896162 66.2247015 -57.29296875 88.921875 Z " fill="#5ECAFE" transform="translate(358.66796875,-0.15625)"/>
<path d="M0 0 C0.845625 0.62390625 1.69125 1.2478125 2.5625 1.890625 C4.38670423 3.24611009 6.19968594 4.6130511 8 6 C7.66914352 11.22558609 4.62934621 13.9167737 1.125 17.4375 C-4.96515558 23.76363651 -10.39040897 30.4051739 -15.72998047 37.36572266 C-18.40779973 40.81157466 -21.2153519 44.15286742 -23.99609375 47.515625 C-26.35577982 50.44108375 -28.5601568 53.4575346 -30.7109375 56.5390625 C-32 58 -32 58 -35 59 C-36.76953125 57.84765625 -36.76953125 57.84765625 -38.8125 56.0625 C-58.73522825 39.9315168 -82.48882799 33.75090231 -107.7734375 36.39453125 C-121.60823552 38.84807094 -134.2571212 46.13844367 -145 55 C-145.71542969 55.5671875 -146.43085938 56.134375 -147.16796875 56.71875 C-160.23520282 68.2442021 -165.81220627 89.28638147 -167.2578125 105.9765625 C-167.93871508 124.27014511 -161.39464874 141.61272705 -149.453125 155.40234375 C-134.68486688 171.04070625 -118.67115019 180.66984215 -96.71826172 181.35571289 C-64.77017497 181.64154515 -42.84974594 165.52997579 -21.11987305 144.21533203 C-17.74811679 140.88497291 -14.39520187 137.53602132 -11.04931641 134.1796875 C-8.97803809 132.10298053 -6.90137408 130.03176449 -4.82421875 127.9609375 C-3.48665792 126.62271685 -2.14940679 125.28418655 -0.8125 123.9453125 C0.10474854 123.03110031 0.10474854 123.03110031 1.04052734 122.09841919 C4.57487445 118.54480748 7.82372672 114.8761241 11 111 C12.11274524 109.98338826 13.25422131 108.99607 14.4375 108.0625 C16.89367091 106.03072147 18.97280842 103.95965912 21 101.5 C23.50833087 98.45798171 26.24198462 96.03682586 29.27734375 93.53515625 C31.62092333 91.44666016 33.53138723 89.08221979 35.5234375 86.6640625 C36.97870269 85.02400173 38.48001459 83.68353508 40.1875 82.3125 C42.61901222 80.31325662 44.15350209 78.49277217 46 76 C46.66 76 47.32 76 48 76 C48.37125 75.13375 48.37125 75.13375 48.75 74.25 C50.23824784 71.57115389 51.57263634 69.88794951 54 68 C57 67.375 57 67.375 60 68 C70.04501608 78.93134103 71.79583514 98.20759771 71.3515625 112.40625 C69.65504687 141.21040022 52.42162427 162.6485323 34.28295898 183.4934082 C33.09568619 184.88763474 31.95749179 186.32325549 30.82421875 187.76171875 C28.96825707 190.03894797 26.91868237 191.72975315 24.62890625 193.5546875 C22.75957158 195.21332978 21.22591639 197.01931772 19.625 198.9375 C16.74396377 202.31657094 13.75732652 204.82691527 10.14453125 207.3828125 C7.72118837 209.21025139 5.5796068 211.22696361 3.375 213.3125 C-22.27366187 236.61881832 -59.25064767 249.18926804 -93.45141602 249.18530273 C-95.53358015 249.1874699 -97.61519613 249.20562094 -99.69726562 249.22460938 C-107.86729972 249.25792067 -115.71714506 248.69132827 -123.79614258 247.46142578 C-140.47631211 245.0591153 -153.97510125 251.15177218 -167.98266602 259.5871582 C-200.89661302 279.37303518 -200.89661302 279.37303518 -216 278 C-216.68359375 275.765625 -216.68359375 275.765625 -217 273 C-215.84765625 270.921875 -215.84765625 270.921875 -214.0625 268.75 C-203.55123125 254.62285481 -195.83790679 235.73313144 -198 218 C-200.18013208 207.42455269 -205.47111746 200.17150751 -212.00390625 191.87109375 C-230.4672219 168.35282952 -240.16022724 139.8539891 -240.24023438 110.12133789 C-240.24987007 107.9665561 -240.28093502 105.81275934 -240.3125 103.65820312 C-240.38571268 94.05737387 -239.27715564 85.33888875 -237 76 C-236.81711426 75.23002686 -236.63422852 74.46005371 -236.44580078 73.66674805 C-230.53572673 50.40145655 -217.76636005 30.72807305 -202 13 C-201.41863281 12.34515625 -200.83726562 11.6903125 -200.23828125 11.015625 C-191.08578968 1.33288833 -179.54615888 -6.52028497 -168 -13 C-167.41057617 -13.3309668 -166.82115234 -13.66193359 -166.21386719 -14.00292969 C-113.01273091 -43.40281726 -48.0772264 -36.0579198 0 0 Z " fill="#673CF9" transform="translate(240,34)"/>
<path d="M0 0 C4.48906309 1.46310204 7.72683132 3.95526696 11.25 7 C11.81992676 7.48911865 12.38985352 7.9782373 12.97705078 8.48217773 C33.69318998 26.57015002 46.65968381 51.27103281 52 78 C52.19335938 78.95777344 52.38671875 79.91554688 52.5859375 80.90234375 C54.61858414 96.10884171 52.66693229 111.21008943 49 126 C48.79850342 126.83966309 48.59700684 127.67932617 48.3894043 128.54443359 C46.75941484 134.67844934 44.23401562 139.20128278 40.4375 144.25 C34.13732765 152.7597504 32.14903421 159.30974225 33 170 C33.68559989 173.79222437 34.75367261 177.3565026 36 181 C36.3403125 182.00675781 36.680625 183.01351562 37.03125 184.05078125 C39.7802675 191.65701548 43.32199418 198.63406681 47.23046875 205.6875 C48.69453165 208.42817403 49.92547494 211.09051677 51 214 C38.71157381 208.47020822 27.27585555 202.36456199 16 195 C-6.93600832 180.13430478 -24.63705251 179.38097499 -51 184 C-51.64791504 184.17563477 -52.29583008 184.35126953 -52.96337891 184.53222656 C-67.26403244 187.81681685 -84.14613707 185.23303468 -98 181 C-99.04196533 180.68651611 -99.04196533 180.68651611 -100.10498047 180.36669922 C-117.76739884 174.90978449 -134.01952984 166.7873406 -149 156 C-150.06605469 155.23945313 -151.13210938 154.47890625 -152.23046875 153.6953125 C-156.18740671 150.84129912 -160.1002755 147.93151704 -164 145 C-162.38405168 142.95880212 -160.7143618 140.95927063 -159 139 C-158.34 139 -157.68 139 -157 139 C-156.67 138.01 -156.34 137.02 -156 136 C-154.0625 133.8125 -154.0625 133.8125 -152 132 C-151.34 132 -150.68 132 -150 132 C-149.77054687 131.44828125 -149.54109375 130.8965625 -149.3046875 130.328125 C-147.63206101 127.34343821 -145.49994892 125.21443975 -143.125 122.75 C-136.857386 116.12016332 -131.49660102 108.88769025 -126.15405273 101.50537109 C-125 100 -125 100 -123 98 C-122.58492188 98.38929688 -122.16984375 98.77859375 -121.7421875 99.1796875 C-103.58409898 115.66632017 -82.05328147 126.78979857 -56.96191406 125.93017578 C-35.03919309 124.78231196 -16.80533871 116.46386736 -1.50292969 100.67529297 C11.02226735 86.71364546 17.47445538 68.13515237 17.1484375 49.51953125 C16.1292683 32.22047503 11.31549013 13.50558499 0 0 Z " fill="#00A0EE" transform="translate(419,92)"/>
<path d="M0 0 C3 0.625 3 0.625 5.125 2.9375 C15.30324418 21.05561931 16.61897737 42.93265594 11.1953125 62.65234375 C4.93508185 83.91766079 -8.43236178 99.70251643 -22.71704102 116.1184082 C-23.90431381 117.51263474 -25.04250821 118.94825549 -26.17578125 120.38671875 C-28.02541021 122.65617784 -30.06495146 124.34212419 -32.34765625 126.16015625 C-35.00271686 128.51393338 -37.21454978 131.23342451 -39.484375 133.953125 C-41 135.625 -41 135.625 -43 136.625 C-42.42055005 133.25511349 -41.40149528 131.68000783 -38.9375 129.33984375 C-38.30996826 128.73253418 -37.68243652 128.12522461 -37.03588867 127.49951172 C-36.36404541 126.86029785 -35.69220215 126.22108398 -35 125.5625 C-28.85603876 119.56687371 -23.25270049 113.42719841 -18 106.625 C-17.19175781 105.62210937 -16.38351562 104.61921875 -15.55078125 103.5859375 C1.49075123 82.30202582 11.14052244 59.14927142 8.7265625 31.4921875 C7.41298563 22.99111457 3.88920368 15.2413572 0 7.625 C-3.45201639 9.10221422 -5.64961936 11.06294001 -8.25 13.75 C-8.95640625 14.47445312 -9.6628125 15.19890625 -10.390625 15.9453125 C-10.92171875 16.49960938 -11.4528125 17.05390625 -12 17.625 C-10.783125 17.521875 -9.56625 17.41875 -8.3125 17.3125 C-4.72142193 17.30614411 -4.13161091 17.52200016 -1.125 19.875 C6.04045249 29.14793852 4.91873264 42.41893375 4 53.625 C1.32383945 70.40987895 -8.5542778 84.7174382 -19 97.625 C-20.25171159 99.31123081 -21.5019116 100.99858568 -22.75 102.6875 C-25.49153075 106.19691321 -28.1807209 108.2746744 -32 110.625 C-33.65530357 112.00958953 -35.29985121 113.4070732 -36.9375 114.8125 C-63.97265038 137.04463578 -99.75752938 149.05947823 -134.609375 146.34375 C-143.7918248 145.26346179 -152.30351497 142.64064221 -161 139.625 C-161.91652344 139.31691406 -162.83304688 139.00882813 -163.77734375 138.69140625 C-178.09609783 133.46981846 -190.62629148 123.61700902 -201 112.625 C-197.23030577 112.625 -194.40700306 113.99402 -191 115.4375 C-170.31466366 123.95073386 -146.26950183 126.34636398 -125.05761719 117.84667969 C-121.59220886 116.30181495 -118.26886578 114.54786222 -115 112.625 C-116.134375 112.96273437 -117.26875 113.30046875 -118.4375 113.6484375 C-119.95830706 114.099047 -121.47914189 114.54956282 -123 115 C-123.74378906 115.22171875 -124.48757812 115.4434375 -125.25390625 115.671875 C-127.49915203 116.3356868 -129.74787612 116.98492789 -132 117.625 C-133.02504639 117.91842285 -133.02504639 117.91842285 -134.07080078 118.21777344 C-149.06589769 122.26773123 -164.56808843 119.50308489 -178.015625 111.92578125 C-178.67046875 111.49652344 -179.3253125 111.06726563 -180 110.625 C-176.03486848 109.30328949 -173.25822828 110.49106976 -169.375 111.5625 C-149.05665726 116.70194795 -126.87141127 113.2730968 -108.6875 102.75 C-93.44285663 92.94987212 -80.77977053 79.57489563 -68.04931641 66.8046875 C-65.97803809 64.72798053 -63.90137408 62.65676449 -61.82421875 60.5859375 C-60.48665792 59.24771685 -59.14940679 57.90918655 -57.8125 56.5703125 C-57.20100098 55.96083771 -56.58950195 55.35136292 -55.95947266 54.72341919 C-52.42512555 51.16980748 -49.17627328 47.5011241 -46 43.625 C-44.88725476 42.60838826 -43.74577869 41.62107 -42.5625 40.6875 C-40.10632909 38.65572147 -38.02719158 36.58465912 -36 34.125 C-33.49166913 31.08298171 -30.75801538 28.66182586 -27.72265625 26.16015625 C-25.37907667 24.07166016 -23.46861277 21.70721979 -21.4765625 19.2890625 C-20.02129731 17.64900173 -18.51998541 16.30853508 -16.8125 14.9375 C-14.38098778 12.93825662 -12.84649791 11.11777217 -11 8.625 C-10.34 8.625 -9.68 8.625 -9 8.625 C-8.7525 8.0475 -8.505 7.47 -8.25 6.875 C-6.10731666 3.01816998 -4.41941062 0.92071054 0 0 Z " fill="#764FFE" transform="translate(297,101.375)"/>
<path d="M0 0 C4.60626876 3.97674536 8.72342267 8.0967358 12.46875 12.8984375 C12.46875 13.5584375 12.46875 14.2184375 12.46875 14.8984375 C7.33351743 13.39876781 2.25659487 11.82475994 -2.78125 10.0234375 C-8.67709107 8.03771209 -14.66076167 6.60002395 -20.71875 5.2109375 C-21.64526367 4.99646973 -22.57177734 4.78200195 -23.52636719 4.56103516 C-40.67346389 0.72574202 -60.6727953 -0.98926788 -76.53125 7.8984375 C-78.54603145 9.20932784 -80.54387824 10.54635346 -82.53125 11.8984375 C-83.13549805 12.30143066 -83.73974609 12.70442383 -84.36230469 13.11962891 C-96.69470104 21.37113444 -108.1512476 30.42780636 -117.859375 41.71875 C-122.04267499 46.57226383 -126.59229125 51.03079061 -131.15625 55.5234375 C-137.51402352 61.69350504 -137.51402352 61.69350504 -143.40234375 68.30078125 C-145.17069099 70.45848935 -146.79560608 72.1213947 -148.96875 73.8359375 C-152.04673334 76.38645732 -154.56670549 79.14998822 -157.1171875 82.21875 C-159.13320694 84.61346922 -161.22249653 86.78208016 -163.53125 88.8984375 C-164.19125 88.8984375 -164.85125 88.8984375 -165.53125 88.8984375 C-165.78777344 89.49269531 -166.04429687 90.08695312 -166.30859375 90.69921875 C-167.64834565 93.10906003 -168.9685743 94.34715738 -171.09375 96.0859375 C-174.30839098 98.7871694 -177.24687986 101.62092035 -180.15625 104.6484375 C-184.57241533 109.07970083 -188.2317414 111.89120539 -194.59375 112.4609375 C-198.53125 111.8984375 -198.53125 111.8984375 -201.40625 109.4609375 C-206.9891886 101.37789508 -206.31121 90.27376271 -205.171875 80.9609375 C-201.17295239 61.07440342 -185.57811174 45.03929327 -172.1640625 30.7421875 C-170.1327469 28.54812554 -168.1621204 26.33075479 -166.20703125 24.0703125 C-121.47044777 -27.22312015 -56.26223938 -46.71155059 0 0 Z " fill="#18B3FF" transform="translate(407.53125,47.1015625)"/>
<path d="M0 0 C3.63186394 2.04412873 6.62354904 4.30554088 9.6875 7.125 C12.62192394 9.88572044 12.62192394 9.88572044 16 12 C16.391875 12.721875 16.78375 13.44375 17.1875 14.1875 C21.25560332 20.50007412 26.79655611 24.12685316 34 26 C36.72390613 26.55421467 39.44494567 27.04415943 42.19140625 27.47265625 C45 28 45 28 48.234375 29.04296875 C52.81321297 30.20667757 56.98596016 30.30224429 61.6875 30.25 C63.01696655 30.23876099 63.01696655 30.23876099 64.37329102 30.22729492 C77.40114743 30.01434758 88.58745499 27.28696838 100.2578125 21.33984375 C103 20 103 20 105 20 C101.67827161 32.05465948 91.00523671 40.36400434 81 47 C80.06542969 47.62648437 79.13085938 48.25296875 78.16796875 48.8984375 C53.86184335 64.12717271 24.24591428 65.10277778 -3.19799805 59.27124023 C-15.27484928 56.45127953 -26.79382652 52.1660367 -37 45 C-36.34 43.68 -35.68 42.36 -35 41 C-34.34 41 -33.68 41 -33 41 C-32.67 40.01 -32.34 39.02 -32 38 C-30.0625 35.8125 -30.0625 35.8125 -28 34 C-27.34 34 -26.68 34 -26 34 C-25.77054687 33.44828125 -25.54109375 32.8965625 -25.3046875 32.328125 C-23.63206101 29.34343821 -21.49994892 27.21443975 -19.125 24.75 C-12.21452948 17.42905266 -4.52752036 9.05504073 0 0 Z " fill="#17B2FE" transform="translate(295,190)"/>
<path d="M0 0 C0.75168457 0.13293457 1.50336914 0.26586914 2.27783203 0.40283203 C9.03464556 1.73647195 14.99833971 4.42823971 21.24609375 7.25390625 C22.04660156 7.60582031 22.84710938 7.95773438 23.671875 8.3203125 C24.74066895 8.80395264 24.74066895 8.80395264 25.83105469 9.29736328 C28.31895051 10.10332503 30.40091612 10.12238349 33 10 C30.63296094 13.91076019 27.97522764 17.19889019 24.875 20.5625 C20.02179897 25.86771485 15.69143037 31.49791245 11.35742188 37.22216797 C8.89667254 40.44504147 6.38446198 43.62750744 3.875 46.8125 C3.38918457 47.42963867 2.90336914 48.04677734 2.40283203 48.68261719 C1.26914348 50.12220866 0.1346639 51.56117715 -1 53 C-1.44988281 52.6596875 -1.89976562 52.319375 -2.36328125 51.96875 C-3.75697408 50.91859268 -5.15455782 49.87359113 -6.5546875 48.83203125 C-8.17663643 47.61686504 -9.78631136 46.3851303 -11.3828125 45.13671875 C-26.33438532 33.72871441 -42.97242198 25.82872727 -62 25 C-62.94617188 24.93683594 -63.89234375 24.87367187 -64.8671875 24.80859375 C-81.54247734 24.17664511 -96.41800221 30.5617082 -111 38 C-103.23016176 20.97491326 -81.37268489 8.93526019 -64.6875 2.625 C-59.20981814 0.63806769 -53.76935838 -1.11857025 -48 -2 C-46.700625 -2.20625 -45.40125 -2.4125 -44.0625 -2.625 C-29.15464196 -4.01537018 -14.68658383 -2.6508667 0 0 Z " fill="#7650FE" transform="translate(209,39)"/>
<path d="M0 0 C0.845625 0.62390625 1.69125 1.2478125 2.5625 1.890625 C4.38670423 3.24611009 6.19968594 4.6130511 8 6 C7.6875 8.375 7.6875 8.375 7 11 C6.01 11.66 5.02 12.32 4 13 C4 12.01 4 11.02 4 10 C3.443125 9.773125 2.88625 9.54625 2.3125 9.3125 C0 8 0 8 -2.1875 5.71875 C-5.34210988 2.66929378 -8.58682536 0.46842311 -12.3125 -1.8125 C-13.0125415 -2.24264404 -13.71258301 -2.67278809 -14.43383789 -3.1159668 C-27.16141932 -10.81969019 -39.57712481 -16.28718064 -54 -20 C-54 -20.66 -54 -21.32 -54 -22 C-54.6290625 -22.04898437 -55.258125 -22.09796875 -55.90625 -22.1484375 C-60.00944219 -22.50684887 -63.96236564 -22.89258211 -67.9375 -24 C-77.29692289 -26.52890367 -87.26052449 -26.15638567 -96.875 -26.125 C-98.05191406 -26.12886719 -99.22882813 -26.13273437 -100.44140625 -26.13671875 C-108.33731513 -26.12803238 -116.13740864 -25.71805234 -124 -25 C-124 -24.34 -124 -23.68 -124 -23 C-124.91265625 -22.88785156 -124.91265625 -22.88785156 -125.84375 -22.7734375 C-132.83805366 -21.72429195 -139.07065887 -19.64858715 -145.60351562 -17.03271484 C-148.56159389 -15.85775687 -150.78414956 -15 -154 -15 C-154.495 -13.515 -154.495 -13.515 -155 -12 C-157.06640625 -11.26953125 -157.06640625 -11.26953125 -159.5625 -10.8125 C-160.38878906 -10.65394531 -161.21507812 -10.49539062 -162.06640625 -10.33203125 C-162.70449219 -10.22246094 -163.34257812 -10.11289062 -164 -10 C-164 -9.34 -164 -8.68 -164 -8 C-167.31342095 -5.51493429 -170.02779993 -3.99305002 -174 -3 C-174.99 -1.515 -174.99 -1.515 -176 0 C-177.66176632 0.6787893 -179.32919108 1.34378374 -181 2 C-192.00227812 9.79756471 -201.34719434 19.51259446 -209.5 30.1875 C-210.0045874 30.84049072 -210.5091748 31.49348145 -211.02905273 32.16625977 C-213.8755388 36.00035147 -215.77946437 39.58858079 -217.31542969 44.10473633 C-218.35925009 46.99460002 -219.86289247 49.58157495 -221.375 52.25 C-226.78017844 62.13668714 -230.78912972 71.93183065 -233 83 C-233.20625 84.00160156 -233.4125 85.00320312 -233.625 86.03515625 C-236.92285449 105.61616726 -236.88123524 126.96451471 -231 146 C-230.63389577 147.28509393 -230.26800866 148.57024974 -229.90234375 149.85546875 C-224.45391913 167.67828149 -214.89237921 182.95867573 -203.6875 197.6875 C-196.33491334 207.6596317 -193.82259628 217.77148398 -193.8125 229.9375 C-193.79413086 231.09668945 -193.79413086 231.09668945 -193.77539062 232.27929688 C-193.76291909 237.19723755 -194.41466003 241.29112775 -196 246 C-196.33 246.99 -196.66 247.98 -197 249 C-197.66 249 -198.32 249 -199 249 C-199.26039063 249.98871094 -199.52078125 250.97742188 -199.7890625 251.99609375 C-200.98519585 256.17415181 -202.62191616 260.09161397 -204.375 264.0625 C-204.81199219 265.0844043 -204.81199219 265.0844043 -205.2578125 266.12695312 C-207.13682481 270.41654044 -209.29272768 274.17761772 -212 278 C-213.65 277.67 -215.3 277.34 -217 277 C-216.43701079 272.56136042 -214.75108697 269.71594205 -212.3125 266 C-202.52246853 250.58707759 -194.88843456 233.09367103 -198.70703125 214.5703125 C-201.41641362 205.62021791 -206.29157679 199.12905044 -212.00390625 191.87109375 C-230.4672219 168.35282952 -240.16022724 139.8539891 -240.24023438 110.12133789 C-240.24987007 107.9665561 -240.28093502 105.81275934 -240.3125 103.65820312 C-240.38571268 94.05737387 -239.27715564 85.33888875 -237 76 C-236.81711426 75.23002686 -236.63422852 74.46005371 -236.44580078 73.66674805 C-230.53572673 50.40145655 -217.76636005 30.72807305 -202 13 C-201.41863281 12.34515625 -200.83726562 11.6903125 -200.23828125 11.015625 C-191.08578968 1.33288833 -179.54615888 -6.52028497 -168 -13 C-167.41057617 -13.3309668 -166.82115234 -13.66193359 -166.21386719 -14.00292969 C-113.01273091 -43.40281726 -48.0772264 -36.0579198 0 0 Z " fill="#8463F8" transform="translate(240,34)"/>
<path d="M0 0 C6.20968456 3.62231599 9.53291134 9.6800738 11.53125 16.4765625 C12.81792027 25.36628437 10.76240899 33.0704366 5.46875 40.2890625 C-2.50210113 46.22480271 -11.55254262 49.50979974 -21.46875 48.4765625 C-27.31708281 46.78192748 -31.49247142 44.13448884 -35.46875 39.4765625 C-36.190625 38.6515625 -36.9125 37.8265625 -37.65625 36.9765625 C-42.58458429 30.17886004 -42.39383097 22.52146304 -41.46875 14.4765625 C-38.59422932 6.38140499 -32.73953756 0.99018891 -25.1015625 -2.65234375 C-16.57340214 -5.47397544 -7.92739545 -3.73422049 0 0 Z " fill="#FD3F59" transform="translate(490.46875,16.5234375)"/>
<path d="M0 0 C29.09838771 -0.68939912 57.63031952 8.89173052 83.51953125 21.46875 C84.19749756 21.79407715 84.87546387 22.1194043 85.57397461 22.45458984 C90.21111919 24.79351381 90.21111919 24.79351381 91.33203125 28.15625 C89.26953125 29.40625 89.26953125 29.40625 86.33203125 30.15625 C83.72296756 29.11046827 81.69236654 27.72980686 79.33203125 26.15625 C79.33203125 25.49625 79.33203125 24.83625 79.33203125 24.15625 C78.63722656 24.02992187 77.94242188 23.90359375 77.2265625 23.7734375 C69.06248351 22.03264873 61.09246056 19.20499009 53.33203125 16.15625 C51.93984375 15.66125 51.93984375 15.66125 50.51953125 15.15625 C48.33203125 14.15625 48.33203125 14.15625 47.01904297 12.66674805 C43.49084895 9.50771238 37.99349575 9.61985786 33.45703125 8.96875 C32.26045898 8.79657959 31.06388672 8.62440918 29.83105469 8.44702148 C3.58832645 4.99699294 -23.30962658 6.38802546 -48.66796875 14.15625 C-49.725 14.44113281 -50.78203125 14.72601563 -51.87109375 15.01953125 C-60.6356595 17.46972389 -68.57623745 21.24534851 -76.71875 25.23095703 C-78.6180623 26.13255944 -80.53389098 26.96459294 -82.47265625 27.77734375 C-86.44618765 29.49208285 -90.08773317 31.50730852 -93.10546875 34.65625 C-94.66796875 36.15625 -94.66796875 36.15625 -97.8125 37.84765625 C-102.03969608 40.23356499 -105.41369231 43.26059339 -108.91796875 46.59375 C-109.89467529 47.51583252 -109.89467529 47.51583252 -110.89111328 48.45654297 C-119.70757658 56.91350421 -127.10302704 66.27195197 -134.33203125 76.09765625 C-137.38805732 80.09910845 -140.63853565 83.91461365 -143.95117188 87.70507812 C-156.18283177 101.83506298 -163.37922899 121.15416921 -164.32421875 139.65234375 C-164.66796875 142.15625 -164.66796875 142.15625 -166.66796875 144.15625 C-166.20700965 125.94836537 -163.68766877 108.77216852 -153.66796875 93.15625 C-152.18296875 92.66125 -152.18296875 92.66125 -150.66796875 92.15625 C-149.6073606 90.28744752 -149.6073606 90.28744752 -148.66796875 88.15625 C-147.78366039 86.95013218 -146.86193337 85.77080866 -145.91015625 84.6171875 C-145.37124756 83.95960449 -144.83233887 83.30202148 -144.27709961 82.62451172 C-143.70483643 81.93373535 -143.13257324 81.24295898 -142.54296875 80.53125 C-141.3538265 79.08361269 -140.16502315 77.63569693 -138.9765625 76.1875 C-138.40276855 75.49011719 -137.82897461 74.79273437 -137.23779297 74.07421875 C-135.33343353 71.74752392 -133.46685236 69.39241314 -131.60546875 67.03125 C-128.2917419 62.87672679 -124.87000623 58.82085725 -121.41796875 54.78125 C-120.90999756 54.18554199 -120.40202637 53.58983398 -119.87866211 52.97607422 C-117.8160052 50.57538308 -115.7725383 48.25743421 -113.49609375 46.0546875 C-111.56327446 44.21535155 -111.56327446 44.21535155 -110.3671875 41.765625 C-107.99888809 38.1287882 -104.95550004 35.95085367 -101.48046875 33.40625 C-100.76922852 32.88256836 -100.05798828 32.35888672 -99.32519531 31.81933594 C-70.44696739 10.95930263 -35.26906689 1.50240967 0 0 Z " fill="#24B2F9" transform="translate(358.66796875,-0.15625)"/>
<path d="M0 0 C22.19644354 26.84897319 25.75925803 65.202392 22.76123047 98.66503906 C22.15399802 103.52890091 21.15541628 108.2388881 20 113 C19.7215625 114.25296875 19.443125 115.5059375 19.15625 116.796875 C14.57239768 135.8435717 5.31049314 152.62156517 -6.62304688 168.01269531 C-16.06411852 180.40939054 -20.47158342 192.31457114 -19 208 C-16.75429281 222.13744909 -9.76327338 236.44480741 -1.1875 247.8046875 C1 251 1 251 1 255 C-8.18716418 255.53344824 -15.46042325 254.44660395 -24 251 C-20.63742033 249.84864052 -18.84226223 250.15856325 -15.5625 251.4375 C-12.22942489 252.64752727 -9.591018 253.34751787 -6 253 C-6.50660156 252.27296875 -6.50660156 252.27296875 -7.0234375 251.53125 C-9.73953349 247.44925603 -11.35305676 244.10542271 -12.34765625 239.24609375 C-13.17905017 236.38350989 -14.48585488 233.94875794 -15.875 231.3125 C-23.30005194 217.00702096 -27.21096344 199.56137734 -22.2265625 183.79296875 C-19.57393549 177.75275119 -15.74486105 172.40190463 -12 167 C-5.09380863 157.0190614 0.93560106 147.04846788 6 136 C6.40992188 135.10796875 6.81984375 134.2159375 7.2421875 133.296875 C14.4932222 116.32158446 16.3871742 98.44181071 16.25 80.1875 C16.24656586 79.43854462 16.24313171 78.68958923 16.23959351 77.91793823 C16.10516744 52.91702495 12.76430068 27.78699869 -0.79296875 6.13671875 C-1.19128906 5.43160156 -1.58960938 4.72648437 -2 4 C-1.1875 1.6875 -1.1875 1.6875 0 0 Z " fill="#01A0EE" transform="translate(489,62)"/>
<path d="M0 0 C0.99 0.495 0.99 0.495 2 1 C1.07960938 1.58265625 0.15921875 2.1653125 -0.7890625 2.765625 C-10.20128502 8.82323167 -18.72116841 15.47554793 -27 23 C-27.74765625 23.66386719 -28.4953125 24.32773437 -29.265625 25.01171875 C-37.68201409 32.8978069 -44.45669341 42.93656723 -50 53 C-49.34 53 -48.68 53 -48 53 C-49.32749727 57.38139493 -51.06240605 61.14368077 -53.3125 65.125 C-58.73609672 75.05886426 -62.77907659 84.88150217 -65 96 C-65.20625 97.00160156 -65.4125 98.00320312 -65.625 99.03515625 C-68.92285449 118.61616726 -68.88123524 139.96451471 -63 159 C-62.63389577 160.28509393 -62.26800866 161.57024974 -61.90234375 162.85546875 C-56.45391913 180.67828149 -46.89237921 195.95867573 -35.6875 210.6875 C-28.33491334 220.6596317 -25.82259628 230.77148398 -25.8125 242.9375 C-25.80025391 243.71029297 -25.78800781 244.48308594 -25.77539062 245.27929688 C-25.76291909 250.19723755 -26.41466003 254.29112775 -28 259 C-28.33 259.99 -28.66 260.98 -29 262 C-29.66 262 -30.32 262 -31 262 C-31.26039062 262.98871094 -31.52078125 263.97742188 -31.7890625 264.99609375 C-32.98519585 269.17415181 -34.62191616 273.09161397 -36.375 277.0625 C-36.81199219 278.0844043 -36.81199219 278.0844043 -37.2578125 279.12695312 C-39.13682481 283.41654044 -41.29272768 287.17761772 -44 291 C-45.65 290.67 -47.3 290.34 -49 290 C-48.43701079 285.56136042 -46.75108697 282.71594205 -44.3125 279 C-34.52246853 263.58707759 -26.88843456 246.09367103 -30.70703125 227.5703125 C-33.41641362 218.62021791 -38.29157679 212.12905044 -44.00390625 204.87109375 C-62.4672219 181.35282952 -72.16022724 152.8539891 -72.24023438 123.12133789 C-72.24987007 120.9665561 -72.28093502 118.81275934 -72.3125 116.65820312 C-72.38571268 107.05737387 -71.27715564 98.33888875 -69 89 C-68.81711426 88.23002686 -68.63422852 87.46005371 -68.44580078 86.66674805 C-62.53572673 63.40145655 -49.76636005 43.72807305 -34 26 C-33.41863281 25.34515625 -32.83726563 24.6903125 -32.23828125 24.015625 C-23.30946158 14.56951855 -11.63869509 5.78364603 0 0 Z " fill="#764FFE" transform="translate(72,21)"/>
<path d="M0 0 C0.5775 0.2475 1.155 0.495 1.75 0.75 C1.75 1.74 1.75 2.73 1.75 3.75 C0.43 3.75 -0.89 3.75 -2.25 3.75 C-2.65147845 4.63924589 -2.65147845 4.63924589 -3.06106758 5.54645634 C-4.26563783 7.77898284 -5.48107142 9.22530445 -7.2729187 11.00669861 C-8.20234283 11.93807899 -8.20234283 11.93807899 -9.15054321 12.88827515 C-9.82902313 13.55799347 -10.50750305 14.22771179 -11.20654297 14.91772461 C-11.92217407 15.63204147 -12.63780518 16.34635834 -13.37512207 17.08232117 C-15.74291692 19.44362283 -18.11760294 21.79787182 -20.4921875 24.15234375 C-22.13935246 25.79323752 -23.78600279 27.43464802 -25.43215942 29.07655334 C-29.76980805 33.40089155 -34.11298232 37.71963376 -38.45776367 42.0368042 C-45.40633676 48.94228659 -52.34826157 55.85443568 -59.28689957 62.76989937 C-61.71076712 65.18355573 -64.13802729 67.59376142 -66.56564331 70.00364685 C-68.05543458 71.48660795 -69.54511536 72.96968004 -71.03466797 74.45288086 C-72.04631516 75.454422 -72.04631516 75.454422 -73.07839966 76.47619629 C-76.3683152 79.75813689 -79.39927184 83.06941399 -82.25 86.75 C-83.55130424 87.97251434 -84.88405986 89.16265586 -86.25 90.3125 C-88.48383806 92.21416883 -90.57451829 94.08305824 -92.625 96.1875 C-94.25 97.75 -94.25 97.75 -96.25 97.75 C-96.25 98.41 -96.25 99.07 -96.25 99.75 C-98.3088761 101.17812215 -100.34770934 102.4779824 -102.5 103.75 C-103.08652344 104.10578125 -103.67304688 104.4615625 -104.27734375 104.828125 C-106.68194176 106.27628739 -109.07464857 107.66638872 -111.609375 108.875 C-113.4402439 109.64819862 -113.4402439 109.64819862 -114.25 111.75 C-116.93476114 112.67557511 -119.5804809 113.49174407 -122.3125 114.25 C-123.05177734 114.46269531 -123.79105469 114.67539063 -124.55273438 114.89453125 C-126.78080875 115.53001003 -129.01413616 116.14255735 -131.25 116.75 C-132.27287109 117.03907227 -132.27287109 117.03907227 -133.31640625 117.33398438 C-148.31510146 121.39124861 -163.81210202 118.63145806 -177.265625 111.05078125 C-177.92046875 110.62152344 -178.5753125 110.19226563 -179.25 109.75 C-175.28486848 108.42828949 -172.50822828 109.61606976 -168.625 110.6875 C-148.30665726 115.82694795 -126.12141127 112.3980968 -107.9375 101.875 C-92.69285663 92.07487212 -80.02977053 78.69989563 -67.29931641 65.9296875 C-65.22803809 63.85298053 -63.15137408 61.78176449 -61.07421875 59.7109375 C-59.73665792 58.37271685 -58.39940679 57.03418655 -57.0625 55.6953125 C-56.14525146 54.78110031 -56.14525146 54.78110031 -55.20947266 53.84841919 C-51.67512555 50.29480748 -48.42627328 46.6261241 -45.25 42.75 C-44.13725476 41.73338826 -42.99577869 40.74607 -41.8125 39.8125 C-39.35632909 37.78072147 -37.27719158 35.70965912 -35.25 33.25 C-32.74166913 30.20798171 -30.00801538 27.78682586 -26.97265625 25.28515625 C-24.62907667 23.19666016 -22.71861277 20.83221979 -20.7265625 18.4140625 C-19.27129731 16.77400173 -17.76998541 15.43353508 -16.0625 14.0625 C-13.63098778 12.06325662 -12.09649791 10.24277217 -10.25 7.75 C-9.59 7.75 -8.93 7.75 -8.25 7.75 C-8.0025 7.1725 -7.755 6.595 -7.5 6 C-3.9244186 -0.43604651 -3.9244186 -0.43604651 0 0 Z " fill="#8766F7" transform="translate(296.25,102.25)"/>
<path d="M0 0 C29.09838771 -0.68939912 57.63031952 8.89173052 83.51953125 21.46875 C84.19749756 21.79407715 84.87546387 22.1194043 85.57397461 22.45458984 C90.21111919 24.79351381 90.21111919 24.79351381 91.33203125 28.15625 C86.52750651 27.35549588 83.10597998 25.57086539 78.83203125 23.28125 C73.5551526 20.6228225 67.95764266 18.91894158 62.33203125 17.15625 C62.33203125 16.49625 62.33203125 15.83625 62.33203125 15.15625 C61.31496094 14.88361328 61.31496094 14.88361328 60.27734375 14.60546875 C44.77371385 10.41820029 44.77371385 10.41820029 38.63671875 8.16796875 C10.89068004 -0.32638589 -21.23885752 3.59016375 -48.66796875 11.15625 C-49.59174316 11.40648926 -50.51551758 11.65672852 -51.46728516 11.91455078 C-52.37526855 12.17091309 -53.28325195 12.42727539 -54.21875 12.69140625 C-55.04673096 12.92351807 -55.87471191 13.15562988 -56.7277832 13.39477539 C-58.85953244 13.9817018 -58.85953244 13.9817018 -59.66796875 16.15625 C-61.53379193 17.03547928 -63.43698937 17.83626921 -65.35546875 18.59375 C-68.6351661 19.9102755 -71.77972726 21.21427846 -74.91796875 22.84375 C-77.27057788 23.96658617 -79.09767439 24.53964686 -81.60546875 25.09375 C-85.836294 26.04385855 -88.96438798 27.93410154 -92.66796875 30.15625 C-93.32796875 30.15625 -93.98796875 30.15625 -94.66796875 30.15625 C-94.66796875 29.49625 -94.66796875 28.83625 -94.66796875 28.15625 C-65.25169786 10.81912416 -34.17285467 1.45571266 0 0 Z " fill="#08A7F5" transform="translate(358.66796875,-0.15625)"/>
<path d="M0 0 C1.46566406 1.28003906 1.46566406 1.28003906 2.9609375 2.5859375 C20.44954798 17.5498764 40.14550157 30.48908617 62 38 C63.05960937 38.37511719 64.11921875 38.75023437 65.2109375 39.13671875 C73.95707324 42.04129963 82.89898121 43.67639226 92 45 C93.28261719 45.19078125 94.56523437 45.3815625 95.88671875 45.578125 C103.56495054 46.39458856 111.35025517 46.10356792 119.0625 46.0625 C120.70768093 46.0574758 122.35286335 46.05291452 123.99804688 46.04882812 C127.99873498 46.03789342 131.99935088 46.0206793 136 46 C136 46.33 136 46.66 136 47 C94.05190483 54.55335476 50.77202602 42.02965503 16.01171875 18.3203125 C9.50762407 13.77419197 3.19905374 8.95268314 -3 4 C-2.01 2.68 -1.02 1.36 0 0 Z " fill="#049EED" transform="translate(249,241)"/>
<path d="M0 0 C0 0.66 0 1.32 0 2 C0.804375 2.12375 1.60875 2.2475 2.4375 2.375 C3.283125 2.58125 4.12875 2.7875 5 3 C5.33 3.66 5.66 4.32 6 5 C4.62293175 4.73988711 3.24841445 4.46626234 1.875 4.1875 C1.10929688 4.03667969 0.34359375 3.88585938 -0.4453125 3.73046875 C-3 3 -3 3 -5.625 1.53125 C-10.28553824 -0.58325346 -14.81995459 -1.09405687 -19.875 -1.6875 C-21.4542627 -1.87638794 -21.4542627 -1.87638794 -23.06542969 -2.0690918 C-44.28574612 -4.39765104 -67.49278845 -4.59546523 -88 2 C-89.258125 2.309375 -90.51625 2.61875 -91.8125 2.9375 C-93.20923143 3.28810809 -94.60492891 3.64284263 -96 4 C-97.03898437 4.26425781 -98.07796875 4.52851563 -99.1484375 4.80078125 C-106.52996277 6.78059432 -113.28743197 9.28745112 -120.16015625 12.6328125 C-124.41916883 14.68323121 -127.21129337 16 -132 16 C-132 16.66 -132 17.32 -132 18 C-137.625 21 -137.625 21 -141 21 C-136.27841205 17.08782713 -131.83119603 14.13419501 -126 12.1875 C-121.73232858 10.69438708 -117.69975833 8.95844922 -113.625 7 C-107.23114964 3.99602533 -100.80102141 1.87556118 -94 0 C-93.11699219 -0.26554688 -92.23398437 -0.53109375 -91.32421875 -0.8046875 C-67.75081885 -7.42297922 -21.36703079 -14.2446872 0 0 Z " fill="#46C0FC" transform="translate(407,12)"/>
<path d="M0 0 C0.65484375 0.37511719 1.3096875 0.75023437 1.984375 1.13671875 C22.80445477 12.81125501 45.79897709 18.6900922 69.38330078 12.36035156 C75.40342247 10.5127756 81.47183414 8.55286795 86.85546875 5.24609375 C87.56316406 4.83488281 88.27085937 4.42367187 89 4 C89.99 4.495 89.99 4.495 91 5 C88.48167109 8.77749337 87.28556277 8.64666439 83 10 C81.17999391 10.81680996 79.36807878 11.65177481 77.5625 12.5 C62.93129728 19.21337237 42.8035746 20.97498989 27.37890625 15.78515625 C24.86379983 14.95504723 22.42256775 14.49947967 19.8125 14.0625 C15.21202772 13.18062033 10.81575016 11.79954515 7 9 C6.67 8.01 6.34 7.02 6 6 C5.0409375 5.5359375 5.0409375 5.5359375 4.0625 5.0625 C1.52197156 3.75374293 1.14668824 2.54533936 0 0 Z " fill="#08A8F6" transform="translate(311,203)"/>
<path d="M0 0 C3.0261912 2.0174608 3.81051292 3.45522464 5 6.875 C5 11.01284985 3.57341738 12.83837294 1 16 C-1.85324437 17.42662219 -3.83454549 17.31033868 -7 17 C-9.69990662 15.20006226 -11.5418865 13.916227 -13 11 C-13.52981019 7.02642355 -13.31881474 5.45829619 -11 2.125 C-6.85436985 -0.81148802 -5.00671711 -0.7152453 0 0 Z " fill="#6238F5" transform="translate(167,139)"/>
<path d="M0 0 C3.27522945 2.15475621 3.90229594 3.6641423 5 7.4375 C5 11 5 11 3.1875 13.875 C0.63191747 16.35756589 -0.28587634 16.92065293 -3.8125 17.3125 C-7.85211856 16.91645896 -9.29729155 16.01158942 -12 13 C-13.0625 9.5625 -13.0625 9.5625 -13 6 C-9.4121143 0.30887096 -6.62798105 -0.57137768 0 0 Z " fill="#60CAFF" transform="translate(354,139)"/>
<path d="M0 0 C4.45850936 0.79616239 5.90783917 1.93313458 8.5 5.625 C9.125 9.125 9.125 9.125 8.5 12.625 C5.90783917 16.31686542 4.45850936 17.45383761 0 18.25 C-4.45850936 17.45383761 -5.90783917 16.31686542 -8.5 12.625 C-9.125 9.125 -9.125 9.125 -8.5 5.625 C-5.90783917 1.93313458 -4.45850936 0.79616239 0 0 Z " fill="#6238F5" transform="translate(144.5,138.375)"/>
<path d="M0 0 C4.38415647 0.78288508 5.80548156 2.13797613 8.5 5.625 C9.5 7.5625 9.5 7.5625 9.5 9.625 C7.94025604 13.52435989 7.03271727 15.26985515 3.5 17.625 C-0.65407036 18.27118872 -2.24454182 17.78111333 -5.875 15.5625 C-8.5 12.625 -8.5 12.625 -9.1875 9.125 C-8.07554984 3.46416281 -5.69564955 1.01708028 0 0 Z " fill="#60CAFF" transform="translate(386.5,138.375)"/>
<path d="M0 0 C2.375 1 2.375 1 4 3 C4.90481741 5.71445223 5.25036984 8.14578379 5 11 C3.23535939 13.85993478 2.00434303 15.49782849 -1 17 C-5.0130324 17.53507099 -6.53928033 17.33051628 -9.875 14.9375 C-12 12 -12 12 -12.625 8.5 C-11.32729506 1.23285234 -7.05549699 -1.02625411 0 0 Z " fill="#60CAFF" transform="translate(372,139)"/>
<path d="M0 0 C3.27522945 2.15475621 3.90229594 3.6641423 5 7.4375 C5 11 5 11 3.1875 13.875 C0.64465703 16.34519031 -0.31435615 16.90858082 -3.8125 17.375 C-7 17 -7 17 -9.875 15 C-12.82360163 10.83726829 -12.7975483 9.02455429 -12 4 C-8.51708493 -0.22171524 -5.31642554 -0.77329826 0 0 Z " fill="#6237F5" transform="translate(130,139)"/>
<path d="M0 0 C1.98 0 3.96 0 6 0 C6.185625 0.721875 6.37125 1.44375 6.5625 2.1875 C8.32074227 5.62753922 10.30024963 6.81933549 13.5390625 8.7890625 C14.02117187 9.18867188 14.50328125 9.58828125 15 10 C15 10.99 15 11.98 15 13 C16.093125 13.28875 17.18625 13.5775 18.3125 13.875 C22 15 22 15 25 17 C25 17.66 25 18.32 25 19 C25.515625 19.12375 26.03125 19.2475 26.5625 19.375 C29.72711068 20.18643864 32.85906187 21.10120847 36 22 C37.22460938 22.34160156 38.44921875 22.68320313 39.7109375 23.03515625 C40.92007813 23.37417969 42.12921875 23.71320313 43.375 24.0625 C44.59960938 24.40410156 45.82421875 24.74570313 47.0859375 25.09765625 C50 26 50 26 51 27 C53.01594582 27.23427778 55.038474 27.41336124 57.0625 27.5625 C58.16722656 27.64628906 59.27195312 27.73007813 60.41015625 27.81640625 C61.26480469 27.87699219 62.11945313 27.93757813 63 28 C63 28.33 63 28.66 63 29 C41.97284363 29.58288832 41.97284363 29.58288832 34 26 C32.85015625 25.50886719 31.7003125 25.01773438 30.515625 24.51171875 C18.90461484 19.2713384 9.01743123 11.78550029 -1 4 C-0.67 2.68 -0.34 1.36 0 0 Z " fill="#4DC3FD" transform="translate(294,196)"/>
<path d="M0 0 C2.16483422 0.01830056 4.32923673 0.02050813 6.49414062 0.02026367 C32.41165 0.08064023 32.41165 0.08064023 42.41601562 3.51831055 C43.07150391 3.7383374 43.72699219 3.95836426 44.40234375 4.18505859 C46.33054706 4.83839532 48.24855996 5.52157326 50.16601562 6.20581055 C51.30554688 6.60799805 52.44507813 7.01018555 53.61914062 7.42456055 C56.14337729 8.33069679 58.65840328 9.25483044 61.16601562 10.20581055 C61.16601562 10.86581055 61.16601562 11.52581055 61.16601562 12.20581055 C61.92785156 12.3759668 62.6896875 12.54612305 63.47460938 12.72143555 C72.66330133 14.87808235 80.84815817 16.86894383 87.16601562 24.20581055 C83.47183361 24.20581055 81.38765385 22.9240176 78.16601562 21.20581055 C78.16601562 20.54581055 78.16601562 19.88581055 78.16601562 19.20581055 C77.47121094 19.07948242 76.77640625 18.9531543 76.06054688 18.82299805 C67.89646789 17.08220927 59.92644494 14.25455063 52.16601562 11.20581055 C51.23789062 10.87581055 50.30976563 10.54581055 49.35351562 10.20581055 C47.16601562 9.20581055 47.16601562 9.20581055 45.85302734 7.71630859 C42.32452729 4.55699893 36.8277259 4.67018242 32.29101562 4.01831055 C31.10096924 3.84541504 29.91092285 3.67251953 28.68481445 3.49438477 C19.73040542 2.30825424 10.88265926 1.83730803 1.85351562 1.83081055 C0.69416504 1.82927979 -0.46518555 1.82774902 -1.65966797 1.82617188 C-8.81504318 1.91780245 -15.71289439 2.62835421 -22.77661133 3.76928711 C-26.52714054 4.30477751 -30.05495888 4.35697157 -33.83398438 4.20581055 C-24.5396692 -1.26033685 -10.50067432 -0.0912999 0 0 Z " fill="#28B5F9" transform="translate(359.833984375,4.794189453125)"/>
<path d="M0 0 C1.28830575 2.5766115 0.6975501 3.24257042 0 6 C-1.25196101 22.52178057 3.42267223 36.57615866 11.125 51.125 C12 53 12 53 12.875 56.8125 C13.86816975 61.08152806 15.68416347 64.29466156 18 68 C16.02 68 14.04 68 12 68 C12.99 67.505 12.99 67.505 14 67 C13.68546875 66.443125 13.3709375 65.88625 13.046875 65.3125 C8.07078848 56.43947825 3.67373882 47.50104867 0 38 C-0.26619141 37.34257812 -0.53238281 36.68515625 -0.80664062 36.0078125 C-3.09679229 29.90436791 -3.45479443 24.35608121 -3.375 17.875 C-3.38660156 16.92496094 -3.39820313 15.97492188 -3.41015625 14.99609375 C-3.38613945 9.22405634 -2.68319285 5.12504031 0 0 Z " fill="#41BEFC" transform="translate(466,248)"/>
<path d="M0 0 C3.65707212 2.11152378 4.91438602 5.06446272 6.625 8.765625 C6.96821289 9.48508301 7.31142578 10.20454102 7.66503906 10.94580078 C12.20151781 20.63969682 15.53699836 30.46919586 17.9375 40.890625 C18.19515137 41.99639893 18.19515137 41.99639893 18.45800781 43.12451172 C19.5150139 48.01564739 19.7774575 52.51276035 19.625 57.515625 C19.295 57.515625 18.965 57.515625 18.625 57.515625 C18.40585937 56.44828125 18.18671875 55.3809375 17.9609375 54.28125 C16.1396327 45.63103351 14.07336783 37.07347885 11.625 28.578125 C11.26994385 27.29180176 11.26994385 27.29180176 10.90771484 25.97949219 C9.58550598 21.52073496 8.77094296 18.99639415 4.625 16.515625 C3.57781202 14.20308488 2.58153635 11.8671102 1.625 9.515625 C0.30041292 7.50982171 -1.0309907 5.50846638 -2.375 3.515625 C-2.375 2.855625 -2.375 2.195625 -2.375 1.515625 C-3.035 1.185625 -3.695 0.855625 -4.375 0.515625 C-2.375 -0.484375 -2.375 -0.484375 0 0 Z " fill="#25B3F8" transform="translate(485.375,64.484375)"/>
<path d="M0 0 C-0.66 0.33 -1.32 0.66 -2 1 C-2.928125 0.525625 -3.85625 0.05125 -4.8125 -0.4375 C-11.08341951 -3.24634936 -18.33901833 -3.08324937 -24.8515625 -1.15625 C-31.00290403 1.59419878 -34.55397654 5.29252364 -38 11 C-38.4125 11.68320312 -38.825 12.36640625 -39.25 13.0703125 C-40.19768271 14.6958516 -41.10381787 16.34550991 -42 18 C-42.495 17.01 -42.495 17.01 -43 16 C-44.99512563 15.31888461 -46.99636229 14.65565262 -49 14 C-51.58350441 12.78893845 -54.09820445 11.44960891 -56.625 10.125 C-63.23557139 6.7275595 -69.84113635 4.06088499 -77 2 C-77 1.67 -77 1.34 -77 1 C-71.84385361 0.45724775 -68.25077489 1.93271207 -63.61328125 3.91015625 C-59.81377595 5.4947033 -55.91990962 6.75017375 -52 8 C-52 8.66 -52 9.32 -52 10 C-48.08936776 11.47047336 -48.08936776 11.47047336 -44 12 C-42.68 12 -41.36 12 -40 12 C-39.773125 11.29875 -39.54625 10.5975 -39.3125 9.875 C-35.83218902 2.25146166 -30.63009112 -1.00757364 -23 -4 C-14.52392618 -6.18822434 -7.42272253 -4.26119257 0 0 Z " fill="#96CFF1" transform="translate(490,16)"/>
<path d="M0 0 C0.59425781 0.19335938 1.18851562 0.38671875 1.80078125 0.5859375 C7.25332669 2.29886779 12.61747921 3.57334646 18.26171875 4.47265625 C21 5 21 5 23.9921875 6.05078125 C29.6395763 7.71431141 35.61103263 7.20764493 41.4375 7.125 C42.64599609 7.11597656 43.85449219 7.10695312 45.09960938 7.09765625 C48.06661278 7.07420168 51.03320143 7.04137794 54 7 C53.38125 7.28875 52.7625 7.5775 52.125 7.875 C49.86674235 8.93720042 49.86674235 8.93720042 48 11 C40.9183972 12.62227953 33.11037078 12.24458545 26 11 C25.01 10.34 24.02 9.68 23 9 C21.06234935 8.41708442 21.06234935 8.41708442 18.9453125 8.03515625 C18.16542969 7.87466797 17.38554687 7.71417969 16.58203125 7.54882812 C14.95227083 7.22624438 13.32206384 6.90590812 11.69140625 6.58789062 C7.30072682 5.68009776 3.62549855 4.81086224 0 2 C0 1.34 0 0.68 0 0 Z " fill="#14ADF7" transform="translate(319,213)"/>
<path d="M0 0 C1.22016168 3.66048505 0.64963916 4.37590209 -0.75 7.875 C-5.46259115 21.40522686 -6.85300013 35.83110002 -5 50 C-4.92394531 50.88300781 -4.84789062 51.76601562 -4.76953125 52.67578125 C-4.4096296 56.82483607 -3.59217322 60.17878428 -2 64 C-1.875 66.8125 -1.875 66.8125 -2 69 C-11.67071508 54.49392739 -9.81164231 35.31446775 -7 19 C-6.20974631 15.89226078 -5.19880992 12.97045019 -4 10 C-3.45734332 8.52119625 -2.91565119 7.04203814 -2.375 5.5625 C-1 2 -1 2 0 0 Z " fill="#48C1FC" transform="translate(202,107)"/>
<path d="M0 0 C8.01043511 8.01043511 7.35036108 25.59877561 7.39599609 36.29101562 C7.39189728 37.81902095 7.38491399 39.34702134 7.375 40.875 C7.37058899 41.62128662 7.36617798 42.36757324 7.3616333 43.13647461 C7.30040331 50.16498174 7.10592082 57.04130916 6 64 C5.67 64 5.34 64 5 64 C4.98018066 63.26177002 4.96036133 62.52354004 4.93994141 61.76293945 C4.3394586 33.74861099 4.3394586 33.74861099 0.3671875 6.05859375 C0 4 0 4 0 0 Z " fill="#45C0FC" transform="translate(499,102)"/>
<path d="M0 0 C0.58910156 0.20367188 1.17820312 0.40734375 1.78515625 0.6171875 C0.55938023 1.41409399 -0.6706538 2.20445234 -1.90234375 2.9921875 C-2.58683594 3.43304687 -3.27132812 3.87390625 -3.9765625 4.328125 C-6.21484375 5.6171875 -6.21484375 5.6171875 -8.671875 6.5703125 C-17.24541835 10.09982036 -24.33698621 17.36021082 -30.97460938 23.66748047 C-35.0414762 27.53050373 -35.0414762 27.53050373 -37.21484375 28.6171875 C-35.65070944 24.77794874 -33.11548143 22.51782518 -30.21484375 19.6171875 C-29.79847656 18.84761719 -29.38210937 18.07804687 -28.953125 17.28515625 C-26.76465443 13.92622277 -24.00164709 11.74566118 -20.83984375 9.3671875 C-20.27523438 8.92117187 -19.710625 8.47515625 -19.12890625 8.015625 C-15.82452945 5.49144827 -13.30456264 4.21230734 -9.21484375 3.6171875 C-7.33527053 2.64667776 -7.33527053 2.64667776 -5.65234375 1.4921875 C-2.21484375 -0.3828125 -2.21484375 -0.3828125 0 0 Z " fill="#10ABF7" transform="translate(277.21484375,24.3828125)"/>
<path d="M0 0 C0.66 0.33 1.32 0.66 2 1 C1.360625 1.103125 0.72125 1.20625 0.0625 1.3125 C-0.618125 1.539375 -1.29875 1.76625 -2 2 C-2.33 2.99 -2.66 3.98 -3 5 C-4.42578125 6.40234375 -4.42578125 6.40234375 -6.3125 7.9375 C-10.69299991 11.63799451 -14.69762951 15.63567441 -18.69848633 19.73608398 C-21.64654523 22.73410169 -24.71363233 25.38533924 -28 28 C-29.56505541 29.64129283 -29.56505541 29.64129283 -30.8125 31.25 C-31.8953125 32.61125 -31.8953125 32.61125 -33 34 C-33 29.61019037 -30.27637678 27.44759887 -27.5 24.3125 C-26.67459717 23.36866455 -26.67459717 23.36866455 -25.83251953 22.40576172 C-8.62914433 2.87638144 -8.62914433 2.87638144 0 0 Z " fill="#4AC2FD" transform="translate(264,35)"/>
<path d="M0 0 C1 2 1 2 0.5703125 3.66015625 C-0.2292493 6.94055023 -0.13168365 10.0655994 -0.125 13.4375 C-0.12757813 14.73558594 -0.13015625 16.03367187 -0.1328125 17.37109375 C-0.02097344 20.42693155 0.39095829 23.02672553 1 26 C1.0659735 28.10323534 1.08562245 30.20835724 1.0625 32.3125 C1.05347656 33.38113281 1.04445313 34.44976562 1.03515625 35.55078125 C1.02355469 36.35902344 1.01195312 37.16726563 1 38 C-3.28202527 31.5769621 -3.33742959 25.54636316 -3.3125 18.0625 C-3.32861328 17.09892578 -3.34472656 16.13535156 -3.36132812 15.14257812 C-3.36531863 9.30447359 -2.73014337 5.17934851 0 0 Z " fill="#3BBBFA" transform="translate(466,248)"/>
<path d="M0 0 C0.76249056 2.24261929 1.13062213 3.5693974 0.43359375 5.8671875 C0.10488281 6.52976562 -0.22382812 7.19234375 -0.5625 7.875 C-3.07980415 13.12812429 -5.30428585 18.48433908 -7.53515625 23.86328125 C-8.8175172 26.60924349 -9.91612051 28.80786703 -12 31 C-12.99 31 -13.98 31 -15 31 C-14.36728502 26.78190015 -11.9808776 23.53039182 -9.75 20 C-5.75913434 13.54528446 -2.64262559 7.13110524 0 0 Z " fill="#815EF8" transform="translate(41,279)"/>
<path d="M0 0 C12.87 0.495 12.87 0.495 26 1 C25.67 1.66 25.34 2.32 25 3 C18.08465532 4.66722146 9.91937452 4.47444815 3 3 C2.01 2.01 1.02 1.02 0 0 Z " fill="#2AB5FA" transform="translate(342,221)"/>
<path d="M0 0 C1 2 1 2 0.328125 4.57421875 C-0.02765625 5.60160156 -0.3834375 6.62898438 -0.75 7.6875 C-1.12511719 8.77417969 -1.50023437 9.86085938 -1.88671875 10.98046875 C-2.69934091 13.18452814 -3.60489073 15.35495524 -4.5625 17.5 C-6.62472813 22.52107718 -7.77771244 27.72075798 -9 33 C-9.33 33 -9.66 33 -10 33 C-9.38690696 21.55559667 -5.60747104 9.96883741 0 0 Z " fill="#7E5BF8" transform="translate(15,87)"/>
<path d="M0 0 C0.99 0.495 0.99 0.495 2 1 C2.625 3.5625 2.625 3.5625 3 6 C3.66 6 4.32 6 5 6 C5.433125 7.03125 5.86625 8.0625 6.3125 9.125 C7.74912525 12.48396666 9.33421945 15.74776178 11 19 C9.02 19 7.04 19 5 19 C5.66 18.67 6.32 18.34 7 18 C6.49339844 17.11248047 6.49339844 17.11248047 5.9765625 16.20703125 C0 5.61849711 0 5.61849711 0 0 Z " fill="#3EBDFB" transform="translate(473,297)"/>
<path d="M0 0 C4.3573226 1.47130373 7.71934134 3.83080615 11.3125 6.625 C11.86228516 7.04523437 12.41207031 7.46546875 12.97851562 7.8984375 C14.32292168 8.92720039 15.66201413 9.9629009 17 11 C16.6875 13.375 16.6875 13.375 16 16 C15.01 16.66 14.02 17.32 13 18 C13 17.01 13 16.02 13 15 C11.68 14.34 10.36 13.68 9 13 C11 13 13 13 15 13 C11.12965474 9.51166285 7.27843329 6.10852915 3 3.125 C2.01 2.42375 1.02 1.7225 0 1 C0 0.67 0 0.34 0 0 Z " fill="#7552FD" transform="translate(231,29)"/>
<path d="M0 0 C2.22695405 2.22695405 2.96032175 3.967618 4.125 6.875 C4.47820312 7.73867187 4.83140625 8.60234375 5.1953125 9.4921875 C6 12 6 12 6 16 C5.34 16 4.68 16 4 16 C3.67386719 15.14535156 3.34773438 14.29070312 3.01171875 13.41015625 C2.35623047 11.75306641 2.35623047 11.75306641 1.6875 10.0625 C1.25824219 8.96035156 0.82898438 7.85820313 0.38671875 6.72265625 C-0.75608861 3.69139735 -0.75608861 3.69139735 -4 3 C-4 2.34 -4 1.68 -4 1 C-2.125 0.375 -2.125 0.375 0 0 Z " fill="#7D59F8" transform="translate(298,105)"/>
<path d="M0 0 C0 3 0 3 -2 6 C-2.66 6 -3.32 6 -4 6 C-4.26941406 6.59039062 -4.53882813 7.18078125 -4.81640625 7.7890625 C-5.99389512 9.98859616 -7.25211662 11.54809588 -8.9375 13.375 C-11.5799225 16.3662998 -13.38599247 19.32364951 -15 23 C-16 20 -16 20 -15 17.8125 C-12.26276293 13.96326036 -9.14567413 10.51731496 -6 7 C-3.99053206 4.67463317 -1.99608848 2.33688408 0 0 Z " fill="#4CC3FD" transform="translate(223,77)"/>
<path d="M0 0 C0.66 0.33 1.32 0.66 2 1 C2 1.66 2 2.32 2 3 C2.66 3 3.32 3 4 3 C9.55580866 13.37357631 9.55580866 13.37357631 10 19 C6.73529342 16.82352895 6.21720083 15.41809414 4.828125 11.87890625 C3.57202413 9.02897929 1.7369517 6.5754801 0 4 C0 3.34 0 2.68 0 2 C-0.66 1.67 -1.32 1.34 -2 1 C-1.34 0.67 -0.68 0.34 0 0 Z " fill="#3DBDFB" transform="translate(483,64)"/>
<path d="M0 0 C4.49092377 2.37754788 7.52235713 5.3606063 11 9 C10.67 9.66 10.34 10.32 10 11 C7.5 9.625 7.5 9.625 5 8 C5 7.34 5 6.68 5 6 C2.69 5.67 0.38 5.34 -2 5 C-1.34 3.35 -0.68 1.7 0 0 Z " fill="#0DA9F7" transform="translate(295,190)"/>
<path d="M0 0 C7.1178153 2.03807293 14.06707281 4.40344742 21 7 C17.34240017 8.29814095 14.77223795 7.7043336 11.0625 6.75 C10.04285156 6.49734375 9.02320313 6.2446875 7.97265625 5.984375 C4.96045243 4.98690409 2.57996928 3.84351396 0 2 C0 1.34 0 0.68 0 0 Z " fill="#2FB7FA" transform="translate(319,213)"/>
<path d="M0 0 C2.00461299 0.65266469 4.00379834 1.32204472 6 2 C6.845625 2.268125 7.69125 2.53625 8.5625 2.8125 C11.68887136 4.335604 13.65993725 6.45936045 16 9 C12.30581799 9 10.22163822 7.71820705 7 6 C7 5.34 7 4.68 7 4 C5.824375 3.7834375 5.824375 3.7834375 4.625 3.5625 C2 3 2 3 0 2 C0 1.34 0 0.68 0 0 Z " fill="#1DB0F8" transform="translate(431,20)"/>
<path d="M0 0 C2.97 0.33 5.94 0.66 9 1 C9 1.66 9 2.32 9 3 C9.804375 3.12375 10.60875 3.2475 11.4375 3.375 C12.7059375 3.684375 12.7059375 3.684375 14 4 C14.33 4.66 14.66 5.32 15 6 C9.55432314 4.97137215 4.88182883 3.75385216 0 1 C0 0.67 0 0.34 0 0 Z " fill="#47C1FC" transform="translate(398,11)"/>
<path d="M0 0 C1.98 0 3.96 0 6 0 C6.66 1.98 7.32 3.96 8 6 C6.6078125 5.505 6.6078125 5.505 5.1875 5 C2.07970709 3.85032996 2.07970709 3.85032996 -1 4 C-0.67 2.68 -0.34 1.36 0 0 Z " fill="#3EBDFC" transform="translate(294,196)"/>
<path d="M0 0 C-8.261959 5.55580866 -8.261959 5.55580866 -13 6 C-13 5.34 -13 4.68 -13 4 C-11.59248779 3.13083113 -10.1735479 2.28014851 -8.75 1.4375 C-7.96109375 0.96183594 -7.1721875 0.48617188 -6.359375 -0.00390625 C-3.69155375 -1.13022151 -2.65498232 -1.0169313 0 0 Z " fill="#1AAFF8" transform="translate(279,25)"/>
<path d="M0 0 C3.05001831 3.66002197 7 9.07851471 7 14 C6.34 14 5.68 14 5 14 C4.731875 13.236875 4.46375 12.47375 4.1875 11.6875 C3.22063564 8.99371254 3.22063564 8.99371254 1.375 7.5625 C0 6 0 6 -0.1875 2.8125 C-0.125625 1.884375 -0.06375 0.95625 0 0 Z " fill="#1FB1F8" transform="translate(471,289)"/>
<path d="M0 0 C2.63886669 3.18483911 5.14494105 6.2898821 7 10 C6.67 10.99 6.34 11.98 6 13 C4.98868775 11.59138651 3.99133233 10.17274547 3 8.75 C2.1646875 7.56664062 2.1646875 7.56664062 1.3125 6.359375 C0 4 0 4 0 0 Z " fill="#1BAFF8" transform="translate(478,303)"/>
<path d="M0 0 C3.65251008 5.47876512 4.2189011 8.43296699 4 15 C0.73154287 10.09731431 -0.27944109 5.86826297 0 0 Z " fill="#47C1FC" transform="translate(463,271)"/>
<path d="M0 0 C0.928125 0.20625 1.85625 0.4125 2.8125 0.625 C1.94625 1.0271875 1.94625 1.0271875 1.0625 1.4375 C-1.2200868 2.64219859 -3.1612942 4.03298115 -5.1875 5.625 C-5.5175 4.305 -5.8475 2.985 -6.1875 1.625 C-3.1875 -0.375 -3.1875 -0.375 0 0 Z " fill="#31B5FA" transform="translate(256.1875,238.375)"/>
<path d="M0 0 C3.18068156 0.94560803 4.72068737 1.63090831 6.75 4.3125 C7.96086954 6.9158695 8.59536231 9.16753615 9 12 C5.81994972 8.11327187 2.89445553 4.10047867 0 0 Z " fill="#149AEA" transform="translate(419,92)"/>
<path d="M0 0 C0.66 0.33 1.32 0.66 2 1 C-1.85623679 5.82029598 -1.85623679 5.82029598 -5.11328125 6.33203125 C-7.07856214 6.3145776 -9.04166127 6.16596091 -11 6 C-8.66460191 4.44306794 -6.42031244 3.09799354 -3.9375 1.8125 C-2.89916016 1.26529297 -2.89916016 1.26529297 -1.83984375 0.70703125 C-1.23269531 0.47371094 -0.62554687 0.24039063 0 0 Z " fill="#9DC2E5" transform="translate(490,59)"/>
<path d="M0 0 C2.1875 -0.3125 2.1875 -0.3125 5 0 C7.8125 2.5 7.8125 2.5 10 5 C6.13304322 5 3.4911548 3.58090029 0 2 C0 1.34 0 0.68 0 0 Z " fill="#2CB6FA" transform="translate(309,207)"/>
<path d="M0 0 C1.26706235 3.80118706 0.57172296 5.3850372 -1 9 C-1.99 9.33 -2.98 9.66 -4 10 C-3.52449439 8.51965236 -3.04448784 7.04074979 -2.5625 5.5625 C-2.29566406 4.73878906 -2.02882813 3.91507812 -1.75390625 3.06640625 C-1 1 -1 1 0 0 Z " fill="#815EF8" transform="translate(20,76)"/>
<path d="M0 0 C2.45823172 3.68734758 3.01242616 6.69699971 4 11 C2 10 2 10 0 8 C-0.36933645 5.24627091 -0.18336678 2.79634339 0 0 Z " fill="#26B3F8" transform="translate(467,278)"/>
<path d="M0 0 C0.33 0 0.66 0 1 0 C0.50769231 6.4 0.50769231 6.4 -2.0625 9.4375 C-2.701875 9.953125 -3.34125 10.46875 -4 11 C-3.52269162 9.5410574 -3.04308958 8.08286504 -2.5625 6.625 C-2.29566406 5.81289062 -2.02882812 5.00078125 -1.75390625 4.1640625 C-1 2 -1 2 0 0 Z " fill="#16ADF8" transform="translate(202,98)"/>
<path d="M0 0 C4.67692308 1.47692308 4.67692308 1.47692308 6.3125 4.125 C6.539375 4.74375 6.76625 5.3625 7 6 C2.32307692 4.52307692 2.32307692 4.52307692 0.6875 1.875 C0.460625 1.25625 0.23375 0.6375 0 0 Z " fill="#24B3F9" transform="translate(300,198)"/>
</svg>
