<svg width="81" height="28" viewBox="0 0 81 28" fill="none" xmlns="http://www.w3.org/2000/svg">
<path d="M7.89474 0.584547C5.24848 0.836573 2.83133 2.55492 1.47956 5.15536C1.2619 5.60213 1.13589 5.94581 0.906775 6.88517C0.723484 7.59542 0.677661 9.65745 0.838041 10.1615C0.895319 10.3448 1.02133 10.7801 1.13589 11.1352C1.35355 11.8913 2.09817 13.1858 2.75114 13.9533C3.2781 14.5719 4.42367 15.4769 4.67569 15.4769C4.77879 15.4769 4.85898 15.5228 4.85898 15.5686C4.85898 15.6488 5.54632 16.0383 5.83272 16.1184C5.90145 16.1414 6.17639 16.233 6.45132 16.3361C7.17303 16.5996 9.0174 16.7485 9.93385 16.6225C10.8274 16.4965 12.0073 16.107 12.4426 15.8091C12.603 15.6831 12.7749 15.5915 12.8092 15.5915C12.855 15.5915 13.0842 15.4655 13.3362 15.3051C13.5882 15.1447 13.8288 15.0187 13.8861 15.0187C13.9433 15.0187 14.2068 15.2364 14.4932 15.4998C15.1004 16.0726 16.097 16.6225 16.5552 16.6225H16.8874V8.60352V0.584547H16.5896C16.1085 0.584547 14.8483 1.27189 14.4359 1.75303C14.2297 1.9936 14.0006 2.18834 13.9319 2.18834C13.8631 2.18834 13.4278 1.95923 12.9696 1.68429C12.5114 1.40936 11.8126 1.06569 11.4231 0.939673C10.7472 0.71056 9.36106 0.458534 8.98303 0.492903C8.89138 0.492903 8.39879 0.538725 7.89474 0.584547ZM9.78493 4.13581C10.5983 4.34201 11.2169 4.61695 11.572 4.92625C11.7782 5.10954 11.9844 5.26992 12.0417 5.29283C12.2708 5.38448 12.9238 6.50713 13.13 7.1372C13.3935 7.99637 13.4049 9.42833 13.1529 10.0469C12.7519 11.0436 12.603 11.2842 11.95 11.9257C11.3773 12.487 11.1252 12.6359 10.3577 12.8879C9.24651 13.2545 8.36442 13.2774 7.37923 12.9452C5.72962 12.4068 4.60696 11.0665 4.27474 9.24504C4.14873 8.60352 4.16019 8.38587 4.33202 7.66416C4.44658 7.20593 4.61841 6.66751 4.72152 6.47277C4.96208 6.026 5.69525 5.2241 6.25658 4.80024C7.09284 4.17017 8.71955 3.86087 9.78493 4.13581Z" fill="#1596EC"/>
<path d="M26.178 0.596361C25.3073 0.710918 23.9556 1.10041 23.7379 1.30661C23.6577 1.37535 23.3943 1.53573 23.1651 1.63883C22.9246 1.75339 22.7298 1.89085 22.7298 1.95959C22.7298 2.01686 22.6382 2.07414 22.5351 2.07414C22.3174 2.07414 20.7938 3.60921 20.5532 4.09034C20.4616 4.27363 20.3585 4.44547 20.3241 4.47984C20.1981 4.60585 19.7399 5.61395 19.5108 6.31274C19.3046 6.9199 19.2473 7.3323 19.2473 8.48932C19.2358 9.3485 19.2931 10.1733 19.3962 10.5513C19.591 11.3418 20.496 13.1632 20.8511 13.4955C21 13.6329 21.126 13.7933 21.126 13.8391C21.126 13.8964 21.2635 14.0682 21.4468 14.2286C21.6186 14.3775 21.8592 14.6296 21.9737 14.767L22.2029 15.0305L21.7561 15.4773L21.3208 15.9241L21.8706 16.5312C22.8787 17.6195 23.0506 17.8257 23.337 18.1579L23.6119 18.5016L24.3451 17.8715C25.2615 17.0811 26.0749 16.7947 27.3694 16.7947C28.6868 16.7947 29.523 17.1384 30.4509 18.0434C31.4247 18.9942 31.8944 20.0825 31.8944 21.3999C31.8944 22.6829 30.9894 24.47 30.0729 24.9855C29.9354 25.0542 29.9354 25.1344 30.0615 25.4323C30.1416 25.6385 30.3135 25.879 30.4509 25.9936C30.577 26.0967 30.9894 26.5435 31.3559 26.9673C31.7225 27.3912 32.0891 27.7349 32.1578 27.7349C32.5015 27.7349 33.7158 26.3487 34.3344 25.249C36.133 22.0758 35.48 18.0319 32.7535 15.4658L32.2953 15.0305L32.8108 14.4806C33.0972 14.1828 33.4065 13.862 33.4982 13.7589C34.0595 13.1747 34.8156 11.8115 35.0332 10.9638C35.1249 10.6086 35.2394 10.265 35.2738 10.1962C35.4227 9.96711 35.3425 7.40103 35.1707 6.77097C34.7927 5.38483 34.575 4.88078 34.0251 4.14762C33.6242 3.62066 33.6471 3.47174 34.1626 2.9906C34.7697 2.44073 35.3196 1.36389 35.3311 0.722374V0.470348L31.1268 0.481804C28.8013 0.493259 26.5789 0.539083 26.178 0.596361ZM28.8242 4.17053C28.9846 4.18199 29.1106 4.21636 29.0877 4.23927C29.0648 4.26218 29.2825 4.43401 29.5803 4.64021C30.6915 5.39629 31.2758 6.09509 31.6194 7.11464C31.8485 7.80198 31.9058 9.74945 31.6882 10.0129C31.6309 10.0817 31.5392 10.2764 31.4934 10.4368C31.3674 10.8377 30.5082 11.9375 30.0271 12.3041C29.0763 13.0258 27.5412 13.3351 26.2696 13.0716C25.021 12.8081 23.7952 11.8 23.0964 10.4941C22.81 9.96711 22.7871 9.80673 22.7871 8.60388C22.7871 7.32084 22.7986 7.26357 23.1766 6.57623C23.8181 5.39629 24.6544 4.65167 25.8572 4.23927C26.43 4.03306 26.8539 4.02161 28.8242 4.17053Z" fill="#1596EC"/>
<path d="M44.4956 0.573467C43.1323 0.72239 41.6431 1.36391 40.4861 2.29182C39.8216 2.81878 38.7219 4.10182 38.5042 4.59441C38.4355 4.75479 38.2866 5.01827 38.172 5.17865C37.542 6.11801 37.267 9.00484 37.6565 10.5514C38.2522 12.854 39.8675 14.8014 42.044 15.8783C43.2927 16.4854 44.0144 16.6343 45.6182 16.6458C47.3938 16.6572 48.7914 16.2105 50.2578 15.1565C52.6864 13.4267 54.0267 10.2306 53.5112 7.34377C53.2019 5.53377 52.4687 4.11327 51.2086 2.8646C50.7733 2.42929 50.3838 2.07416 50.3265 2.07416C50.2807 2.07416 50.0974 1.9596 49.9141 1.81068C49.6048 1.5472 48.2759 0.962959 47.474 0.72239C46.9013 0.550556 45.3776 0.481821 44.4956 0.573467ZM46.8783 4.26219C47.2335 4.38821 47.6344 4.52568 47.749 4.5715C47.9781 4.64023 48.4592 5.01827 48.9289 5.49941C49.7079 6.31276 50.1661 7.71035 50.0859 9.02776C50.0516 9.48598 49.9714 9.9213 49.9141 10.0015C49.8454 10.0817 49.7652 10.2993 49.7193 10.4712C49.6735 10.6545 49.5361 10.9065 49.4215 11.044C49.2955 11.17 49.1924 11.3418 49.1924 11.4105C49.1924 11.6053 47.8177 12.7165 47.5657 12.7279C47.5199 12.7279 47.348 12.7852 47.1647 12.8654C46.6951 13.0487 46.5805 13.0716 45.7557 13.1403C44.4841 13.2549 43.4531 12.8883 42.4794 11.9833C41.8722 11.422 41.1505 10.4024 41.162 10.1275C41.1734 10.0702 41.1161 9.86402 41.0474 9.64636C40.8641 9.10795 40.9901 7.66453 41.2765 6.90846C41.5056 6.28985 41.5629 6.18675 42.0899 5.59105C43.2698 4.22783 45.2631 3.67796 46.8783 4.26219Z" fill="#1596EC"/>
<path d="M71.3591 0.584736C70.4655 0.733659 69.8813 0.905494 69.8355 1.04296C69.8125 1.10024 69.7553 1.13461 69.7094 1.10024C69.572 1.02005 68.6899 1.46682 67.9224 2.0167C66.731 2.87587 65.952 3.81524 65.3219 5.16701C64.5658 6.75935 64.3596 8.55789 64.7148 10.2648C64.9095 11.1698 65.3219 12.2695 65.4708 12.2695C65.5281 12.2695 65.5739 12.3497 65.5739 12.4414C65.5739 12.9569 67.4412 15.0189 68.2546 15.4084C68.4722 15.5115 68.6899 15.649 68.7243 15.6948C68.8044 15.8322 70.1333 16.3248 70.9008 16.5081C71.6569 16.6914 73.4898 16.6685 74.4979 16.4509C75.2654 16.2905 76.9953 15.5344 77.3847 15.1793C77.4764 15.0876 77.6024 15.0189 77.6482 15.0189C77.694 15.0189 78.0492 15.3053 78.4272 15.6375C78.8053 15.9926 79.2749 16.3019 79.4811 16.3477C79.6759 16.3821 79.8935 16.4738 79.9737 16.531C80.0539 16.5883 80.2258 16.6227 80.3747 16.5998L80.6382 16.5654L80.6725 8.56934C80.6954 0.802393 80.6954 0.584736 80.4778 0.584736C79.8935 0.584736 79.0458 0.997139 78.4272 1.58138C77.7284 2.23435 77.6597 2.26872 77.3847 2.02815C77.064 1.74176 75.1509 0.813848 74.8874 0.813848C74.7499 0.813848 74.4979 0.75657 74.3261 0.687836C73.9022 0.527456 72.0808 0.458723 71.3591 0.584736ZM73.9366 4.20473C74.8989 4.53694 75.254 4.7546 75.8268 5.3503C77.717 7.28631 77.694 9.96694 75.7695 11.9144C75.4258 12.2695 75.0822 12.5674 75.0249 12.5788C74.9561 12.5903 74.5781 12.7392 74.1772 12.911C73.5242 13.1745 73.318 13.2089 72.4588 13.1631C71.634 13.1287 71.3476 13.06 70.7061 12.7392C69.7209 12.2581 68.9534 11.502 68.5066 10.5626C68.1744 9.86384 68.1515 9.71491 68.1515 8.60371C68.1515 7.6758 68.1973 7.29776 68.3691 6.94264C68.4837 6.69061 68.6326 6.3584 68.7128 6.19802C68.8961 5.79707 69.824 4.91498 70.351 4.64005C70.5915 4.52549 70.8092 4.39948 70.8436 4.36511C71.1414 4.04435 73.1691 3.94125 73.9366 4.20473Z" fill="#1596EC"/>
<path d="M55.7565 0.710775C55.6419 0.825333 55.6075 2.55514 55.6075 8.55791C55.6075 12.7965 55.6419 16.3363 55.6763 16.4394C55.7794 16.7029 56.1918 16.6685 56.902 16.3478C57.7383 15.9812 58.3798 15.374 58.7693 14.5836L59.1015 13.9306L59.1703 10.8376C59.2046 9.1307 59.2734 7.61855 59.3192 7.45817C59.6056 6.50735 60.1096 5.73982 60.8657 5.12121C61.6103 4.52552 61.7822 4.44533 63.363 3.96419C63.4547 3.92982 63.5005 3.50596 63.5005 2.5666C63.5005 0.848244 63.4547 0.584763 63.1339 0.584763C62.7444 0.584763 61.6791 0.859699 61.6791 0.951344C61.6791 1.00862 61.5989 1.04299 61.5072 1.04299C61.3468 1.04299 60.7053 1.37521 60.2815 1.67305C60.1669 1.74179 60.1096 1.84489 60.1554 1.89071C60.2013 1.93653 60.1669 1.93653 60.0638 1.90217C59.9607 1.8678 59.743 1.99381 59.5025 2.24584C59.1244 2.63533 58.7006 2.78425 58.7006 2.52077C58.7006 2.46349 58.4486 2.13128 58.1278 1.79906C57.3144 0.939889 56.0887 0.378561 55.7565 0.710775Z" fill="#1596EC"/>
</svg>
