<svg width="128" height="44" viewBox="0 0 128 44" fill="none" xmlns="http://www.w3.org/2000/svg">
<rect x="0.5" y="0.5" width="127" height="43" rx="21.5" fill="#0D1119"/>
<path d="M32.2419 21.1447C32.2172 18.4725 34.486 17.1724 34.5898 17.1119C33.3049 15.2854 31.3133 15.0358 30.6134 15.0159C28.9408 14.8443 27.3182 15.9918 26.4662 15.9918C25.5971 15.9918 24.285 15.0325 22.8708 15.0607C21.051 15.0881 19.3485 16.1153 18.4148 17.7105C16.4879 20.9632 17.925 25.743 19.7712 28.3721C20.6947 29.6597 21.7738 31.0974 23.1863 31.0468C24.5681 30.9913 25.0843 30.1879 26.7519 30.1879C28.4042 30.1879 28.8889 31.0468 30.3294 31.0145C31.8125 30.9913 32.7462 29.7211 33.6374 28.4219C34.7046 26.946 35.1332 25.4926 35.1502 25.418C35.1153 25.4064 32.27 24.3476 32.2419 21.1447Z" fill="white"/>
<path d="M29.5207 13.2864C30.2639 12.3802 30.7725 11.1473 30.6313 9.89615C29.5556 9.94258 28.2103 10.6216 27.4356 11.5079C26.7502 12.289 26.1379 13.5691 26.2961 14.773C27.5045 14.8609 28.7452 14.1785 29.5207 13.2864Z" fill="white"/>
<path d="M48.3328 13.0402C48.3328 14.0161 48.0327 14.7507 47.4332 15.244C46.8779 15.6992 46.0887 15.9272 45.0666 15.9272C44.5597 15.9272 44.126 15.9056 43.7629 15.8625V10.5305C44.2366 10.4558 44.7468 10.4177 45.2979 10.4177C46.2715 10.4177 47.0054 10.6242 47.5003 11.0371C48.0548 11.5038 48.3328 12.1713 48.3328 13.0402ZM47.3932 13.0642C47.3932 12.4316 47.2214 11.9466 46.8779 11.6083C46.5343 11.2709 46.0326 11.1017 45.3718 11.1017C45.0912 11.1017 44.8523 11.12 44.6541 11.1581V15.2116C44.7638 15.2282 44.9645 15.2357 45.2562 15.2357C45.9382 15.2357 46.4646 15.0508 46.8353 14.681C47.2061 14.3112 47.3932 13.7723 47.3932 13.0642Z" fill="white"/>
<path d="M53.3151 13.8926C53.3151 14.4937 53.1391 14.9862 52.787 15.3725C52.4179 15.7697 51.929 15.9678 51.3184 15.9678C50.73 15.9678 50.2614 15.778 49.9119 15.3966C49.5632 15.016 49.3889 14.536 49.3889 13.9572C49.3889 13.352 49.5683 12.8553 49.9289 12.4698C50.2895 12.0843 50.7742 11.8911 51.3847 11.8911C51.9732 11.8911 52.446 12.0809 52.804 12.4615C53.1442 12.8313 53.3151 13.3089 53.3151 13.8926ZM52.3907 13.9208C52.3907 13.5601 52.3108 13.2508 52.1518 12.993C51.9647 12.6812 51.6985 12.5254 51.3524 12.5254C50.9944 12.5254 50.7223 12.6812 50.5352 12.993C50.3753 13.2508 50.2963 13.5651 50.2963 13.9365C50.2963 14.2972 50.3762 14.6064 50.5352 14.8643C50.7283 15.176 50.997 15.3319 51.3439 15.3319C51.6841 15.3319 51.9511 15.1735 52.1433 14.856C52.3082 14.5932 52.3907 14.2814 52.3907 13.9208Z" fill="white"/>
<path d="M59.9955 11.9707L58.7412 15.8791H57.9249L57.4053 14.1819C57.2735 13.7582 57.1664 13.3371 57.083 12.9192H57.0669C56.9895 13.3487 56.8823 13.769 56.7446 14.1819L56.1927 15.8791H55.367L54.1875 11.9707H55.1034L55.5566 13.8287C55.6663 14.2681 55.7564 14.6868 55.8287 15.0832H55.8449C55.9112 14.7565 56.0209 14.3403 56.1757 13.837L56.7446 11.9715H57.4708L58.0159 13.7972C58.1477 14.2424 58.2548 14.6711 58.3373 15.084H58.362C58.4224 14.6819 58.5133 14.2532 58.6341 13.7972L59.1205 11.9715H59.9955V11.9707Z" fill="white"/>
<path d="M64.6155 15.8791H63.7244V13.6405C63.7244 12.9506 63.4556 12.6057 62.9165 12.6057C62.652 12.6057 62.4386 12.7002 62.2728 12.8901C62.1086 13.08 62.0253 13.3038 62.0253 13.56V15.8782H61.1341V13.0874C61.1341 12.7442 61.1231 12.3719 61.1018 11.969H61.885L61.9267 12.58H61.9513C62.0551 12.3901 62.2098 12.2334 62.4131 12.1083C62.6546 11.9623 62.925 11.8885 63.2209 11.8885C63.5951 11.8885 63.9063 12.0063 64.1538 12.2426C64.4616 12.5319 64.6155 12.9639 64.6155 13.5376V15.8791Z" fill="white"/>
<path d="M67.0732 15.8791H66.1829V10.1773H67.0732V15.8791Z" fill="white"/>
<path d="M72.3197 13.8926C72.3197 14.4937 72.1437 14.9862 71.7916 15.3725C71.4226 15.7697 70.9328 15.9678 70.3231 15.9678C69.7337 15.9678 69.2652 15.778 68.9165 15.3966C68.5679 15.016 68.3936 14.536 68.3936 13.9572C68.3936 13.352 68.573 12.8553 68.9335 12.4698C69.2941 12.0843 69.7788 11.8911 70.3885 11.8911C70.9778 11.8911 71.4498 12.0809 71.8087 12.4615C72.1488 12.8313 72.3197 13.3089 72.3197 13.8926ZM71.3945 13.9208C71.3945 13.5601 71.3146 13.2508 71.1556 12.993C70.9693 12.6812 70.7023 12.5254 70.3571 12.5254C69.9982 12.5254 69.7261 12.6812 69.5399 12.993C69.38 13.2508 69.3009 13.5651 69.3009 13.9365C69.3009 14.2972 69.3808 14.6064 69.5399 14.8643C69.7329 15.176 70.0016 15.3319 70.3486 15.3319C70.6887 15.3319 70.9549 15.1735 71.1471 14.856C71.3129 14.5932 71.3945 14.2814 71.3945 13.9208Z" fill="white"/>
<path d="M76.6332 15.8791H75.833L75.7667 15.4289H75.742C75.4682 15.7879 75.0779 15.9678 74.5711 15.9678C74.1927 15.9678 73.8865 15.8493 73.6561 15.6138C73.4469 15.3999 73.3423 15.1337 73.3423 14.8179C73.3423 14.3403 73.5464 13.9763 73.9571 13.7243C74.367 13.4722 74.9435 13.3487 75.6859 13.3545V13.2815C75.6859 12.7666 75.4087 12.5096 74.8534 12.5096C74.458 12.5096 74.1093 12.6066 73.8083 12.799L73.6272 12.2285C73.9996 12.0038 74.4597 11.8911 75.0022 11.8911C76.0499 11.8911 76.5754 12.43 76.5754 13.5079V14.9472C76.5754 15.3377 76.595 15.6486 76.6332 15.8791ZM75.708 14.536V13.9332C74.725 13.9166 74.2335 14.1794 74.2335 14.7208C74.2335 14.9248 74.2896 15.0774 74.4044 15.1793C74.5192 15.2813 74.6655 15.3319 74.8398 15.3319C75.0354 15.3319 75.2182 15.2714 75.3849 15.1512C75.5524 15.0301 75.6553 14.8767 75.6936 14.6885C75.7029 14.6462 75.708 14.5948 75.708 14.536Z" fill="white"/>
<path d="M81.6973 15.8791H80.9064L80.8648 15.2515H80.8401C80.5875 15.729 80.1573 15.9678 79.5526 15.9678C79.0696 15.9678 78.6674 15.7829 78.3485 15.4131C78.0296 15.0434 77.8706 14.5633 77.8706 13.9738C77.8706 13.3412 78.0432 12.8288 78.3902 12.4375C78.7261 12.0726 79.1377 11.8902 79.6275 11.8902C80.1658 11.8902 80.5425 12.0668 80.7568 12.4209H80.7738V10.1773H81.6658V14.8261C81.6658 15.2067 81.676 15.5574 81.6973 15.8791ZM80.7738 14.2308V13.5791C80.7738 13.4664 80.7653 13.3752 80.7491 13.3055C80.6989 13.0966 80.5909 12.9208 80.4268 12.7791C80.261 12.6373 80.0612 12.566 79.8307 12.566C79.4982 12.566 79.238 12.6945 79.0467 12.9523C78.857 13.2102 78.7609 13.5393 78.7609 13.9415C78.7609 14.3278 78.8519 14.6412 79.0348 14.8825C79.2278 15.1395 79.488 15.268 79.8137 15.268C80.1062 15.268 80.3401 15.1611 80.5178 14.9464C80.6896 14.7482 80.7738 14.5094 80.7738 14.2308Z" fill="white"/>
<path d="M89.319 13.8926C89.319 14.4937 89.143 14.9862 88.7909 15.3725C88.4218 15.7697 87.9337 15.9678 87.3223 15.9678C86.7347 15.9678 86.2662 15.778 85.9158 15.3966C85.5672 15.016 85.3928 14.536 85.3928 13.9572C85.3928 13.352 85.5723 12.8553 85.9328 12.4698C86.2934 12.0843 86.7781 11.8911 87.3895 11.8911C87.9771 11.8911 88.4508 12.0809 88.8079 12.4615C89.1481 12.8313 89.319 13.3089 89.319 13.8926ZM88.3955 13.9208C88.3955 13.5601 88.3156 13.2508 88.1565 12.993C87.9686 12.6812 87.7033 12.5254 87.3563 12.5254C86.9992 12.5254 86.7271 12.6812 86.5391 12.993C86.3793 13.2508 86.3002 13.5651 86.3002 13.9365C86.3002 14.2972 86.3801 14.6064 86.5391 14.8643C86.7322 15.176 87.0009 15.3319 87.3478 15.3319C87.688 15.3319 87.9558 15.1735 88.148 14.856C88.3122 14.5932 88.3955 14.2814 88.3955 13.9208Z" fill="white"/>
<path d="M94.1108 15.8791H93.2204V13.6405C93.2204 12.9506 92.9517 12.6057 92.4117 12.6057C92.1473 12.6057 91.9338 12.7002 91.7689 12.8901C91.6039 13.08 91.5214 13.3038 91.5214 13.56V15.8782H90.6294V13.0874C90.6294 12.7442 90.6192 12.3719 90.5979 11.969H91.3802L91.4219 12.58H91.4466C91.5512 12.3901 91.7059 12.2334 91.9083 12.1083C92.1507 11.9623 92.4202 11.8885 92.717 11.8885C93.0903 11.8885 93.4016 12.0063 93.649 12.2426C93.9577 12.5319 94.1108 12.9639 94.1108 13.5376V15.8791Z" fill="white"/>
<path d="M100.108 12.6215H99.1271V14.5202C99.1271 15.0027 99.3014 15.244 99.6467 15.244C99.8065 15.244 99.9392 15.2307 100.044 15.2034L100.067 15.8625C99.8907 15.9272 99.6594 15.9595 99.3745 15.9595C99.0225 15.9595 98.7487 15.855 98.5505 15.6461C98.3515 15.4372 98.2529 15.0856 98.2529 14.5923V12.6215H97.667V11.9706H98.2529V11.2543L99.1262 10.9973V11.9698H100.108V12.6215H100.108Z" fill="white"/>
<path d="M104.827 15.8791H103.935V13.6571C103.935 12.9565 103.666 12.6058 103.128 12.6058C102.714 12.6058 102.432 12.8089 102.277 13.2152C102.251 13.3006 102.236 13.405 102.236 13.5277V15.8783H101.345V10.1773H102.236V12.5328H102.253C102.533 12.1042 102.935 11.8902 103.457 11.8902C103.826 11.8902 104.131 12.008 104.373 12.2443C104.675 12.5386 104.827 12.9764 104.827 13.5551V15.8791Z" fill="white"/>
<path d="M109.693 13.74C109.693 13.8959 109.681 14.0269 109.66 14.1338H106.987C106.999 14.5202 107.127 14.8145 107.374 15.0185C107.601 15.2009 107.892 15.2921 108.249 15.2921C108.645 15.2921 109.005 15.2307 109.33 15.1072L109.47 15.7108C109.09 15.8716 108.642 15.9521 108.124 15.9521C107.504 15.9521 107.015 15.7738 106.661 15.4173C106.305 15.0608 106.129 14.5824 106.129 13.9821C106.129 13.3926 106.294 12.9018 106.624 12.5104C106.97 12.0925 107.436 11.8836 108.026 11.8836C108.602 11.8836 109.04 12.0925 109.336 12.5104C109.575 12.8421 109.693 13.2525 109.693 13.74ZM108.843 13.5153C108.85 13.2574 108.791 13.0352 108.67 12.8479C108.516 12.6066 108.28 12.4855 107.961 12.4855C107.67 12.4855 107.433 12.6033 107.252 12.8396C107.104 13.0278 107.016 13.2525 106.987 13.5153H108.843Z" fill="white"/>
<path d="M52.24 30.862H50.3088L49.2509 27.621H45.5739L44.5662 30.862H42.686L46.329 19.8282H48.5791L52.24 30.862ZM48.932 26.2613L47.9754 23.3801C47.8742 23.0858 47.6845 22.3926 47.4048 21.3015H47.3707C47.2593 21.7708 47.0799 22.4639 46.8333 23.3801L45.8936 26.2613H48.932Z" fill="white"/>
<path d="M61.6085 26.7861C61.6085 28.1392 61.2335 29.2088 60.4835 29.9939C59.8117 30.6929 58.9775 31.0419 57.9817 31.0419C56.9068 31.0419 56.1347 30.6655 55.6644 29.9127H55.6304V34.1038H53.8174V25.525C53.8174 24.6743 53.7945 23.8013 53.7502 22.9058H55.3447L55.4459 24.1669H55.4799C56.0845 23.2167 57.0021 22.7425 58.2334 22.7425C59.196 22.7425 59.9996 23.1131 60.6425 23.8552C61.2871 24.598 61.6085 25.5747 61.6085 26.7861ZM59.7615 26.8508C59.7615 26.0764 59.583 25.4379 59.2241 24.9355C58.8321 24.4115 58.3057 24.1495 57.6458 24.1495C57.1985 24.1495 56.792 24.2954 56.4289 24.5831C56.065 24.8733 55.8269 25.2522 55.7155 25.7215C55.6593 25.9404 55.6313 26.1195 55.6313 26.2604V27.587C55.6313 28.1657 55.8132 28.6541 56.1772 29.0529C56.5412 29.4517 57.014 29.6507 57.5956 29.6507C58.2785 29.6507 58.81 29.3936 59.1901 28.8812C59.571 28.368 59.7615 27.6915 59.7615 26.8508Z" fill="white"/>
<path d="M70.9942 26.7861C70.9942 28.1392 70.6192 29.2088 69.8683 29.9939C69.1973 30.6929 68.3631 31.0419 67.3673 31.0419C66.2925 31.0419 65.5203 30.6655 65.0509 29.9127H65.0169V34.1038H63.2039V25.525C63.2039 24.6743 63.1809 23.8013 63.1367 22.9058H64.7312L64.8324 24.1669H64.8664C65.4701 23.2167 66.3877 22.7425 67.6199 22.7425C68.5817 22.7425 69.3853 23.1131 70.0298 23.8552C70.6719 24.598 70.9942 25.5747 70.9942 26.7861ZM69.1472 26.8508C69.1472 26.0764 68.9677 25.4379 68.6089 24.9355C68.2168 24.4115 67.6922 24.1495 67.0314 24.1495C66.5833 24.1495 66.1777 24.2954 65.8137 24.5831C65.4497 24.8733 65.2125 25.2522 65.1011 25.7215C65.0458 25.9404 65.0169 26.1195 65.0169 26.2604V27.587C65.0169 28.1657 65.1989 28.6541 65.5611 29.0529C65.9251 29.4509 66.3979 29.6507 66.9813 29.6507C67.6641 29.6507 68.1956 29.3936 68.5757 28.8812C68.9567 28.368 69.1472 27.6915 69.1472 26.8508Z" fill="white"/>
<path d="M81.488 27.7677C81.488 28.7063 81.1538 29.4699 80.4828 30.0594C79.7456 30.7036 78.7192 31.0253 77.4002 31.0253C76.1825 31.0253 75.2063 30.7965 74.4673 30.338L74.8874 28.8647C75.6833 29.3339 76.5567 29.5694 77.5082 29.5694C78.1911 29.5694 78.7226 29.4185 79.1044 29.1184C79.4845 28.8182 79.6741 28.4153 79.6741 27.9128C79.6741 27.4651 79.5176 27.0879 79.2039 26.7819C78.8918 26.476 78.3705 26.1916 77.6426 25.9288C75.6612 25.2083 74.6714 24.1528 74.6714 22.7649C74.6714 21.8578 75.0183 21.1141 75.7131 20.5354C76.4053 19.9558 77.3288 19.6665 78.4836 19.6665C79.5134 19.6665 80.3689 19.8414 81.0517 20.1905L80.5985 21.6315C79.9607 21.2932 79.2396 21.1241 78.4326 21.1241C77.7948 21.1241 77.2965 21.2774 76.9393 21.5826C76.6374 21.8553 76.4861 22.1878 76.4861 22.5816C76.4861 23.0178 76.6587 23.3784 77.0056 23.662C77.3075 23.924 77.856 24.2075 78.652 24.5135C79.6256 24.8957 80.3408 25.3426 80.8009 25.855C81.2592 26.3657 81.488 27.005 81.488 27.7677Z" fill="white"/>
<path d="M87.4823 24.2324H85.4839V28.0952C85.4839 29.0777 85.836 29.5686 86.5418 29.5686C86.8658 29.5686 87.1345 29.5412 87.3471 29.4865L87.3972 30.8288C87.0401 30.959 86.5698 31.0245 85.9873 31.0245C85.2713 31.0245 84.7118 30.8114 84.3078 30.3861C83.9056 29.9599 83.7032 29.2452 83.7032 28.2411V24.2307H82.5127V22.9041H83.7032V21.4474L85.4839 20.9234V22.9041H87.4823V24.2324Z" fill="white"/>
<path d="M96.4988 26.8184C96.4988 28.0414 96.1399 29.0454 95.4239 29.8306C94.673 30.639 93.6764 31.0419 92.434 31.0419C91.2367 31.0419 90.2834 30.6547 89.5725 29.8803C88.8616 29.1059 88.5061 28.1284 88.5061 26.9502C88.5061 25.7173 88.8718 24.7075 89.6056 23.9223C90.3378 23.1363 91.3259 22.7433 92.5683 22.7433C93.7657 22.7433 94.7291 23.1305 95.4562 23.9057C96.1518 24.6577 96.4988 25.6286 96.4988 26.8184ZM94.6177 26.8756C94.6177 26.1419 94.457 25.5126 94.1313 24.9877C93.7512 24.3526 93.2078 24.0359 92.5037 24.0359C91.7749 24.0359 91.2213 24.3535 90.8412 24.9877C90.5155 25.5134 90.3548 26.1526 90.3548 26.9088C90.3548 27.6425 90.5155 28.2718 90.8412 28.7958C91.2333 29.4309 91.7809 29.7477 92.4876 29.7477C93.1798 29.7477 93.7231 29.4243 94.1152 28.7793C94.4494 28.2445 94.6177 27.6086 94.6177 26.8756Z" fill="white"/>
<path d="M102.392 24.4604C102.212 24.4281 102.021 24.4115 101.82 24.4115C101.182 24.4115 100.689 24.6461 100.342 25.1162C100.04 25.5308 99.8891 26.0548 99.8891 26.6874V30.862H98.0769L98.0939 25.4114C98.0939 24.4944 98.0709 23.6595 98.0259 22.9067H99.605L99.6714 24.4289H99.7215C99.9129 23.9057 100.215 23.4845 100.628 23.1687C101.032 22.8843 101.468 22.7425 101.938 22.7425C102.106 22.7425 102.257 22.7541 102.392 22.7748V24.4604Z" fill="white"/>
<path d="M110.5 26.5075C110.5 26.8242 110.479 27.0912 110.434 27.3093H104.995C105.016 28.0953 105.279 28.6964 105.784 29.1109C106.242 29.4815 106.835 29.6672 107.563 29.6672C108.368 29.6672 109.103 29.5421 109.764 29.2908L110.048 30.5179C109.275 30.8462 108.364 31.0096 107.312 31.0096C106.047 31.0096 105.053 30.6464 104.331 29.921C103.609 29.1955 103.248 28.2213 103.248 26.9992C103.248 25.7994 103.584 24.8004 104.257 24.0036C104.961 23.1529 105.912 22.7276 107.11 22.7276C108.286 22.7276 109.176 23.1529 109.781 24.0036C110.259 24.6793 110.5 25.515 110.5 26.5075ZM108.771 26.049C108.783 25.525 108.665 25.0723 108.419 24.6901C108.105 24.1984 107.623 23.953 106.974 23.953C106.382 23.953 105.9 24.1926 105.531 24.6735C105.229 25.0557 105.05 25.5142 104.995 26.0482H108.771V26.049Z" fill="white"/>
</svg>
