<svg width="17" height="16" viewBox="0 0 17 16" fill="none" xmlns="http://www.w3.org/2000/svg">
<path d="M8.67258 16C4.2543 16 0.672577 12.4183 0.672577 8C0.672577 3.58172 4.2543 0 8.67258 0C13.0909 0 16.6726 3.58172 16.6726 8C16.6726 12.4183 13.0909 16 8.67258 16Z" fill="#FFDD67"/>
<path d="M6.08593 9.22666C6.82231 9.22666 7.41926 8.62971 7.41926 7.89333C7.41926 7.15695 6.82231 6.56 6.08593 6.56C5.34955 6.56 4.75259 7.15695 4.75259 7.89333C4.75259 8.62971 5.34955 9.22666 6.08593 9.22666Z" fill="#664E27"/>
<path d="M13.7926 6.79997C12.9392 6.07997 11.7926 5.75997 10.6726 5.97331C10.5126 5.99997 10.3792 5.43997 10.5659 5.38664C11.8459 5.14664 13.1792 5.51997 14.1659 6.34664C14.3259 6.47997 13.8992 6.90664 13.7926 6.79997ZM6.67256 4.47997C5.55256 4.29331 4.4059 4.58664 3.55256 5.30664C3.4459 5.41331 3.01923 4.98664 3.17923 4.85331C4.1659 3.99997 5.49923 3.65331 6.77923 3.89331C6.9659 3.94664 6.83256 4.50664 6.67256 4.47997Z" fill="#917524"/>
<path d="M13.5259 8.61335C13.0726 7.68001 12.3526 7.20001 11.6593 7.20001C10.9659 7.20001 10.2726 7.68001 9.79259 8.61335C9.73926 8.72001 9.97926 8.88001 10.1126 8.77335C10.5659 8.42668 11.0993 8.29335 11.6593 8.29335C12.2193 8.29335 12.7526 8.42668 13.2059 8.77335C13.3126 8.85335 13.5526 8.69335 13.5259 8.61335ZM11.8993 10.72C10.0593 11.68 7.52592 11.4933 6.80592 11.4933C6.61926 11.4933 6.48592 11.5733 6.53926 11.7333C7.07259 13.6 11.0726 13.6 12.1659 11.0133C12.2993 10.72 12.0859 10.64 11.8993 10.72Z" fill="#664E27"/>
</svg>
