<svg width="16" height="16" viewBox="0 0 16 16" fill="none" xmlns="http://www.w3.org/2000/svg">
<path d="M8 16C12.4183 16 16 12.4183 16 8C16 3.58172 12.4183 0 8 0C3.58172 0 0 3.58172 0 8C0 12.4183 3.58172 16 8 16Z" fill="#FFDD67"/>
<path opacity="0.8" d="M13.0133 11.2C14.1915 11.2 15.1467 10.2449 15.1467 9.06668C15.1467 7.88848 14.1915 6.93335 13.0133 6.93335C11.8351 6.93335 10.88 7.88848 10.88 9.06668C10.88 10.2449 11.8351 11.2 13.0133 11.2Z" fill="#FF717F"/>
<path opacity="0.8" d="M2.98667 11.2C4.16487 11.2 5.12 10.2449 5.12 9.06668C5.12 7.88848 4.16487 6.93335 2.98667 6.93335C1.80846 6.93335 0.853333 7.88848 0.853333 9.06668C0.853333 10.2449 1.80846 11.2 2.98667 11.2Z" fill="#FF717F"/>
<path d="M11.36 10.2134C9.19997 11.7334 6.79998 11.7067 4.63997 10.2134C4.37331 10.0267 4.15998 10.3467 4.31998 10.64C4.98664 11.7067 6.29331 12.6934 7.99998 12.6934C9.70664 12.6934 11.0133 11.7334 11.68 10.64C11.84 10.3467 11.6266 10.0267 11.36 10.2134Z" fill="#664E27"/>
<path d="M7.06665 6.64C6.55998 5.28 5.81331 4.58667 5.06665 4.58667C4.31998 4.58667 3.57331 5.28 3.06665 6.64C3.01331 6.77334 3.27998 7.01334 3.41331 6.88C3.89331 6.37334 4.47998 6.16 5.06665 6.16C5.65331 6.16 6.23998 6.37334 6.71998 6.88C6.87998 7.01334 7.11998 6.77334 7.06665 6.64Z" fill="#664E27"/>
<path d="M12.9067 6.64C12.4 5.28 11.6533 4.58667 10.9067 4.58667C10.16 4.58667 9.41334 5.28 8.90667 6.64C8.85334 6.77334 9.12001 7.01334 9.25334 6.88C9.73334 6.37334 10.32 6.16 10.9067 6.16C11.4933 6.16 12.08 6.37334 12.56 6.88C12.6933 7.01334 12.96 6.77334 12.9067 6.64Z" fill="#664E27"/>
</svg>
