<svg width="16" height="16" viewBox="0 0 16 16" fill="none" xmlns="http://www.w3.org/2000/svg">
<path d="M8 0C12.4267 0 16 3.57333 16 8C16 12.4267 12.4267 16 8 16C3.57333 16 0 12.4267 0 8C0 3.57333 3.57333 0 8 0Z" fill="#FFDD67"/>
<path d="M9.0133 4.93338C8.42663 5.22671 7.54663 5.22671 6.95997 4.93338C6.34663 4.61338 5.5733 4.40005 4.63997 4.32005C3.7333 4.24005 1.83997 4.24005 0.906633 4.58671C0.799966 4.61338 0.693299 4.66671 0.586633 4.72005C0.559966 4.74671 0.533299 4.77338 0.533299 4.88005V5.01338C0.533299 5.28005 0.506633 5.17338 0.693299 5.28005C1.06663 5.49338 1.27997 6.05338 1.38663 6.82671C1.54663 7.94671 2.10663 8.66671 2.98663 8.98671C3.8133 9.30671 4.74663 9.28005 5.5733 8.96005C6.02663 8.77338 6.42663 8.50671 6.74663 8.02671C7.30663 7.22671 7.11997 6.72005 7.4133 6.02671C7.6533 5.41338 8.34663 5.41338 8.6133 6.02671C8.90663 6.72005 8.71997 7.22671 9.27997 8.02671C9.59997 8.48005 9.99997 8.77338 10.4533 8.96005C11.28 9.28005 12.2133 9.30671 13.04 8.98671C13.9466 8.64005 14.48 7.94671 14.64 6.82671C14.7466 6.05338 14.96 5.49338 15.3333 5.28005C15.52 5.17338 15.4933 5.28005 15.4933 5.01338V4.88005C15.4933 4.77338 15.4933 4.74671 15.4133 4.72005C15.3066 4.66671 15.2 4.61338 15.0933 4.58671C14.1333 4.24005 12.24 4.24005 11.36 4.32005C10.4266 4.40005 9.6533 4.61338 9.0133 4.93338Z" fill="#494949"/>
<path d="M11.36 10.7466C9.20001 12.2666 6.80001 12.24 4.64001 10.7466C4.37334 10.56 4.16001 10.88 4.32001 11.1733C4.98667 12.24 6.29334 13.2266 8.00001 13.2266C9.70667 13.2266 11.0133 12.2666 11.68 11.1733C11.84 10.88 11.6267 10.56 11.36 10.7466Z" fill="#664E27"/>
</svg>
