<svg width="16" height="16" viewBox="0 0 16 16" fill="none" xmlns="http://www.w3.org/2000/svg">
<path d="M8 16C12.4183 16 16 12.4183 16 8C16 3.58172 12.4183 0 8 0C3.58172 0 0 3.58172 0 8C0 12.4183 3.58172 16 8 16Z" fill="#FFDD67"/>
<path d="M12.72 8.63997C12.6133 8.50664 12.4267 8.5333 12.2133 8.5333H3.78667C3.57333 8.5333 3.38667 8.50664 3.28 8.63997C2.24 9.97331 3.46667 13.8666 8 13.8666C12.5333 13.8666 13.76 9.97331 12.72 8.63997Z" fill="#664E27"/>
<path d="M8.48 10.5867C8.32 10.5867 8.08 10.72 8.18667 11.12C8.24 11.3067 8.50667 11.5467 8.50667 11.8667C8.50667 12.5067 7.49333 12.5067 7.49333 11.8667C7.49333 11.5467 7.76 11.3333 7.81333 11.12C7.89333 10.7467 7.65333 10.5867 7.52 10.5867C7.09333 10.5867 6.42667 11.04 6.42667 11.8133C6.42667 12.6667 7.14667 13.36 8.02667 13.36C8.90667 13.36 9.62667 12.6667 9.62667 11.8133C9.6 11.0667 8.90667 10.6133 8.48 10.5867Z" fill="#4C3526"/>
<path d="M5.94666 12.9867C6.53332 13.2533 7.22666 13.3867 7.99999 13.3867C8.77332 13.3867 9.46666 13.2267 10.0533 12.9867C9.49332 12.6933 8.79999 12.5333 7.99999 12.5333C7.19999 12.5333 6.50666 12.6933 5.94666 12.9867Z" fill="#FF717F"/>
<path d="M12 9.06665H4.02667C3.46667 9.06665 3.46667 10.1333 4 10.1333H12C12.5333 10.1333 12.5333 9.06665 12 9.06665Z" fill="white"/>
<path d="M15.3067 9.30667C17.2533 11.36 14.6133 14.1333 12.6667 12.08C11.2533 10.5867 11.1733 7.73334 11.1733 7.73334C11.1733 7.73334 13.8933 7.81334 15.3067 9.30667ZM3.33334 12.08C1.38667 14.1333 -1.25333 11.36 0.693336 9.30667C2.10667 7.81334 4.82667 7.73334 4.82667 7.73334C4.82667 7.73334 4.74667 10.5867 3.33334 12.08Z" fill="#65B1EF"/>
<path d="M7.06668 7.11998C6.56001 5.75998 5.81335 5.06665 5.06668 5.06665C4.32001 5.06665 3.57335 5.75998 3.06668 7.11998C3.01334 7.25332 3.28001 7.49332 3.41335 7.35998C3.89335 6.85332 4.48001 6.63998 5.06668 6.63998C5.65335 6.63998 6.24001 6.85332 6.72001 7.35998C6.88001 7.49332 7.12001 7.25332 7.06668 7.11998ZM12.9067 7.11998C12.4 5.75998 11.6533 5.06665 10.9067 5.06665C10.16 5.06665 9.41335 5.75998 8.90668 7.11998C8.85335 7.25332 9.12001 7.49332 9.25335 7.35998C9.73335 6.85332 10.32 6.63998 10.9067 6.63998C11.4933 6.63998 12.08 6.85332 12.56 7.35998C12.6933 7.49332 12.96 7.25332 12.9067 7.11998Z" fill="#664E27"/>
</svg>
