<svg width="51" height="42" viewBox="0 0 51 42" fill="none" xmlns="http://www.w3.org/2000/svg">
<g clip-path="url(#clip0_70_106)">
<path d="M13.2477 32.9417C13.1709 33.1118 13.1266 33.2324 13.0654 33.3436C11.5213 36.0951 9.97061 38.8439 8.43688 41.6035C8.27934 41.8875 8.11399 41.996 7.7911 41.9933C6.0178 41.9745 4.2432 41.9504 2.4712 41.9987C1.56242 42.0241 0.8945 41.7482 0.5 40.8828V34.0509C0.877575 33.2029 1.51945 32.9189 2.41652 32.9283C5.83292 32.9618 9.25062 32.9417 12.6683 32.9417H13.2477Z" fill="#5A078B"/>
<path d="M16.3712 10.5184C17.539 12.5104 19.1092 14.1353 20.8578 15.5727C26.0332 19.8232 31.8022 22.8748 38.2406 24.5412C38.3655 24.5734 38.4944 24.5935 38.6207 24.6229C38.747 24.6537 38.872 24.6899 39.1025 24.7515C37.3656 25.5446 35.6743 26.071 33.9271 26.3925C29.0108 27.2981 24.2872 26.6604 19.7459 24.505C18.9387 24.1219 18.5585 23.5191 18.4322 22.5894C17.4323 23.274 16.6888 22.7435 15.9389 22.1608C10.5148 17.9545 7.37317 12.3898 6.5386 5.45213C6.4748 4.92165 6.43574 4.38716 6.4071 3.85267C6.36673 3.12527 6.66619 2.59614 7.31718 2.28401C10.9888 0.530496 14.84 -0.230388 18.884 0.0603017C21.4528 0.245164 23.9122 0.876109 26.2988 1.86874C27.2336 2.25722 27.6632 2.86539 27.6008 3.89553C27.5604 4.55863 27.5929 5.22708 27.5929 5.89955C28.5095 5.71603 29.3467 5.52447 30.193 5.38381C31.2463 5.20699 32.1525 5.4749 32.9636 6.25588C37.2081 10.3403 39.6753 15.3436 40.4175 21.2619C40.437 21.4106 40.4422 21.562 40.4487 21.712C40.4513 21.7602 40.437 21.8085 40.4175 21.9411C39.8433 21.8192 39.2717 21.7294 38.7184 21.574C32.3361 19.7736 26.5748 16.7636 21.5947 12.2425C20.5297 11.2753 19.6079 10.1728 18.8553 8.92433C18.3515 8.08843 17.4909 7.84999 16.7631 8.3175C16.0418 8.77966 15.879 9.67718 16.3712 10.5184Z" fill="#0090CE"/>
<path d="M50.4922 40.4367C50.487 41.3262 49.8764 41.9772 49.0236 41.9786C45.2023 41.9893 41.3809 41.9826 37.5609 41.9799C37.531 41.9799 37.5023 41.9625 37.4073 41.9317C38.5179 39.9531 39.6063 38.0161 40.6935 36.079C41.2221 35.1373 41.7377 34.1889 42.2897 33.2632C42.3822 33.1065 42.6295 32.9578 42.8066 32.9565C44.8546 32.935 46.9039 32.9364 48.952 32.9457C49.8751 32.9498 50.4883 33.574 50.4935 34.5144C50.5026 36.4889 50.5039 38.4635 50.4922 40.4367Z" fill="#5A078B"/>
<path d="M39.0452 32.9418C38.9475 33.136 38.8941 33.2552 38.8303 33.3678C37.2875 36.1179 35.7472 38.8694 34.1927 41.6129C34.1015 41.771 33.8984 41.9679 33.7461 41.9679C30.6891 41.9893 27.6333 41.984 24.4929 41.984C24.5906 41.7951 24.6583 41.6544 24.7351 41.5178C26.2688 38.781 27.8078 36.0469 29.3337 33.3061C29.4782 33.0463 29.6318 32.9324 29.9378 32.9337C32.8477 32.9471 35.759 32.9418 38.6702 32.9418H39.0452Z" fill="#5A078B"/>
<path d="M26.1152 32.9418C26.0553 33.0891 26.0227 33.1976 25.9693 33.2927C24.4109 36.0724 22.8537 38.852 21.2835 41.625C21.1937 41.7817 20.9854 41.9679 20.8317 41.9692C17.7916 41.9893 14.7515 41.984 11.6189 41.984C11.7296 41.771 11.8012 41.6263 11.8793 41.4856C13.3974 38.7783 14.922 36.0751 16.4271 33.3611C16.6029 33.0436 16.7904 32.931 17.1471 32.9324C19.9763 32.9498 22.8055 32.9418 25.6347 32.9418H26.1152Z" fill="#5A078B"/>
<path d="M45.5759 23.9719C45.5434 24.8105 44.8794 25.4387 44.0148 25.412C43.4628 25.3959 42.9095 25.3557 42.3626 25.2807C41.351 25.1414 40.3446 24.9686 39.3355 24.8091C39.3108 24.7649 39.2847 24.7194 39.26 24.6738C40.6531 24.2559 40.6297 23.1574 40.4904 21.988C41.4031 22.1059 42.2494 22.2197 43.0969 22.3215C43.4511 22.3644 43.8091 22.3751 44.1646 22.4099C45.003 22.493 45.6072 23.1655 45.5759 23.9719Z" fill="#BDBCCA"/>
</g>
<defs>
<clipPath id="clip0_70_106">
<rect width="50" height="42" fill="white" transform="translate(0.5)"/>
</clipPath>
</defs>
</svg>
