<svg width="16" height="16" viewBox="0 0 16 16" fill="none" xmlns="http://www.w3.org/2000/svg">
<path d="M16 8.00143C16 12.4235 12.4304 15.993 8.00839 15.993C3.58637 15.993 0.0167847 12.4235 0.0167847 8.00143C0.0167847 3.57941 3.58637 0.00982666 8.00839 0.00982666C12.4304 0.00982666 16 3.57941 16 8.00143Z" fill="#FFDD67"/>
<path d="M15.9467 2.99336C15.8135 2.27412 15.4139 1.68807 14.748 1.50159C14.0287 1.31512 13.3894 1.58151 12.7767 2.22084C12.4304 1.26185 11.8976 0.542602 11.0452 0.16966C10.1928 -0.203282 9.34033 0.0631051 8.80755 0.729072C8.24814 1.42168 8.03503 2.51386 8.62108 3.92572C9.1805 5.25765 11.6579 7.92152 11.7378 8.00143C11.8444 7.94816 14.6148 6.21664 15.2808 5.3642C15.9467 4.5384 16.0799 3.71261 15.9467 2.99336ZM7.20923 0.729072C6.67646 0.0631051 5.82402 -0.203282 4.97158 0.16966C4.11915 0.542602 3.58637 1.26185 3.24007 2.22084C2.60074 1.60815 1.96141 1.31512 1.24217 1.52823C0.602838 1.7147 0.176619 2.30076 0.0434258 3.02C-0.0897676 3.71261 0.0700645 4.56504 0.709393 5.39084C1.402 6.21664 4.17242 7.94816 4.27898 8.00143C4.35889 7.92152 6.83629 5.25765 7.3957 3.92572C7.98175 2.51386 7.76865 1.44832 7.20923 0.729072Z" fill="#F46767"/>
<path d="M12.537 9.62642C12.537 9.41331 12.4038 9.14692 12.0575 9.06701C11.1251 8.88054 9.76656 8.7207 8.0084 8.7207C6.25025 8.7207 4.89168 8.90717 3.95932 9.06701C3.58638 9.14692 3.47983 9.41331 3.47983 9.62642C3.47983 11.571 4.97159 13.5157 8.0084 13.5157C11.0452 13.489 12.537 11.5444 12.537 9.62642Z" fill="#664E27"/>
<path d="M11.3915 9.67966C10.8054 9.5731 9.58006 9.41327 8.00838 9.41327C6.4367 9.41327 5.21132 9.5731 4.62527 9.67966C4.27896 9.73293 4.25233 9.86613 4.27896 10.0792C4.3056 10.1858 4.3056 10.3456 4.35888 10.5055C4.38552 10.6653 4.4388 10.7452 4.70518 10.7186C5.21132 10.6653 10.8321 10.6653 11.3382 10.7186C11.6046 10.7452 11.6312 10.6653 11.6845 10.5055C11.7112 10.3456 11.7378 10.2124 11.7644 10.0792C11.7644 9.86613 11.7378 9.73293 11.3915 9.67966Z" fill="white"/>
</svg>
