<svg width="31" height="31" viewBox="0 0 31 31" fill="none" xmlns="http://www.w3.org/2000/svg">
<path d="M30.6078 7.00219C30.619 7.04244 30.6248 7.08396 30.6248 7.1257V13.6133C30.6248 13.7828 30.5314 13.9394 30.3797 14.0237L24.7645 17.1588V23.3726C24.7646 23.4557 24.742 23.5374 24.6992 23.6094C24.6564 23.6815 24.5948 23.7414 24.5207 23.783L12.7991 30.3263C12.7722 30.3409 12.743 30.3503 12.7137 30.3605C12.7027 30.364 12.6924 30.3705 12.6808 30.3735C12.5989 30.3944 12.5127 30.3944 12.4308 30.3735C12.4173 30.3701 12.4051 30.3628 12.3923 30.3581C12.3655 30.3486 12.3375 30.3404 12.3119 30.3263L0.592709 23.7829C0.518239 23.7415 0.45636 23.6817 0.413314 23.6097C0.370268 23.5376 0.347579 23.4558 0.347534 23.3726L0.347534 3.90977C0.347534 3.86711 0.353684 3.82571 0.364565 3.78557C0.368232 3.77192 0.376747 3.75953 0.381714 3.74589C0.390821 3.72111 0.399455 3.69565 0.41282 3.6726C0.421926 3.65723 0.435291 3.64485 0.44629 3.63063C0.460364 3.6117 0.473138 3.59221 0.489577 3.57558C0.503652 3.56204 0.521984 3.55195 0.537832 3.54014C0.555572 3.52592 0.571302 3.51055 0.591408 3.49931L6.45184 0.227755C6.52605 0.186345 6.61016 0.164551 6.69577 0.164551C6.78139 0.164551 6.8655 0.186345 6.93971 0.227755L12.7996 3.49931H12.8007C12.8202 3.51124 12.8368 3.52592 12.8544 3.53956C12.8703 3.55138 12.888 3.56204 12.902 3.57512C12.9191 3.59221 12.9313 3.61182 12.9459 3.63063C12.9563 3.64485 12.9703 3.65723 12.9788 3.6726C12.9928 3.69623 13.0007 3.72111 13.0105 3.746C13.0154 3.75953 13.0239 3.77192 13.0276 3.78614C13.0388 3.8264 13.0446 3.86803 13.0447 3.90977V16.0659L17.9277 13.3394V7.12513C17.9277 7.08384 17.9338 7.04175 17.9448 7.00219C17.9491 6.98797 17.957 6.97558 17.9618 6.96205C17.9716 6.93716 17.9802 6.91158 17.9935 6.88865C18.0026 6.87328 18.016 6.86089 18.0265 6.84667C18.0411 6.82775 18.0533 6.80825 18.0703 6.79162C18.0845 6.77809 18.1021 6.768 18.1179 6.75618C18.1363 6.74196 18.1521 6.72659 18.1716 6.71535L24.0327 3.4438C24.1069 3.40234 24.191 3.38051 24.2766 3.38051C24.3622 3.38051 24.4464 3.40234 24.5205 3.4438L30.3804 6.71535C30.4011 6.72717 30.4169 6.74196 30.4353 6.7555C30.4504 6.76742 30.4681 6.77809 30.4822 6.79105C30.4992 6.80825 30.5114 6.82775 30.526 6.84667C30.5371 6.86089 30.5504 6.87328 30.5591 6.88865C30.573 6.91158 30.581 6.93716 30.5907 6.96205C30.5962 6.97558 30.6041 6.98797 30.6078 7.00219ZM29.648 13.3395V7.94468L27.5973 9.08937L24.7644 10.6711V16.066L29.648 13.3395ZM23.7882 23.0988V17.7002L21.0015 19.2435L13.0441 23.6475V29.0967L23.7882 23.0988ZM1.32433 4.72864V23.0988L12.0672 29.0962V23.6481L6.45503 20.568L6.45326 20.5669L6.4509 20.5657C6.43197 20.5551 6.41601 20.5397 6.39838 20.5267C6.38301 20.5148 6.36539 20.5054 6.35202 20.4923L6.35084 20.4906C6.33499 20.4758 6.32399 20.4575 6.31063 20.441C6.29833 20.4249 6.28378 20.4114 6.27396 20.3948L6.27337 20.393C6.26237 20.3754 6.25563 20.354 6.24771 20.3339C6.23978 20.3162 6.22949 20.2995 6.22453 20.2807C6.21849 20.2583 6.21731 20.2339 6.21483 20.2109C6.21246 20.1932 6.20749 20.1755 6.20749 20.1577V7.4552L3.37503 5.87275L1.32433 4.72864ZM6.69643 1.18447L1.81397 3.90977L6.69524 6.63496L11.577 3.90909L6.69524 1.18447H6.69643ZM9.23546 18.1923L12.0678 16.6112V4.72864L10.0174 5.87344L7.18417 7.45508V19.3375L9.23546 18.1923ZM24.2765 4.40052L19.3948 7.1257L24.2765 9.85101L29.1577 7.12513L24.2765 4.40052ZM23.7881 10.6711L20.9551 9.08937L18.9046 7.94468V13.3395L21.7369 14.9207L23.7882 16.066L23.7881 10.6711ZM12.5551 22.8286L19.7155 18.8646L23.2949 16.8837L18.4167 14.1602L12.8001 17.2958L7.68115 20.1535L12.5551 22.8286Z" fill="#FF2D20"/>
</svg>
