<svg width="27" height="26" viewBox="0 0 27 26" fill="none" xmlns="http://www.w3.org/2000/svg">
<path d="M1.96389 9.00008H25.6638M7.21204 1.06731L13.8139 9.00015L20.4268 1.07287M25.3952 8.37214L20.7972 1.47499C20.6814 1.30133 20.6235 1.2145 20.547 1.15164C20.4793 1.09599 20.4013 1.05424 20.3174 1.02877C20.2227 1 20.1183 1 19.9096 1H7.71802C7.50931 1 7.40495 1 7.31023 1.02877C7.22637 1.05424 7.14835 1.09599 7.08064 1.15164C7.00416 1.2145 6.94628 1.30133 6.8305 1.47499L2.23245 8.37214C2.08173 8.59822 2.00637 8.71126 1.97936 8.83287C1.9555 8.94028 1.9586 9.05192 1.98838 9.15784C2.02209 9.27776 2.10361 9.38645 2.26664 9.60383L12.9605 23.8624C13.25 24.2484 13.3947 24.4414 13.5722 24.5104C13.7276 24.5709 13.9 24.5709 14.0555 24.5104C14.2329 24.4414 14.3777 24.2484 14.6672 23.8624L25.361 9.60383C25.5241 9.38645 25.6056 9.27776 25.6393 9.15784C25.6691 9.05192 25.6722 8.94028 25.6483 8.83287C25.6213 8.71126 25.5459 8.59822 25.3952 8.37214Z" stroke="#0D1119" stroke-width="2" stroke-linecap="round" stroke-linejoin="round"/>
</svg>
