<svg width="43" height="34" viewBox="0 0 43 34" fill="none" xmlns="http://www.w3.org/2000/svg">
<path d="M8.31075 0.672571C8.234 0.693501 7.92702 0.749316 7.63399 0.812108C5.07348 1.30049 2.75716 3.05169 1.52225 5.43778C0.796653 6.83315 0.517578 7.99131 0.517578 9.56111C0.524555 11.5146 0.978052 13.0216 2.03156 14.6263C3.17577 16.3566 5.12929 17.745 7.12468 18.2473C8.10842 18.4985 8.90378 18.5822 9.84566 18.5404C11.5201 18.4636 12.9364 18.0031 14.4016 17.0543C14.869 16.7473 14.9876 16.6985 15.0225 16.7892C15.0923 16.9636 14.9806 18.2683 14.8341 18.9799C14.2969 21.6032 12.9015 23.9125 10.2643 26.5498C8.82704 27.987 7.49445 29.1033 5.68744 30.3871C5.05952 30.8336 4.45254 31.2662 4.34788 31.3499L4.15253 31.5034L4.64789 32.2708C4.91999 32.6895 5.17115 33.0313 5.19906 33.0243C5.30372 32.9964 6.83863 31.9918 7.82237 31.308C11.7434 28.5801 14.869 25.6149 16.983 22.6288C19.1528 19.559 20.3528 16.3008 20.5482 12.9658C20.7854 8.96808 19.7738 5.77964 17.59 3.59588C15.8597 1.87259 14.0248 1.02141 11.4922 0.76327C10.6759 0.679548 8.53401 0.616756 8.31075 0.672571Z" fill="#592EEC" fill-opacity="0.2"/>
<path d="M30.5534 0.748521C27.8928 1.23607 25.5943 2.83803 24.2152 5.17131C23.0381 7.16331 22.7735 10.1234 23.5605 12.4916C24.257 14.5671 25.8799 16.4686 27.8788 17.5273C28.6102 17.9103 29.1813 18.1263 30.038 18.3422C30.6091 18.4815 30.8738 18.5024 31.9882 18.5093C32.8031 18.5093 33.43 18.4745 33.6946 18.4188C34.809 18.175 35.9722 17.7014 36.8568 17.1233C37.1354 16.9492 37.3931 16.8029 37.4348 16.8029C37.4906 16.8029 37.4975 17.0119 37.4627 17.5133C37.3931 18.5442 37.2398 19.3034 36.9403 20.2227C35.9374 23.2177 33.6668 26.0594 29.8499 29.0822C29.042 29.723 26.8968 31.2693 26.7157 31.3389C26.6669 31.3598 26.6251 31.4016 26.6251 31.4295C26.6251 31.4643 26.848 31.8334 27.1196 32.2583L27.6142 33.0245L27.9694 32.8016C28.7704 32.3071 30.9295 30.8374 31.6957 30.2524C36.1881 26.8674 39.2388 23.4963 41.0358 19.9372C42.3939 17.2556 42.9999 14.8179 42.9999 11.997C43.0069 7.72748 41.6905 4.71162 38.9184 2.62908C37.5811 1.62611 36.1672 1.06891 34.426 0.859962C34.0638 0.811206 33.5344 0.748521 33.2558 0.713696C32.5593 0.616186 31.1524 0.637081 30.5534 0.748521Z" fill="#592EEC" fill-opacity="0.2"/>
</svg>
