<svg width="177" height="176" viewBox="0 0 177 176" fill="none" xmlns="http://www.w3.org/2000/svg">
<g filter="url(#filter0_d_2755_581)">
<rect x="48.5704" y="32" width="80" height="80" rx="40" fill="white"/>
<rect x="49.0704" y="32.5" width="79" height="79" rx="39.5" stroke="#F7F8FA"/>
<path d="M108.548 61.0681C108.563 61.1213 108.57 61.1762 108.57 61.2313V69.8022C108.57 70.0262 108.447 70.233 108.247 70.3443L100.828 74.4863V82.6954C100.828 82.8052 100.799 82.9132 100.742 83.0083C100.685 83.1035 100.604 83.1826 100.506 83.2377L85.0204 91.8821C84.985 91.9015 84.9464 91.9139 84.9076 91.9274C84.8931 91.9319 84.8795 91.9406 84.8642 91.9445C84.7559 91.9721 84.6421 91.9721 84.5339 91.9445C84.5161 91.9399 84.5 91.9304 84.4831 91.9242C84.4476 91.9116 84.4106 91.9007 84.3768 91.8821L68.8943 83.2375C68.796 83.1828 68.7142 83.1038 68.6573 83.0086C68.6005 82.9135 68.5705 82.8054 68.5704 82.6954V56.9827C68.5704 56.9263 68.5786 56.8716 68.5929 56.8186C68.5978 56.8006 68.609 56.7842 68.6156 56.7662C68.6276 56.7334 68.639 56.6998 68.6567 56.6694C68.6687 56.649 68.6864 56.6327 68.7009 56.6139C68.7195 56.5889 68.7364 56.5631 68.7581 56.5412C68.7767 56.5233 68.8009 56.51 68.8218 56.4944C68.8453 56.4756 68.8661 56.4553 68.8926 56.4404L76.635 52.1183C76.733 52.0636 76.8441 52.0348 76.9572 52.0348C77.0703 52.0348 77.1815 52.0636 77.2795 52.1183L85.0211 56.4404H85.0226C85.0484 56.4562 85.0703 56.4756 85.0936 56.4936C85.1145 56.5092 85.1379 56.5233 85.1564 56.5406C85.179 56.5631 85.1951 56.589 85.2143 56.6139C85.2281 56.6327 85.2467 56.649 85.2579 56.6694C85.2764 56.7006 85.2868 56.7334 85.2998 56.7663C85.3062 56.7842 85.3175 56.8006 85.3223 56.8194C85.3372 56.8725 85.3448 56.9275 85.345 56.9827V73.0424L91.7959 69.4404V61.2306C91.7959 61.176 91.804 61.1204 91.8186 61.0681C91.8242 61.0493 91.8347 61.033 91.8411 61.0151C91.854 60.9822 91.8653 60.9484 91.8829 60.9181C91.895 60.8978 91.9126 60.8815 91.9265 60.8627C91.9457 60.8377 91.9618 60.8119 91.9843 60.79C92.0031 60.7721 92.0264 60.7587 92.0473 60.7431C92.0715 60.7243 92.0925 60.704 92.1182 60.6892L99.8614 56.3671C99.9594 56.3123 100.071 56.2835 100.184 56.2835C100.297 56.2835 100.408 56.3123 100.506 56.3671L108.247 60.6892C108.275 60.7048 108.296 60.7243 108.32 60.7422C108.34 60.758 108.363 60.7721 108.382 60.7892C108.404 60.8119 108.421 60.8377 108.44 60.8627C108.454 60.8815 108.472 60.8978 108.484 60.9181C108.502 60.9484 108.512 60.9822 108.525 61.0151C108.533 61.033 108.543 61.0493 108.548 61.0681ZM107.28 69.4406V62.3133L104.571 63.8256L100.828 65.9153V73.0425L107.28 69.4406ZM99.5384 82.3337V75.2015L95.8568 77.2404L85.3442 83.0586V90.2577L99.5384 82.3337ZM69.8609 58.0645V82.3337L84.0536 90.2571V83.0593L76.6392 78.9903L76.6368 78.9887L76.6337 78.9872C76.6087 78.9731 76.5876 78.9528 76.5643 78.9357C76.544 78.92 76.5207 78.9075 76.5031 78.8903L76.5015 78.888C76.4806 78.8684 76.4661 78.8442 76.4484 78.8224C76.4322 78.8012 76.4129 78.7833 76.4 78.7615L76.3992 78.759C76.3847 78.7357 76.3757 78.7075 76.3653 78.681C76.3548 78.6575 76.3412 78.6356 76.3347 78.6107C76.3267 78.581 76.3251 78.5489 76.3218 78.5184C76.3187 78.4951 76.3122 78.4716 76.3122 78.4481V61.6666L72.5701 59.576L69.8609 58.0645ZM76.9581 53.3822L70.5078 56.9827L76.9565 60.583L83.4059 56.9818L76.9565 53.3822H76.9581ZM80.3125 75.8516L84.0543 73.7628V58.0645L81.3454 59.5769L77.6025 61.6665V77.3646L80.3125 75.8516ZM100.184 57.631L93.7342 61.2313L100.184 64.8318L106.632 61.2306L100.184 57.631ZM99.5382 65.9153L95.7956 63.8256L93.0865 62.3133V69.4406L96.8284 71.5295L99.5384 73.0425L99.5382 65.9153ZM84.6981 81.9768L94.1579 76.7398L98.8867 74.1228L92.442 70.5248L85.0218 74.6672L78.259 78.4427L84.6981 81.9768Z" fill="#FF2D20"/>
</g>
<defs>
<filter id="filter0_d_2755_581" x="0.570435" y="0" width="176" height="176" filterUnits="userSpaceOnUse" color-interpolation-filters="sRGB">
<feFlood flood-opacity="0" result="BackgroundImageFix"/>
<feColorMatrix in="SourceAlpha" type="matrix" values="0 0 0 0 0 0 0 0 0 0 0 0 0 0 0 0 0 0 127 0" result="hardAlpha"/>
<feOffset dy="16"/>
<feGaussianBlur stdDeviation="24"/>
<feColorMatrix type="matrix" values="0 0 0 0 0 0 0 0 0 0 0 0 0 0 0 0 0 0 0.175 0"/>
<feBlend mode="normal" in2="BackgroundImageFix" result="effect1_dropShadow_2755_581"/>
<feBlend mode="normal" in="SourceGraphic" in2="effect1_dropShadow_2755_581" result="shape"/>
</filter>
</defs>
</svg>
